<?xml version="1.0" encoding="UTF-8" standalone="no"?>
<svg width="28px" height="5px" viewBox="0 0 28 5" version="1.1" xmlns="http://www.w3.org/2000/svg" xmlns:xlink="http://www.w3.org/1999/xlink">
    <!-- Generator: Sketch 3.8.2 (29753) - http://www.bohemiancoding.com/sketch -->
    <title>h2-wave-yellow</title>
    <desc>Created with Sketch.</desc>
    <defs></defs>
    <g id="Page-1" stroke="none" stroke-width="1" fill="none" fill-rule="evenodd" stroke-linecap="round">
        <g id="h2-wave-yellow" stroke="#FFDA2B" stroke-width="2">
            <path d="M0,1.20000005 C1.74912241,1.20000005 1.74912241,3.75319154 3.49837098,3.75319154 C5.24749339,3.75319154 5.24749339,1.20000005 6.99674195,1.20000005 C8.74599052,1.20000005 8.74599052,3.75319154 10.4952391,3.75319154 C12.24474,3.75319154 12.24474,1.20000005 13.9941147,1.20000005 C15.7433632,1.20000005 15.7433632,3.75319154 17.492738,3.75319154 C19.2421127,3.75319154 19.2421127,1.20000005 20.9914874,1.20000005 C22.740736,1.20000005 22.740736,3.75319154 24.4901107,3.75319154 C26.2393592,3.75319154 26.2393592,1.20000005 27.988734,1.20000005 C29.7381087,1.20000005 29.7381087,3.75319154 31.4874834,3.75319154 C33.2369843,3.75319154 33.2369843,1.20000005 34.9864851,1.20000005 C36.7356076,1.20000005 36.7356076,3.75319154 38.48473,3.75319154 C40.2339785,3.75319154 40.2339785,1.20000005 41.9832271,1.20000005 C43.7326018,1.20000005 43.7326018,3.75319154 45.4819765,3.75319154 C47.2314774,3.75319154 47.2314774,1.20000005 48.9809783,1.20000005 C50.7306053,1.20000005 50.7306053,3.75319154 52.4801062,3.75319154 C54.2297332,3.75319154 54.2297332,1.20000005 55.9792341,1.20000005 C57.7288611,1.20000005 57.7288611,3.75319154 59.4784881,3.75319154 C61.2283675,3.75319154 61.2283675,1.20000005 62.9782468,1.20000005 C64.7281261,1.20000005 64.7281261,3.75319154 66.4780055,3.75319154" id="Page-1"></path>
        </g>
    </g>
</svg>