<svg width="228" height="258" viewBox="0 0 228 258" fill="none" xmlns="http://www.w3.org/2000/svg">
<path d="M106.225 122.379C113.068 115.794 120.477 110.58 129.225 106.447C132.983 104.671 149.964 97.0728 152.781 103.132C157.291 112.833 148.595 129.248 143.559 137.028C129.167 159.26 107.992 172.56 81.3921 177.392C68.8128 179.678 45.1779 184.377 33.3921 175.682C25.4334 169.81 33.5735 153.143 36.6699 146.758C45.1467 129.277 59.0204 111.346 76.2255 101.207C87.5212 94.5507 104.003 85.4551 117.837 90.8888C131.237 96.1524 140.698 110.648 147.725 122.004C158.7 139.739 166.021 157.579 170.281 177.82C173.476 193.003 176.604 208.489 178.67 223.852C179.36 228.983 180.042 234.054 181.003 239.142C181.278 240.599 176.809 233.768 176.003 232.834C162.064 216.672 143.248 206.3 123.67 197.655C112.117 192.554 100.129 188.805 88.0588 185.038C79.1598 182.26 69.1922 180.476 60.8921 176.216C32.4993 161.644 73.4429 123.772 85.5588 113.183C114.512 87.8792 139.979 59.5257 173.448 39.2968C187.215 30.9755 200.04 23.2631 211.67 12.2444C215.691 8.43492 220.109 4.94129 223.892 0.91017C227.779 -3.23056 221.301 8.02345 220.725 9.35736C210.612 32.788 203.573 57.274 189.559 79.0734C172.006 106.378 149.692 131.191 126.114 153.815C95.5132 183.179 61.2482 208.772 30.5588 237.966C25.1191 243.141 20.2882 248.861 15.1144 254.272C13.71 255.741 13.4402 256.145 12.7255 254.219C10.4704 248.143 7.31922 242.434 5.28102 236.255C-1.36566 216.107 -1.05169 195.282 2.44769 174.559C5.08775 158.924 7.87455 143.012 12.6699 127.832C16.2011 116.654 21.7731 106.411 26.5032 95.7005C30.1607 87.4189 32.8092 77.8302 41.781 73.5133C51.6018 68.7878 63.8823 77.6648 71.4477 82.4951C90.5995 94.723 107.943 109.7 126.448 122.806C144.891 135.87 163.779 149.908 183.892 160.605C193.3 165.608 203.707 168.802 213.225 173.383" transform="translate(1 1)" stroke="#E16648" stroke-width="2" stroke-linecap="round" stroke-linejoin="round"/>
</svg>
