<svg width="282" height="300" viewBox="0 0 282 300" fill="none" xmlns="http://www.w3.org/2000/svg">
<path d="M115.222 78.2704C120.892 77.1904 126.841 74.9184 131.722 78.7148C134.024 80.5047 137.62 82.8111 138.278 85.7704C140.294 94.8429 138.655 102.312 130.611 107.881C122.381 113.579 109.452 115.084 104 105.27C101.686 101.105 99.6905 99.2545 98.4444 94.2704C96.6545 87.1108 97.3612 81.0894 100.222 73.937C106.856 57.3532 120.514 53.9393 137.556 49.8259C151.766 46.3957 161.519 56.8485 167.222 68.8259C168.869 72.2842 168.811 77.0246 169.722 80.7704C171.1 86.4356 172.558 92.0175 173.222 97.8259C173.881 103.592 174.753 109.373 175.167 115.159C175.397 118.389 173.287 119.897 172.222 122.826C170.325 128.042 165.378 130.218 160.778 132.715C150.427 138.334 137.155 142.448 125.389 143.715C118.034 144.507 100.123 147.475 93.2778 141.77C85.148 134.996 77.5499 127.854 72.5555 118.381C65.3548 104.725 58.4083 88.2311 58.2222 72.6037C57.7668 34.3501 98.2714 15.2709 129.333 5.04803C143.892 0.25667 159.823 -0.651319 175.056 0.381364C191.908 1.52387 205.77 10.3757 213.667 25.8258C224.998 47.9953 229.979 70.9726 233.278 95.7148C234.642 105.947 235.439 115.232 235.167 125.715C234.964 133.527 235.693 146.729 231.5 153.882C222.647 168.983 204.017 180.264 188.111 186.048C177.136 190.039 165.532 191.585 154.111 193.715C142.887 195.807 131.889 197.193 120.556 195.493C105.751 193.272 92.2816 184.43 79.2222 177.493C64.2298 169.528 51.8014 158.153 40.5556 145.604C32.9692 137.138 24.4809 129.194 18.4444 119.493C14.5118 113.172 10.3524 107.427 7.44444 100.493C4.13676 92.6051 2.80652 84.2742 0 76.2704" transform="translate(176.033 0.657715) rotate(63.2329)" stroke="#8B8B8B" stroke-width="2" stroke-linecap="round" stroke-linejoin="round"/>
</svg>
