<?xml version="1.0" encoding="UTF-8"?>
<svg width="802px" height="145px" viewBox="0 0 802 145" version="1.1" xmlns="http://www.w3.org/2000/svg" xmlns:xlink="http://www.w3.org/1999/xlink">
    <!-- Generator: Sketch 49.2 (51160) - http://www.bohemiancoding.com/sketch -->
    <title>Group 14</title>
    <desc>Created with Sketch.</desc>
    <defs></defs>
    <g id="Slides" stroke="none" stroke-width="1" fill="none" fill-rule="evenodd">
        <g id="Desktop-HD" transform="translate(-318.000000, -893.000000)">
            <g id="Group-7" transform="translate(261.000000, 822.000000)">
                <g id="Group-14" transform="translate(57.000000, 71.000000)">
                    <g id="Group-11">
                        <rect id="Rectangle" fill="#33BC2D" x="207" y="0" width="180" height="145" rx="6"></rect>
                        <rect id="Rectangle" fill="#F10057" x="415" y="0" width="180" height="145" rx="6"></rect>
                        <rect id="Rectangle" fill="#F77900" x="622" y="0" width="180" height="145" rx="6"></rect>
                        <rect id="Rectangle" fill="#0061B5" x="0" y="0" width="180" height="145" rx="6"></rect>
                    </g>
                    <path d="M25.6689453,107 L21.3256836,107 L21.3256836,96.4311523 L25.5737305,96.4311523 C27.5585938,96.4311523 28.7524414,97.4418945 28.7524414,99.0678711 C28.7524414,100.173828 27.9394531,101.162598 26.8994141,101.338379 L26.8994141,101.462891 C28.3276367,101.609375 29.2797852,102.627441 29.2797852,104.004395 C29.2797852,105.864746 27.9248047,107 25.6689453,107 Z M22.9663086,97.8227539 L22.9663086,100.90625 L24.9145508,100.90625 C26.3647461,100.90625 27.1191406,100.371582 27.1191406,99.3681641 C27.1191406,98.394043 26.4086914,97.8227539 25.1928711,97.8227539 L22.9663086,97.8227539 Z M22.9663086,105.608398 L25.3393555,105.608398 C26.8188477,105.608398 27.6025391,105.007812 27.6025391,103.887207 C27.6025391,102.78125 26.7895508,102.202637 25.2441406,102.202637 L22.9663086,102.202637 L22.9663086,105.608398 Z M31.2719727,107 L31.2719727,95.9111328 L32.8466797,95.9111328 L32.8466797,107 L31.2719727,107 Z M41.9287109,99.0239258 L41.9287109,107 L40.4125977,107 L40.4125977,105.73291 L40.2880859,105.73291 C39.8999023,106.641113 39.0869141,107.153809 37.878418,107.153809 C36.1132812,107.153809 35.1318359,106.077148 35.1318359,104.202148 L35.1318359,99.0239258 L36.706543,99.0239258 L36.706543,103.791992 C36.706543,105.081055 37.2265625,105.696289 38.3837891,105.696289 C39.6582031,105.696289 40.3540039,104.941895 40.3540039,103.689453 L40.3540039,99.0239258 L41.9287109,99.0239258 Z M47.487793,100.210449 C46.3232422,100.210449 45.5102539,101.030762 45.4223633,102.275879 L49.4506836,102.275879 C49.4140625,101.023438 48.6523438,100.210449 47.487793,100.210449 Z M49.4433594,104.84668 L50.9594727,104.84668 C50.6005859,106.274902 49.3261719,107.153809 47.5024414,107.153809 C45.2172852,107.153809 43.8183594,105.586426 43.8183594,103.037598 C43.8183594,100.48877 45.246582,98.8701172 47.4951172,98.8701172 C49.7143555,98.8701172 51.0546875,100.38623 51.0546875,102.891113 L51.0546875,103.44043 L45.4223633,103.44043 L45.4223633,103.52832 C45.4736328,104.927246 46.2866211,105.813477 47.5463867,105.813477 C48.4985352,105.813477 49.1503906,105.469238 49.4433594,104.84668 Z" id="Blue" fill="#FFFFFF"></path>
                    <path d="M27.5854492,120.280762 L26.2143555,120.280762 L25.7700195,122.464355 L27.1411133,122.464355 L26.9570312,123.378418 L25.5859375,123.378418 L25.0527344,126 L24.1386719,126 L24.6782227,123.378418 L22.7294922,123.378418 L22.1962891,126 L21.2885742,126 L21.8217773,123.378418 L20.4506836,123.378418 L20.6474609,122.464355 L22.0185547,122.464355 L22.456543,120.280762 L21.0854492,120.280762 L21.2695312,119.373047 L22.640625,119.373047 L23.1611328,116.840332 L24.0688477,116.840332 L23.5546875,119.373047 L25.4970703,119.373047 L26.0175781,116.840332 L26.9316406,116.840332 L26.4047852,119.373047 L27.7758789,119.373047 L27.5854492,120.280762 Z M23.3515625,120.268066 L22.9072266,122.483398 L24.8686523,122.483398 L25.3193359,120.268066 L23.3515625,120.268066 Z M32.3271484,126.21582 C30.2641602,126.21582 29.0771484,124.463867 29.0771484,121.416992 C29.0771484,118.395508 30.2768555,116.624512 32.3271484,116.624512 C34.3647461,116.624512 35.5644531,118.401855 35.5644531,121.436035 C35.5644531,124.476562 34.3837891,126.21582 32.3271484,126.21582 Z M32.3271484,125.219238 C33.6791992,125.219238 34.4155273,123.873535 34.4155273,121.416992 C34.4155273,118.98584 33.6665039,117.627441 32.3271484,117.627441 C30.987793,117.627441 30.2260742,118.998535 30.2260742,121.416992 C30.2260742,123.867188 30.9750977,125.219238 32.3271484,125.219238 Z M40.515625,126.21582 C38.4526367,126.21582 37.265625,124.463867 37.265625,121.416992 C37.265625,118.395508 38.465332,116.624512 40.515625,116.624512 C42.5532227,116.624512 43.7529297,118.401855 43.7529297,121.436035 C43.7529297,124.476562 42.5722656,126.21582 40.515625,126.21582 Z M40.515625,125.219238 C41.8676758,125.219238 42.6040039,123.873535 42.6040039,121.416992 C42.6040039,118.98584 41.8549805,117.627441 40.515625,117.627441 C39.1762695,117.627441 38.4145508,118.998535 38.4145508,121.416992 C38.4145508,123.867188 39.1635742,125.219238 40.515625,125.219238 Z M48.862793,126.209473 C47.4853516,126.209473 46.4316406,125.473145 45.8603516,124.127441 C45.5620117,123.429199 45.4160156,122.584961 45.4160156,121.575684 C45.4160156,118.427246 46.6982422,116.624512 48.9389648,116.624512 C50.4941406,116.624512 51.6494141,117.544922 51.9414062,119.017578 L50.7670898,119.017578 C50.5195312,118.160645 49.8276367,117.640137 48.9262695,117.640137 C47.4345703,117.640137 46.590332,118.960449 46.5268555,121.397949 L46.628418,121.397949 C47.0791016,120.509277 47.9741211,119.98877 49.065918,119.98877 C50.8115234,119.98877 52.074707,121.277344 52.074707,123.054688 C52.074707,124.895508 50.7416992,126.209473 48.862793,126.209473 Z M48.8500977,125.206543 C50.0244141,125.206543 50.9194336,124.29248 50.9194336,123.092773 C50.9194336,121.842285 50.0751953,120.979004 48.862793,120.979004 C47.6503906,120.979004 46.7807617,121.842285 46.7807617,123.054688 C46.7807617,124.279785 47.6757812,125.206543 48.8500977,125.206543 Z M56.0991211,126 L56.0991211,118.109863 L55.9975586,118.109863 L53.6679688,119.79834 L53.6679688,118.592285 L56.1054688,116.840332 L57.2416992,116.840332 L57.2416992,126 L56.0991211,126 Z M63.690918,126 L60.1171875,126 L60.1171875,116.840332 L63.6210938,116.840332 C65.3032227,116.840332 66.331543,117.722656 66.331543,119.125488 C66.331543,120.077637 65.6333008,120.940918 64.7509766,121.099609 L64.7509766,121.201172 C66.0014648,121.359863 66.7949219,122.216797 66.7949219,123.429199 C66.7949219,125.041504 65.6396484,126 63.690918,126 Z M61.2597656,117.849609 L61.2597656,120.788574 L63.0878906,120.788574 C64.4716797,120.788574 65.1762695,120.293457 65.1762695,119.322266 C65.1762695,118.38916 64.5161133,117.849609 63.3798828,117.849609 L61.2597656,117.849609 Z M61.2597656,124.990723 L63.5195313,124.990723 C64.8969727,124.990723 65.6206055,124.432129 65.6206055,123.37207 C65.6206055,122.312012 64.871582,121.772461 63.4116211,121.772461 L61.2597656,121.772461 L61.2597656,124.990723 Z M71.5366211,126.21582 C69.8037109,126.21582 68.5595703,125.143066 68.4580078,123.5625 L69.581543,123.5625 C69.6831055,124.552734 70.4702148,125.212891 71.5493164,125.212891 C72.7744141,125.212891 73.5932617,124.375 73.5932617,123.118164 C73.5932617,121.861328 72.7680664,121.004395 71.5683594,121.004395 C70.7368164,121.004395 70.0512695,121.378906 69.6767578,122.032715 L68.6040039,122.032715 L69.1054688,116.840332 L74.215332,116.840332 L74.215332,117.862305 L70.0004883,117.862305 L69.7402344,120.80127 L69.8417969,120.80127 C70.2861328,120.280762 70.9335938,120.020508 71.777832,120.020508 C73.5170898,120.020508 74.7358398,121.283691 74.7358398,123.086426 C74.7358398,124.946289 73.4345703,126.21582 71.5366211,126.21582 Z" id="#0061B5" fill="#FFFFFF" opacity="0.600000024"></path>
                    <path d="M232.341797,102.817871 C232.341797,105.520508 230.547363,107.256348 227.778809,107.256348 C224.783203,107.256348 222.893555,105.125 222.893555,101.711914 C222.893555,98.3427734 224.805176,96.1748047 227.76416,96.1748047 C230.166504,96.1748047 231.909668,97.5371094 232.268555,99.6757812 L230.620605,99.6757812 C230.210449,98.4013672 229.207031,97.7055664 227.76416,97.7055664 C225.808594,97.7055664 224.570801,99.2509766 224.570801,101.697266 C224.570801,104.1875 225.815918,105.725586 227.800781,105.725586 C229.529297,105.725586 230.71582,104.670898 230.730469,103.103516 L230.730469,102.876465 L228.005859,102.876465 L228.005859,101.499512 L232.341797,101.499512 L232.341797,102.817871 Z M234.414551,107 L234.414551,99.0239258 L235.930664,99.0239258 L235.930664,100.24707 L236.047852,100.24707 C236.274902,99.4633789 237.161133,98.8920898 238.201172,98.8920898 C238.435547,98.8920898 238.73584,98.9140625 238.904297,98.9580078 L238.904297,100.510742 C238.772461,100.466797 238.303711,100.415527 238.025391,100.415527 C236.831543,100.415527 235.989258,101.169922 235.989258,102.290527 L235.989258,107 L234.414551,107 Z M243.694336,100.210449 C242.529785,100.210449 241.716797,101.030762 241.628906,102.275879 L245.657227,102.275879 C245.620605,101.023438 244.858887,100.210449 243.694336,100.210449 Z M245.649902,104.84668 L247.166016,104.84668 C246.807129,106.274902 245.532715,107.153809 243.708984,107.153809 C241.423828,107.153809 240.024902,105.586426 240.024902,103.037598 C240.024902,100.48877 241.453125,98.8701172 243.70166,98.8701172 C245.920898,98.8701172 247.26123,100.38623 247.26123,102.891113 L247.26123,103.44043 L241.628906,103.44043 L241.628906,103.52832 C241.680176,104.927246 242.493164,105.813477 243.75293,105.813477 C244.705078,105.813477 245.356934,105.469238 245.649902,104.84668 Z M252.424805,100.210449 C251.260254,100.210449 250.447266,101.030762 250.359375,102.275879 L254.387695,102.275879 C254.351074,101.023438 253.589355,100.210449 252.424805,100.210449 Z M254.380371,104.84668 L255.896484,104.84668 C255.537598,106.274902 254.263184,107.153809 252.439453,107.153809 C250.154297,107.153809 248.755371,105.586426 248.755371,103.037598 C248.755371,100.48877 250.183594,98.8701172 252.432129,98.8701172 C254.651367,98.8701172 255.991699,100.38623 255.991699,102.891113 L255.991699,103.44043 L250.359375,103.44043 L250.359375,103.52832 C250.410645,104.927246 251.223633,105.813477 252.483398,105.813477 C253.435547,105.813477 254.087402,105.469238 254.380371,104.84668 Z M257.881348,107 L257.881348,99.0239258 L259.397461,99.0239258 L259.397461,100.291016 L259.514648,100.291016 C259.902832,99.4047852 260.693848,98.8701172 261.89502,98.8701172 C263.674805,98.8701172 264.65625,99.9394531 264.65625,101.836426 L264.65625,107 L263.081543,107 L263.081543,102.231934 C263.081543,100.950195 262.524902,100.312988 261.360352,100.312988 C260.195801,100.312988 259.456055,101.089355 259.456055,102.334473 L259.456055,107 L257.881348,107 Z" id="Green" fill="#FFFFFF"></path>
                    <path d="M229.585449,120.280762 L228.214355,120.280762 L227.77002,122.464355 L229.141113,122.464355 L228.957031,123.378418 L227.585938,123.378418 L227.052734,126 L226.138672,126 L226.678223,123.378418 L224.729492,123.378418 L224.196289,126 L223.288574,126 L223.821777,123.378418 L222.450684,123.378418 L222.647461,122.464355 L224.018555,122.464355 L224.456543,120.280762 L223.085449,120.280762 L223.269531,119.373047 L224.640625,119.373047 L225.161133,116.840332 L226.068848,116.840332 L225.554688,119.373047 L227.49707,119.373047 L228.017578,116.840332 L228.931641,116.840332 L228.404785,119.373047 L229.775879,119.373047 L229.585449,120.280762 Z M225.351562,120.268066 L224.907227,122.483398 L226.868652,122.483398 L227.319336,120.268066 L225.351562,120.268066 Z M234.327148,126.21582 C232.26416,126.21582 231.077148,124.463867 231.077148,121.416992 C231.077148,118.395508 232.276855,116.624512 234.327148,116.624512 C236.364746,116.624512 237.564453,118.401855 237.564453,121.436035 C237.564453,124.476562 236.383789,126.21582 234.327148,126.21582 Z M234.327148,125.219238 C235.679199,125.219238 236.415527,123.873535 236.415527,121.416992 C236.415527,118.98584 235.666504,117.627441 234.327148,117.627441 C232.987793,117.627441 232.226074,118.998535 232.226074,121.416992 C232.226074,123.867188 232.975098,125.219238 234.327148,125.219238 Z M242.515625,126.21582 C240.452637,126.21582 239.265625,124.463867 239.265625,121.416992 C239.265625,118.395508 240.465332,116.624512 242.515625,116.624512 C244.553223,116.624512 245.75293,118.401855 245.75293,121.436035 C245.75293,124.476562 244.572266,126.21582 242.515625,126.21582 Z M242.515625,125.219238 C243.867676,125.219238 244.604004,123.873535 244.604004,121.416992 C244.604004,118.98584 243.85498,117.627441 242.515625,117.627441 C241.17627,117.627441 240.414551,118.998535 240.414551,121.416992 C240.414551,123.867188 241.163574,125.219238 242.515625,125.219238 Z M250.862793,126.209473 C249.485352,126.209473 248.431641,125.473145 247.860352,124.127441 C247.562012,123.429199 247.416016,122.584961 247.416016,121.575684 C247.416016,118.427246 248.698242,116.624512 250.938965,116.624512 C252.494141,116.624512 253.649414,117.544922 253.941406,119.017578 L252.76709,119.017578 C252.519531,118.160645 251.827637,117.640137 250.92627,117.640137 C249.43457,117.640137 248.590332,118.960449 248.526855,121.397949 L248.628418,121.397949 C249.079102,120.509277 249.974121,119.98877 251.065918,119.98877 C252.811523,119.98877 254.074707,121.277344 254.074707,123.054688 C254.074707,124.895508 252.741699,126.209473 250.862793,126.209473 Z M250.850098,125.206543 C252.024414,125.206543 252.919434,124.29248 252.919434,123.092773 C252.919434,121.842285 252.075195,120.979004 250.862793,120.979004 C249.650391,120.979004 248.780762,121.842285 248.780762,123.054688 C248.780762,124.279785 249.675781,125.206543 250.850098,125.206543 Z M258.099121,126 L258.099121,118.109863 L257.997559,118.109863 L255.667969,119.79834 L255.667969,118.592285 L258.105469,116.840332 L259.241699,116.840332 L259.241699,126 L258.099121,126 Z M265.690918,126 L262.117188,126 L262.117188,116.840332 L265.621094,116.840332 C267.303223,116.840332 268.331543,117.722656 268.331543,119.125488 C268.331543,120.077637 267.633301,120.940918 266.750977,121.099609 L266.750977,121.201172 C268.001465,121.359863 268.794922,122.216797 268.794922,123.429199 C268.794922,125.041504 267.639648,126 265.690918,126 Z M263.259766,117.849609 L263.259766,120.788574 L265.087891,120.788574 C266.47168,120.788574 267.17627,120.293457 267.17627,119.322266 C267.17627,118.38916 266.516113,117.849609 265.379883,117.849609 L263.259766,117.849609 Z M263.259766,124.990723 L265.519531,124.990723 C266.896973,124.990723 267.620605,124.432129 267.620605,123.37207 C267.620605,122.312012 266.871582,121.772461 265.411621,121.772461 L263.259766,121.772461 L263.259766,124.990723 Z M273.536621,126.21582 C271.803711,126.21582 270.55957,125.143066 270.458008,123.5625 L271.581543,123.5625 C271.683105,124.552734 272.470215,125.212891 273.549316,125.212891 C274.774414,125.212891 275.593262,124.375 275.593262,123.118164 C275.593262,121.861328 274.768066,121.004395 273.568359,121.004395 C272.736816,121.004395 272.05127,121.378906 271.676758,122.032715 L270.604004,122.032715 L271.105469,116.840332 L276.215332,116.840332 L276.215332,117.862305 L272.000488,117.862305 L271.740234,120.80127 L271.841797,120.80127 C272.286133,120.280762 272.933594,120.020508 273.777832,120.020508 C275.51709,120.020508 276.73584,121.283691 276.73584,123.086426 C276.73584,124.946289 275.43457,126.21582 273.536621,126.21582 Z" id="#0061B5" fill="#FFFFFF" opacity="0.600000024"></path>
                    <path d="M430.966309,97.8740234 L430.966309,101.572754 L433.324707,101.572754 C434.591797,101.572754 435.324219,100.898926 435.324219,99.7197266 C435.324219,98.5698242 434.547852,97.8740234 433.280762,97.8740234 L430.966309,97.8740234 Z M430.966309,102.97168 L430.966309,107 L429.325684,107 L429.325684,96.4311523 L433.507812,96.4311523 C435.63916,96.4311523 437.008789,97.6982422 437.008789,99.6831055 C437.008789,101.104004 436.24707,102.26123 434.958008,102.700684 L437.331055,107 L435.434082,107 L433.280762,102.97168 L430.966309,102.97168 Z M442.436035,100.210449 C441.271484,100.210449 440.458496,101.030762 440.370605,102.275879 L444.398926,102.275879 C444.362305,101.023438 443.600586,100.210449 442.436035,100.210449 Z M444.391602,104.84668 L445.907715,104.84668 C445.548828,106.274902 444.274414,107.153809 442.450684,107.153809 C440.165527,107.153809 438.766602,105.586426 438.766602,103.037598 C438.766602,100.48877 440.194824,98.8701172 442.443359,98.8701172 C444.662598,98.8701172 446.00293,100.38623 446.00293,102.891113 L446.00293,103.44043 L440.370605,103.44043 L440.370605,103.52832 C440.421875,104.927246 441.234863,105.813477 442.494629,105.813477 C443.446777,105.813477 444.098633,105.469238 444.391602,104.84668 Z M450.807617,107.131836 C448.778809,107.131836 447.49707,105.535156 447.49707,103.008301 C447.49707,100.48877 448.793457,98.8920898 450.807617,98.8920898 C451.898926,98.8920898 452.821777,99.4121094 453.253906,100.291016 L453.371094,100.291016 L453.371094,95.9111328 L454.945801,95.9111328 L454.945801,107 L453.437012,107 L453.437012,105.740234 L453.3125,105.740234 C452.836426,106.611816 451.90625,107.131836 450.807617,107.131836 Z M451.254395,100.305664 C449.928711,100.305664 449.123047,101.331055 449.123047,103.008301 C449.123047,104.700195 449.921387,105.718262 451.254395,105.718262 C452.580078,105.718262 453.400391,104.685547 453.400391,103.015625 C453.400391,101.353027 452.572754,100.305664 451.254395,100.305664 Z" id="Red" fill="#FFFFFF"></path>
                    <path d="M435.585449,120.280762 L434.214355,120.280762 L433.77002,122.464355 L435.141113,122.464355 L434.957031,123.378418 L433.585938,123.378418 L433.052734,126 L432.138672,126 L432.678223,123.378418 L430.729492,123.378418 L430.196289,126 L429.288574,126 L429.821777,123.378418 L428.450684,123.378418 L428.647461,122.464355 L430.018555,122.464355 L430.456543,120.280762 L429.085449,120.280762 L429.269531,119.373047 L430.640625,119.373047 L431.161133,116.840332 L432.068848,116.840332 L431.554688,119.373047 L433.49707,119.373047 L434.017578,116.840332 L434.931641,116.840332 L434.404785,119.373047 L435.775879,119.373047 L435.585449,120.280762 Z M431.351562,120.268066 L430.907227,122.483398 L432.868652,122.483398 L433.319336,120.268066 L431.351562,120.268066 Z M440.327148,126.21582 C438.26416,126.21582 437.077148,124.463867 437.077148,121.416992 C437.077148,118.395508 438.276855,116.624512 440.327148,116.624512 C442.364746,116.624512 443.564453,118.401855 443.564453,121.436035 C443.564453,124.476562 442.383789,126.21582 440.327148,126.21582 Z M440.327148,125.219238 C441.679199,125.219238 442.415527,123.873535 442.415527,121.416992 C442.415527,118.98584 441.666504,117.627441 440.327148,117.627441 C438.987793,117.627441 438.226074,118.998535 438.226074,121.416992 C438.226074,123.867188 438.975098,125.219238 440.327148,125.219238 Z M448.515625,126.21582 C446.452637,126.21582 445.265625,124.463867 445.265625,121.416992 C445.265625,118.395508 446.465332,116.624512 448.515625,116.624512 C450.553223,116.624512 451.75293,118.401855 451.75293,121.436035 C451.75293,124.476562 450.572266,126.21582 448.515625,126.21582 Z M448.515625,125.219238 C449.867676,125.219238 450.604004,123.873535 450.604004,121.416992 C450.604004,118.98584 449.85498,117.627441 448.515625,117.627441 C447.17627,117.627441 446.414551,118.998535 446.414551,121.416992 C446.414551,123.867188 447.163574,125.219238 448.515625,125.219238 Z M456.862793,126.209473 C455.485352,126.209473 454.431641,125.473145 453.860352,124.127441 C453.562012,123.429199 453.416016,122.584961 453.416016,121.575684 C453.416016,118.427246 454.698242,116.624512 456.938965,116.624512 C458.494141,116.624512 459.649414,117.544922 459.941406,119.017578 L458.76709,119.017578 C458.519531,118.160645 457.827637,117.640137 456.92627,117.640137 C455.43457,117.640137 454.590332,118.960449 454.526855,121.397949 L454.628418,121.397949 C455.079102,120.509277 455.974121,119.98877 457.065918,119.98877 C458.811523,119.98877 460.074707,121.277344 460.074707,123.054688 C460.074707,124.895508 458.741699,126.209473 456.862793,126.209473 Z M456.850098,125.206543 C458.024414,125.206543 458.919434,124.29248 458.919434,123.092773 C458.919434,121.842285 458.075195,120.979004 456.862793,120.979004 C455.650391,120.979004 454.780762,121.842285 454.780762,123.054688 C454.780762,124.279785 455.675781,125.206543 456.850098,125.206543 Z M464.099121,126 L464.099121,118.109863 L463.997559,118.109863 L461.667969,119.79834 L461.667969,118.592285 L464.105469,116.840332 L465.241699,116.840332 L465.241699,126 L464.099121,126 Z M471.690918,126 L468.117188,126 L468.117188,116.840332 L471.621094,116.840332 C473.303223,116.840332 474.331543,117.722656 474.331543,119.125488 C474.331543,120.077637 473.633301,120.940918 472.750977,121.099609 L472.750977,121.201172 C474.001465,121.359863 474.794922,122.216797 474.794922,123.429199 C474.794922,125.041504 473.639648,126 471.690918,126 Z M469.259766,117.849609 L469.259766,120.788574 L471.087891,120.788574 C472.47168,120.788574 473.17627,120.293457 473.17627,119.322266 C473.17627,118.38916 472.516113,117.849609 471.379883,117.849609 L469.259766,117.849609 Z M469.259766,124.990723 L471.519531,124.990723 C472.896973,124.990723 473.620605,124.432129 473.620605,123.37207 C473.620605,122.312012 472.871582,121.772461 471.411621,121.772461 L469.259766,121.772461 L469.259766,124.990723 Z M479.536621,126.21582 C477.803711,126.21582 476.55957,125.143066 476.458008,123.5625 L477.581543,123.5625 C477.683105,124.552734 478.470215,125.212891 479.549316,125.212891 C480.774414,125.212891 481.593262,124.375 481.593262,123.118164 C481.593262,121.861328 480.768066,121.004395 479.568359,121.004395 C478.736816,121.004395 478.05127,121.378906 477.676758,122.032715 L476.604004,122.032715 L477.105469,116.840332 L482.215332,116.840332 L482.215332,117.862305 L478.000488,117.862305 L477.740234,120.80127 L477.841797,120.80127 C478.286133,120.280762 478.933594,120.020508 479.777832,120.020508 C481.51709,120.020508 482.73584,121.283691 482.73584,123.086426 C482.73584,124.946289 481.43457,126.21582 479.536621,126.21582 Z" id="#0061B5" fill="#FFFFFF" opacity="0.600000024"></path>
                    <path d="M644.830078,96.1748047 C647.876953,96.1748047 649.751953,98.3061523 649.751953,101.711914 C649.751953,105.110352 647.891602,107.256348 644.830078,107.256348 C641.76123,107.256348 639.893555,105.117676 639.893555,101.711914 C639.893555,98.2988281 641.797852,96.1748047 644.830078,96.1748047 Z M644.830078,97.7055664 C642.837891,97.7055664 641.570801,99.2583008 641.570801,101.711914 C641.570801,104.150879 642.80127,105.725586 644.830078,105.725586 C646.836914,105.725586 648.074707,104.150879 648.074707,101.711914 C648.074707,99.2583008 646.836914,97.7055664 644.830078,97.7055664 Z M651.788086,107 L651.788086,99.0239258 L653.304199,99.0239258 L653.304199,100.24707 L653.421387,100.24707 C653.648438,99.4633789 654.534668,98.8920898 655.574707,98.8920898 C655.809082,98.8920898 656.109375,98.9140625 656.277832,98.9580078 L656.277832,100.510742 C656.145996,100.466797 655.677246,100.415527 655.398926,100.415527 C654.205078,100.415527 653.362793,101.169922 653.362793,102.290527 L653.362793,107 L651.788086,107 Z M660.401367,105.806152 C661.587891,105.806152 662.466797,105.051758 662.466797,104.062988 L662.466797,103.396484 L660.518555,103.520996 C659.419922,103.594238 658.921875,103.967773 658.921875,104.670898 C658.921875,105.388672 659.544434,105.806152 660.401367,105.806152 Z M659.998535,107.131836 C658.460449,107.131836 657.339844,106.20166 657.339844,104.744141 C657.339844,103.308594 658.40918,102.480957 660.306152,102.36377 L662.466797,102.239258 L662.466797,101.550781 C662.466797,100.708496 661.910156,100.232422 660.833496,100.232422 C659.95459,100.232422 659.34668,100.554688 659.170898,101.118652 L657.647461,101.118652 C657.808594,99.7490234 659.097656,98.8701172 660.906738,98.8701172 C662.90625,98.8701172 664.03418,99.8662109 664.03418,101.550781 L664.03418,107 L662.518066,107 L662.518066,105.879395 L662.393555,105.879395 C661.91748,106.677734 661.045898,107.131836 659.998535,107.131836 Z M666.275391,107 L666.275391,99.0239258 L667.791504,99.0239258 L667.791504,100.291016 L667.908691,100.291016 C668.296875,99.4047852 669.087891,98.8701172 670.289062,98.8701172 C672.068848,98.8701172 673.050293,99.9394531 673.050293,101.836426 L673.050293,107 L671.475586,107 L671.475586,102.231934 C671.475586,100.950195 670.918945,100.312988 669.754395,100.312988 C668.589844,100.312988 667.850098,101.089355 667.850098,102.334473 L667.850098,107 L666.275391,107 Z M678.602051,105.520508 C679.949707,105.520508 680.762695,104.509766 680.762695,102.913086 C680.762695,101.32373 679.942383,100.305664 678.602051,100.305664 C677.24707,100.305664 676.485352,101.32373 676.485352,102.913086 C676.485352,104.502441 677.24707,105.520508 678.602051,105.520508 Z M678.624023,110.046875 C676.631836,110.046875 675.342773,109.15332 675.174316,107.79834 L676.785645,107.79834 C676.91748,108.376953 677.583984,108.750488 678.645996,108.750488 C679.957031,108.750488 680.733398,108.12793 680.733398,107.073242 L680.733398,105.54248 L680.616211,105.54248 C680.132812,106.406738 679.253906,106.882812 678.155273,106.882812 C676.119141,106.882812 674.859375,105.308105 674.859375,102.92041 C674.859375,100.48877 676.133789,98.8920898 678.169922,98.8920898 C679.268555,98.8920898 680.228027,99.434082 680.674805,100.29834 L680.799316,100.29834 L680.799316,99.0239258 L682.308105,99.0239258 L682.308105,107.065918 C682.308105,108.889648 680.879883,110.046875 678.624023,110.046875 Z M687.867188,100.210449 C686.702637,100.210449 685.889648,101.030762 685.801758,102.275879 L689.830078,102.275879 C689.793457,101.023438 689.031738,100.210449 687.867188,100.210449 Z M689.822754,104.84668 L691.338867,104.84668 C690.97998,106.274902 689.705566,107.153809 687.881836,107.153809 C685.59668,107.153809 684.197754,105.586426 684.197754,103.037598 C684.197754,100.48877 685.625977,98.8701172 687.874512,98.8701172 C690.09375,98.8701172 691.434082,100.38623 691.434082,102.891113 L691.434082,103.44043 L685.801758,103.44043 L685.801758,103.52832 C685.853027,104.927246 686.666016,105.813477 687.925781,105.813477 C688.87793,105.813477 689.529785,105.469238 689.822754,104.84668 Z" id="Orange" fill="#FFFFFF"></path>
                    <path d="M646.585449,120.280762 L645.214355,120.280762 L644.77002,122.464355 L646.141113,122.464355 L645.957031,123.378418 L644.585938,123.378418 L644.052734,126 L643.138672,126 L643.678223,123.378418 L641.729492,123.378418 L641.196289,126 L640.288574,126 L640.821777,123.378418 L639.450684,123.378418 L639.647461,122.464355 L641.018555,122.464355 L641.456543,120.280762 L640.085449,120.280762 L640.269531,119.373047 L641.640625,119.373047 L642.161133,116.840332 L643.068848,116.840332 L642.554688,119.373047 L644.49707,119.373047 L645.017578,116.840332 L645.931641,116.840332 L645.404785,119.373047 L646.775879,119.373047 L646.585449,120.280762 Z M642.351562,120.268066 L641.907227,122.483398 L643.868652,122.483398 L644.319336,120.268066 L642.351562,120.268066 Z M651.327148,126.21582 C649.26416,126.21582 648.077148,124.463867 648.077148,121.416992 C648.077148,118.395508 649.276855,116.624512 651.327148,116.624512 C653.364746,116.624512 654.564453,118.401855 654.564453,121.436035 C654.564453,124.476562 653.383789,126.21582 651.327148,126.21582 Z M651.327148,125.219238 C652.679199,125.219238 653.415527,123.873535 653.415527,121.416992 C653.415527,118.98584 652.666504,117.627441 651.327148,117.627441 C649.987793,117.627441 649.226074,118.998535 649.226074,121.416992 C649.226074,123.867188 649.975098,125.219238 651.327148,125.219238 Z M659.515625,126.21582 C657.452637,126.21582 656.265625,124.463867 656.265625,121.416992 C656.265625,118.395508 657.465332,116.624512 659.515625,116.624512 C661.553223,116.624512 662.75293,118.401855 662.75293,121.436035 C662.75293,124.476562 661.572266,126.21582 659.515625,126.21582 Z M659.515625,125.219238 C660.867676,125.219238 661.604004,123.873535 661.604004,121.416992 C661.604004,118.98584 660.85498,117.627441 659.515625,117.627441 C658.17627,117.627441 657.414551,118.998535 657.414551,121.416992 C657.414551,123.867188 658.163574,125.219238 659.515625,125.219238 Z M667.862793,126.209473 C666.485352,126.209473 665.431641,125.473145 664.860352,124.127441 C664.562012,123.429199 664.416016,122.584961 664.416016,121.575684 C664.416016,118.427246 665.698242,116.624512 667.938965,116.624512 C669.494141,116.624512 670.649414,117.544922 670.941406,119.017578 L669.76709,119.017578 C669.519531,118.160645 668.827637,117.640137 667.92627,117.640137 C666.43457,117.640137 665.590332,118.960449 665.526855,121.397949 L665.628418,121.397949 C666.079102,120.509277 666.974121,119.98877 668.065918,119.98877 C669.811523,119.98877 671.074707,121.277344 671.074707,123.054688 C671.074707,124.895508 669.741699,126.209473 667.862793,126.209473 Z M667.850098,125.206543 C669.024414,125.206543 669.919434,124.29248 669.919434,123.092773 C669.919434,121.842285 669.075195,120.979004 667.862793,120.979004 C666.650391,120.979004 665.780762,121.842285 665.780762,123.054688 C665.780762,124.279785 666.675781,125.206543 667.850098,125.206543 Z M675.099121,126 L675.099121,118.109863 L674.997559,118.109863 L672.667969,119.79834 L672.667969,118.592285 L675.105469,116.840332 L676.241699,116.840332 L676.241699,126 L675.099121,126 Z M682.690918,126 L679.117188,126 L679.117188,116.840332 L682.621094,116.840332 C684.303223,116.840332 685.331543,117.722656 685.331543,119.125488 C685.331543,120.077637 684.633301,120.940918 683.750977,121.099609 L683.750977,121.201172 C685.001465,121.359863 685.794922,122.216797 685.794922,123.429199 C685.794922,125.041504 684.639648,126 682.690918,126 Z M680.259766,117.849609 L680.259766,120.788574 L682.087891,120.788574 C683.47168,120.788574 684.17627,120.293457 684.17627,119.322266 C684.17627,118.38916 683.516113,117.849609 682.379883,117.849609 L680.259766,117.849609 Z M680.259766,124.990723 L682.519531,124.990723 C683.896973,124.990723 684.620605,124.432129 684.620605,123.37207 C684.620605,122.312012 683.871582,121.772461 682.411621,121.772461 L680.259766,121.772461 L680.259766,124.990723 Z M690.536621,126.21582 C688.803711,126.21582 687.55957,125.143066 687.458008,123.5625 L688.581543,123.5625 C688.683105,124.552734 689.470215,125.212891 690.549316,125.212891 C691.774414,125.212891 692.593262,124.375 692.593262,123.118164 C692.593262,121.861328 691.768066,121.004395 690.568359,121.004395 C689.736816,121.004395 689.05127,121.378906 688.676758,122.032715 L687.604004,122.032715 L688.105469,116.840332 L693.215332,116.840332 L693.215332,117.862305 L689.000488,117.862305 L688.740234,120.80127 L688.841797,120.80127 C689.286133,120.280762 689.933594,120.020508 690.777832,120.020508 C692.51709,120.020508 693.73584,121.283691 693.73584,123.086426 C693.73584,124.946289 692.43457,126.21582 690.536621,126.21582 Z" id="#0061B5" fill="#FFFFFF" opacity="0.600000024"></path>
                </g>
            </g>
        </g>
    </g>
</svg>