<svg xmlns="http://www.w3.org/2000/svg" viewBox="0 0 1000 500"><defs><style>.a{fill:#f5a623;}.b{fill:#878787;}</style></defs><title>sf-brand</title><path class="a" d="M219,277.77c-7.73,0-13.83-2.53-18.29-6.54a3,3,0,0,1-1-2.38,3.17,3.17,0,0,1,3.12-3.27,3.27,3.27,0,0,1,1.93.59,21.52,21.52,0,0,0,14.58,5.65c9.37,0,12.35-5.06,12.35-9.07,0-13.53-30.94-6.1-30.94-24.69,0-8.63,7.73-14.43,18-14.43a26.8,26.8,0,0,1,16.81,5.5,3,3,0,0,1,1,2.38,3.14,3.14,0,0,1-3.12,3.12,3.5,3.5,0,0,1-1.93-.74,21.2,21.2,0,0,0-13.39-4.61c-6.25,0-10.71,3.42-10.71,8.33,0,11.75,30.94,5.06,30.94,24.54C238.22,270,233.17,277.77,219,277.77Z"/><path class="a" d="M272.88,256.05H258.45v18a3.27,3.27,0,0,1-6.54,0V229.28a4.79,4.79,0,0,1,4.76-4.76H273c10.56,0,16.36,7.14,16.36,15.77S283.29,256.05,272.88,256.05Zm-.74-25.58H258.45V250.4h13.68c6.25,0,10.41-4,10.41-10S278.23,230.47,272.13,230.47Z"/><path class="a" d="M325.53,277.77c-15.47,0-25.88-11.6-25.88-27.07s10.41-27.07,25.88-27.07,25.88,11.6,25.88,27.07S341,277.77,325.53,277.77Zm0-48.19c-11.75,0-19.19,9.07-19.19,21.27s7.44,21.27,19.19,21.27,19.19-9.07,19.19-21.27S337.28,229.58,325.53,229.58Z"/><path class="a" d="M389.34,255.61l11.16,17a3.39,3.39,0,0,1,.45,1.64,3.18,3.18,0,0,1-3.27,3.12,2.92,2.92,0,0,1-2.53-1.34L382.35,256.2H371.94v18a3.27,3.27,0,1,1-6.54,0V229.43a4.79,4.79,0,0,1,4.76-4.76h16.36c9.52,0,16.36,6.1,16.36,15.77C403,249.81,396.48,255,389.34,255.61Zm-17.25-25.14V250.4h13.68c6.25,0,10.41-4.16,10.41-10s-4.16-10-10.41-10Z"/><path class="a" d="M450,230.47H435.74V274.2a3.27,3.27,0,1,1-6.54,0V230.47H415.07a2.77,2.77,0,0,1-2.83-3,2.73,2.73,0,0,1,2.83-2.83h35a2.77,2.77,0,0,1,2.83,3A2.82,2.82,0,0,1,450,230.47Z"/><path class="a" d="M481.55,277.77c-7.73,0-13.83-2.53-18.29-6.54a3,3,0,0,1-1-2.38,3.17,3.17,0,0,1,3.12-3.27,3.27,3.27,0,0,1,1.93.59,21.52,21.52,0,0,0,14.58,5.65c9.37,0,12.35-5.06,12.35-9.07,0-13.53-30.94-6.1-30.94-24.69,0-8.63,7.73-14.43,18-14.43a26.8,26.8,0,0,1,16.81,5.5,3,3,0,0,1,1,2.38,3.14,3.14,0,0,1-3.12,3.12,3.5,3.5,0,0,1-1.93-.74,21.2,21.2,0,0,0-13.39-4.61c-6.25,0-10.71,3.42-10.71,8.33,0,11.75,30.94,5.06,30.94,24.54C500.89,270,495.68,277.77,481.55,277.77Z"/><path class="b" d="M546.4,230.47H521v16.81h24.84a2.77,2.77,0,0,1,2.83,3,2.73,2.73,0,0,1-2.83,2.83H521V274.2a3.27,3.27,0,1,1-6.54,0V229.43a4.79,4.79,0,0,1,4.76-4.76H546.4a2.77,2.77,0,0,1,2.83,3A2.93,2.93,0,0,1,546.4,230.47Z"/><path class="b" d="M582.69,277.77c-14.13,0-21.27-8.33-21.27-21.27V227.35a3.13,3.13,0,0,1,3.42-3.12,3,3,0,0,1,3.12,3.12V256.5c0,9.52,5.21,15.62,14.87,15.62s14.87-6.1,14.87-15.62V227.35a3.13,3.13,0,0,1,3.42-3.12,3,3,0,0,1,3.12,3.12V256.5C604.11,269.59,597,277.77,582.69,277.77Z"/><path class="b" d="M637.13,277.77c-7.73,0-13.83-2.53-18.29-6.54a3,3,0,0,1-1-2.38,3.17,3.17,0,0,1,3.12-3.27,3.27,3.27,0,0,1,1.93.59,21.51,21.51,0,0,0,14.58,5.65c9.37,0,12.35-5.06,12.35-9.07,0-13.53-30.94-6.1-30.94-24.69,0-8.63,7.73-14.43,18-14.43a26.8,26.8,0,0,1,16.81,5.5,3,3,0,0,1,1,2.38,3.14,3.14,0,0,1-3.12,3.12,3.5,3.5,0,0,1-1.93-.74,21.2,21.2,0,0,0-13.39-4.61c-6.25,0-10.71,3.42-10.71,8.33,0,11.75,30.94,5.06,30.94,24.54C656.32,270,651.26,277.77,637.13,277.77Z"/><path class="b" d="M673.27,277.32a3.21,3.21,0,0,1-3.27-3.27v-46.7a3.13,3.13,0,0,1,3.42-3.12,3,3,0,0,1,3.12,3.12V274.2A3.18,3.18,0,0,1,673.27,277.32Z"/><path class="b" d="M716.41,277.77c-15.47,0-25.88-11.6-25.88-27.07s10.41-27.07,25.88-27.07,25.88,11.6,25.88,27.07S731.88,277.77,716.41,277.77Zm0-48.19c-11.75,0-19.19,9.07-19.19,21.27s7.44,21.27,19.19,21.27,19.19-9.07,19.19-21.27S728.16,229.58,716.41,229.58Z"/><path class="b" d="M795.83,277.32a4.16,4.16,0,0,1-3.27-1.64L763,235.23v39a3.27,3.27,0,0,1-6.54,0V228.09A4.17,4.17,0,0,1,764,226l29.15,39.56V227.35a3.13,3.13,0,0,1,3.42-3.12,3,3,0,0,1,3.12,3.12v46.41A3.79,3.79,0,0,1,795.83,277.32Z"/></svg>