<?xml version="1.0" encoding="utf-8"?>
<!-- Generator: Adobe Illustrator 17.0.0, SVG Export Plug-In . SVG Version: 6.00 Build 0)  -->
<!DOCTYPE svg PUBLIC "-//W3C//DTD SVG 1.1//EN" "http://www.w3.org/Graphics/SVG/1.1/DTD/svg11.dtd">
<svg version="1.1" id="Layer_1" xmlns="http://www.w3.org/2000/svg" xmlns:xlink="http://www.w3.org/1999/xlink" x="0px" y="0px"
	 width="364.101px" height="86.373px" viewBox="0 0 364.101 86.373" enable-background="new 0 0 364.101 86.373"
	 xml:space="preserve">
<g>
	<path fill="#FFFFFF" d="M7,15.976h28.101c3.927,0,6.699,0.616,8.469,2.233c2.309,2.079,3.312,4.773,3.312,12.625
		c0,7.468-2.696,9.701-7.93,11.01v0.154c6.159,1,8.469,3.85,8.469,12.085c0,8.855-1.31,11.319-3.543,13.399
		c-1.693,1.614-4.849,2.384-8.621,2.384H7V15.976z M33.331,38.302c2.386,0,3.156-0.153,3.696-0.615
		c0.77-0.693,1.23-1.925,1.23-6.929c0-4.927-0.384-6.082-1.154-6.774c-0.461-0.462-1.309-0.616-3.772-0.616H15.624v14.935H33.331z
		 M37.411,46.155c-0.461-0.462-1.078-0.615-3.619-0.615H15.624v16.938h18.168c2.388,0,3.235-0.077,3.774-0.616
		c0.615-0.615,1.231-1.849,1.231-7.699C38.797,48.081,38.104,46.848,37.411,46.155z"/>
	<path fill="#FFFFFF" d="M85.086,48.696c-1.001-0.848-2.54-1.078-5.62-1.078H64.531v22.249h-8.624v-53.89h29.025
		c3.542,0,6.082,0.616,7.7,2.233c2.078,2.079,3.463,5.005,3.463,13.088c0,9.47-2.616,12.164-8.776,13.01v0.153
		c5.697,1.079,7.93,2.465,8.237,10.318c0.309,7.544,0.539,12.164,0.847,15.088h-8.622c-0.538-3.618-0.847-8.699-1.001-14.857
		C86.704,50.697,86.164,49.62,85.086,48.696z M82.392,40.535c2.232,0,2.925-0.384,3.31-0.77c0.694-0.693,1.694-2.386,1.694-7.93
		c0-5.543-0.924-7.16-1.616-7.852c-0.386-0.386-1.155-0.616-3.387-0.616H64.531v17.168H82.392z"/>
	<path fill="#FFFFFF" d="M141.795,69.867h-36.803v-53.89h36.803v7.391h-28.178v14.859h23.327v7.388h-23.327v16.862h28.178V69.867z"
		/>
	<path fill="#FFFFFF" d="M205.72,68.02c-0.309,1.541-0.848,1.847-3.08,1.847h-6.236c-2.232,0-2.695-0.306-3.08-2l-9.7-40.342h-1
		l-9.702,40.342c-0.385,1.694-0.999,2-3.079,2h-6.314c-2.232,0-2.77-0.23-3.08-1.847l-11.472-52.043h9.163l8.237,42.958h1.001
		l9.7-40.571c0.462-2.157,1.154-2.542,3.388-2.542h5.62c2.232,0,2.925,0.385,3.387,2.542l9.624,40.571h1.002l8.312-42.958h8.699
		L205.72,68.02z"/>
	<path fill="#FFFFFF" d="M224.311,15.976h25.943c4.08,0,6.545,0.539,8.314,2.309c2.08,2.079,3.234,4.696,3.234,11.471
		c0,7.7-2.617,10.626-7.082,12.011v0.078c5.541,1.23,7.543,4.618,7.543,13.086c0,8.392-1.385,10.701-3.309,12.627
		c-1.771,1.692-4.391,2.309-8.316,2.309h-26.328V15.976z M249.563,40.151c3.232,0,4.772-0.616,5.926-1.772
		c1.078-1.077,2.311-3.079,2.311-8.699c0-5.544-1.076-7.699-2.231-8.777c-1.156-1.155-2.85-1.463-5.775-1.463h-21.48v20.711H249.563
		z M256.03,45.462c-1.309-1.31-2.852-1.848-5.93-1.848h-21.787v22.79h21.941c2.924,0,4.619-0.31,5.775-1.464
		c1.076-1.077,2.232-2.849,2.232-9.933C258.263,49.002,257.337,46.77,256.03,45.462z"/>
	<path fill="#FFFFFF" d="M300.702,15.976c4.697,0,6.619,0.616,8.238,2.155c2.617,2.618,4.08,6.468,4.08,24.791
		c0,18.323-1.463,22.173-4.08,24.79c-1.619,1.538-3.541,2.154-8.238,2.154h-17.555c-4.773,0-6.697-0.616-8.234-2.154
		c-2.697-2.619-4.16-6.467-4.16-24.79c0-18.323,1.463-22.173,4.16-24.791c1.537-1.539,3.461-2.155,8.234-2.155H300.702z
		 M277.683,64.863c0.924,1.001,2.004,1.542,5.773,1.542h16.938c3.697,0,4.852-0.541,5.775-1.542c1.539-1.54,2.772-4.62,2.772-21.941
		c0-17.322-1.232-20.402-2.772-21.941c-0.924-1.001-2.078-1.541-5.775-1.541h-16.938c-3.77,0-4.85,0.539-5.773,1.541
		c-1.617,1.539-2.924,4.619-2.924,21.941C274.759,60.243,276.065,63.323,277.683,64.863z"/>
	<path fill="#FFFFFF" d="M339.87,19.44v50.426h-4.004V19.44h-18.016v-3.464h40.113v3.464H339.87z"/>
</g>
<g>
</g>
<g>
</g>
<g>
</g>
<g>
</g>
<g>
</g>
<g>
</g>
</svg>
