<?xml version="1.0" encoding="utf-8"?>
<!-- Generator: Adobe Illustrator 16.0.0, SVG Export Plug-In . SVG Version: 6.00 Build 0)  -->
<!DOCTYPE svg PUBLIC "-//W3C//DTD SVG 1.1//EN" "http://www.w3.org/Graphics/SVG/1.1/DTD/svg11.dtd">
<svg version="1.1" id="Layer_1" xmlns="http://www.w3.org/2000/svg" xmlns:xlink="http://www.w3.org/1999/xlink" x="0px" y="0px"
	 width="350.964px" height="54.045px" viewBox="0 0 350.964 54.045" enable-background="new 0 0 350.964 54.045"
	 xml:space="preserve">
<g>
	<path fill="#FFFFFF" d="M0,0.155h28.101c3.927,0,6.699,0.616,8.469,2.232c2.309,2.079,3.312,4.773,3.312,12.625
		c0,7.468-2.696,9.701-7.93,11.01v0.154c6.159,1,8.469,3.85,8.469,12.085c0,8.855-1.31,11.319-3.543,13.399
		c-1.693,1.614-4.849,2.384-8.622,2.384H0V0.155z M26.331,22.48c2.386,0,3.156-0.153,3.696-0.615c0.77-0.693,1.23-1.925,1.23-6.929
		c0-4.927-0.384-6.082-1.154-6.774c-0.461-0.462-1.309-0.616-3.772-0.616H8.624V22.48H26.331z M30.411,30.333
		c-0.461-0.462-1.078-0.615-3.619-0.615H8.624v16.938h18.168c2.388,0,3.235-0.077,3.774-0.616c0.615-0.615,1.231-1.849,1.231-7.699
		C31.797,32.259,31.104,31.026,30.411,30.333z"/>
	<path fill="#FFFFFF" d="M78.086,32.874c-1.001-0.848-2.541-1.078-5.62-1.078H57.531v22.249h-8.624V0.155h29.025
		c3.542,0,6.083,0.616,7.7,2.232c2.078,2.079,3.463,5.005,3.463,13.088c0,9.47-2.616,12.165-8.776,13.01v0.153
		c5.697,1.079,7.93,2.465,8.237,10.318c0.309,7.544,0.539,12.164,0.847,15.088h-8.622c-0.539-3.618-0.847-8.699-1.001-14.857
		C79.704,34.875,79.164,33.798,78.086,32.874z M75.392,24.713c2.232,0,2.925-0.384,3.31-0.77c0.694-0.693,1.694-2.386,1.694-7.93
		c0-5.543-0.924-7.16-1.616-7.852c-0.386-0.386-1.155-0.616-3.387-0.616H57.531v17.168H75.392z"/>
	<path fill="#FFFFFF" d="M134.795,54.045H97.992V0.155h36.803v7.391h-28.178v14.859h23.327v7.388h-23.327v16.862h28.178V54.045z"/>
	<path fill="#FFFFFF" d="M198.72,52.198c-0.309,1.541-0.848,1.847-3.08,1.847h-6.236c-2.232,0-2.695-0.306-3.08-2l-9.7-40.342h-1
		l-9.702,40.342c-0.385,1.694-1,2-3.079,2h-6.313c-2.232,0-2.771-0.23-3.08-1.847L141.978,0.155h9.163l8.237,42.958h1.001
		l9.7-40.571C170.542,0.385,171.233,0,173.467,0h5.62c2.232,0,2.925,0.385,3.387,2.542l9.624,40.571h1.002l8.312-42.958h8.699
		L198.72,52.198z"/>
	<path fill="#FFFFFF" d="M217.312,0.155h25.943c4.08,0,6.545,0.539,8.314,2.309c2.08,2.079,3.234,4.696,3.234,11.471
		c0,7.7-2.617,10.625-7.082,12.011v0.078c5.541,1.23,7.543,4.618,7.543,13.086c0,8.392-1.385,10.701-3.309,12.627
		c-1.771,1.692-4.391,2.309-8.316,2.309h-26.328V0.155z M242.563,24.329c3.232,0,4.771-0.616,5.926-1.771
		c1.078-1.077,2.311-3.079,2.311-8.699c0-5.543-1.076-7.699-2.23-8.777c-1.156-1.155-2.85-1.463-5.775-1.463h-21.48v20.71H242.563z
		 M249.03,29.641c-1.309-1.31-2.852-1.848-5.93-1.848h-21.787v22.79h21.941c2.924,0,4.619-0.31,5.775-1.464
		c1.076-1.077,2.232-2.849,2.232-9.933C251.263,33.181,250.337,30.948,249.03,29.641z"/>
	<path fill="#FFFFFF" d="M293.702,0.155c4.697,0,6.619,0.616,8.238,2.155c2.617,2.618,4.08,6.468,4.08,24.791
		s-1.463,22.173-4.08,24.79c-1.619,1.538-3.541,2.154-8.238,2.154h-17.555c-4.773,0-6.697-0.616-8.234-2.154
		c-2.697-2.619-4.16-6.467-4.16-24.79s1.463-22.173,4.16-24.791c1.537-1.539,3.461-2.155,8.234-2.155H293.702z M270.683,49.041
		c0.924,1.001,2.004,1.542,5.773,1.542h16.938c3.697,0,4.852-0.541,5.775-1.542c1.539-1.54,2.771-4.62,2.771-21.94
		c0-17.322-1.232-20.402-2.771-21.941c-0.924-1.001-2.078-1.541-5.775-1.541h-16.938c-3.77,0-4.85,0.539-5.773,1.541
		c-1.617,1.539-2.924,4.619-2.924,21.941C267.759,44.421,269.065,47.501,270.683,49.041z"/>
	<path fill="#FFFFFF" d="M332.87,3.619v50.426h-4.004V3.619h-18.016V0.155h40.113v3.464H332.87z"/>
</g>
</svg>
