<?xml version="1.0" encoding="UTF-8"?>
<svg width="150px" height="43px" viewBox="0 0 150 43" version="1.1" xmlns="http://www.w3.org/2000/svg" xmlns:xlink="http://www.w3.org/1999/xlink">
    <!-- Generator: Sketch 48.2 (47327) - http://www.bohemiancoding.com/sketch -->
    <title>tru-logo</title>
    <desc>Created with Sketch.</desc>
    <defs></defs>
    <g id="TRU-Case-Study" stroke="none" stroke-width="1" fill="none" fill-rule="evenodd" transform="translate(-200.000000, -317.000000)">
        <g id="tru-logo" transform="translate(200.000000, 317.000000)" fill-rule="nonzero">
            <path d="M146.804321,22.4316398 C146.058436,21.2536754 145.104665,20.2804454 144.075824,19.4644752 C144.4223,19.2904015 144.769738,19.0431378 145.109477,18.7088372 C146.684017,17.1609663 147.478987,14.5617301 146.086346,12.8912164 C142.239501,8.27430821 135.762327,7.67889717 131.967453,9.77470447 C130.390026,10.6450728 129.167736,11.7053396 128.28326,12.9683627 C127.746222,11.6924819 126.58649,10.8666211 125.088944,10.7983763 C124.525921,10.7696937 123.543277,10.830026 122.814715,10.8953037 C120.998604,11.0575087 119.69162,12.4352621 119.481809,14.361941 C119.167305,13.7340665 118.672333,13.220914 118.064145,12.8922055 C117.57138,12.6271388 116.795659,12.3264661 115.752381,11.9308441 L114.822671,11.5728062 L114.855393,11.586653 C112.863157,10.7785952 111.048971,11.3769734 109.879615,13.2274951 C109.342577,14.0761042 108.414791,15.7248586 107.623671,18.0441923 C107.80585,15.5382029 107.925232,13.0278096 107.981697,10.5155066 C108.164559,7.51669217 107.121281,5.6988093 104.382197,4.2409424 C95.3391758,-0.571798656 86.8274178,-0.648944937 81.8756997,0.884090131 C76.7266828,2.47646849 72.8808002,6.85995973 72.0078735,12.0930491 C67.715422,9.567992 63.7607845,9.83206965 61.0457609,11.1732281 C61.0861831,10.5669374 60.9957143,9.89042389 60.5683941,9.25841782 C59.7599503,8.06462858 58.3509483,7.98847135 57.8187228,7.95978876 C56.590688,7.89703391 55.3611602,7.87031855 54.1316417,7.87967532 C54.0469476,7.87967532 53.9333805,7.87473004 53.8130764,7.86879571 C53.0527543,7.83121163 51.2693658,7.74219669 50.2405249,9.62436813 C49.4288546,11.204592 48.5962728,12.7733787 47.7430111,14.3302913 L44.2397547,9.62041191 C44.2164922,9.58909858 44.1924228,9.55842702 44.1675722,9.52842981 L44.1252252,9.4760099 C43.1185202,8.24463657 41.862545,7.99242757 40.1744374,8.68476599 C38.9973818,9.16940288 37.3160112,9.91910648 36.197664,10.5036379 C35.7405083,10.7429892 34.6683579,11.3027943 34.350755,12.5836203 C34.2737603,12.8922055 34.2564365,13.1889219 34.2766476,13.4737697 C33.2475635,12.9764285 32.1516476,12.6406932 31.0255487,12.4777915 C29.1969259,12.2107466 27.3914015,12.3828422 25.7312045,12.9406692 C25.7408288,12.0287605 25.3231328,9.42754621 24.9198734,8.58487145 L24.8765639,8.48398785 C24.1258661,6.70368906 22.7361128,5.97871183 20.7477261,6.32784821 C13.8528556,7.53845138 11.3765153,7.67593001 3.78291845,7.74219669 C1.04768368,7.76890117 0.364356205,9.50370343 0.198817718,10.2494508 C-0.0543021777,11.3631266 -0.0456402801,16.3192806 0.112198742,17.3993286 C0.543368755,20.3694604 3.18909725,20.3120952 4.0581743,20.2933031 C5.35360921,20.2656096 6.26310845,20.2092335 6.99359515,20.164726 L7.33429645,20.1429668 C7.48443601,22.5987901 8.15428942,28.1325521 9.4054524,33.4793828 L9.41796403,33.535759 C10.2215956,37.014265 12.9164082,36.6967784 13.7238896,36.5167704 C14.6786232,36.3011564 18.016341,35.3338607 19.2646167,34.8353771 C20.4291607,34.3715103 21.1490606,33.3112435 21.1923701,31.9967896 C21.1951079,31.8945858 21.1941448,31.7923127 21.1894828,31.6901826 C21.869923,32.4092255 22.6485314,33.0352972 23.523383,33.5525729 C26.0930793,35.0757174 29.3528401,35.5109016 32.0293664,34.6929532 C33.8483649,34.1341372 35.3892203,33.3517948 36.6471203,32.3488931 C36.8771418,32.8355081 37.1822331,33.2509112 37.448827,33.5792774 C37.9714282,34.2221631 40.7172497,37.4484601 43.466921,37.8490273 C44.4360911,37.9894731 44.9509927,37.8055089 45.5727245,37.5325298 L45.6352827,37.5038472 C47.6486926,36.618643 50.4917199,33.0174942 54.085445,26.8022733 C54.2365469,26.5411628 54.3866865,26.2780742 54.5358636,26.0139966 C54.3549262,26.4936882 54.2375094,26.9753579 54.185538,27.4144983 C53.9853519,29.1087493 54.8082322,30.0849465 55.4453629,30.6724451 L55.6599854,30.8752013 C57.0709123,32.2005349 60.0063332,34.9629652 65.4431175,35.2151742 C66.8832313,35.2604316 68.319207,35.033814 69.6797479,34.5465731 C69.6547246,35.8916877 70.4785673,36.8955784 70.7615226,37.2397695 L70.7961702,37.2813098 C71.1205102,37.6571507 74.0337951,40.9744407 76.493774,42.0920728 C79.7593094,43.5716989 81.2712917,43.3086103 83.8467626,40.816192 C85.0372923,39.6659211 87.1969921,36.8649177 89.8600444,32.3429588 C89.7253037,33.7404933 89.5308923,35.7364061 89.4644844,36.2596161 C89.2623734,37.8341915 89.1516936,39.4780007 90.2017081,40.7281661 C91.1641412,41.8754697 92.5914294,42.0228389 93.5798481,42.0337185 C93.6250825,42.0337185 93.6703169,42.0337185 93.7165136,42.0297623 C93.9070754,42.0198718 98.4179992,41.7607394 100.079159,41.520399 C102.934698,41.1188428 103.670959,40.1614376 104.328301,38.0280462 L104.477478,37.5503327 C105.347517,34.8452676 106.002934,31.6575437 106.496662,28.4352029 C107.064498,30.7901426 108.446552,32.7870444 110.461887,34.0490785 C113.549372,35.9816917 117.483798,35.8590489 120.988979,33.7177451 C122.507699,32.7900116 123.726139,31.5833646 124.704933,30.2253923 C124.805026,30.3935316 124.90512,30.5458461 124.996551,30.6823356 L125.076433,30.8020113 C126.252526,32.5852772 130.049324,36.0835643 135.991386,36.5424858 C138.08564,36.7046908 142.018142,36.5731465 144.825559,33.878961 C145.53776,33.194535 147.257627,31.2965387 147.821613,28.4589403 C148.254708,26.290932 147.892833,24.1506172 146.805284,22.4316398 L146.804321,22.4316398 Z M84.5731905,10.7517917 C84.5731905,10.7517917 84.5731905,10.755375 84.5767143,10.7571667 L84.5714286,10.75 L84.5731905,10.7517917 Z" id="Shape" fill="#FFFFFF"></path>
            <path d="M103.52096,5.83437111 C95.5054188,1.73671532 87.5876051,1.30169994 82.6629243,2.76562127 C73.5589715,5.47217351 70.7373402,16.9442858 79.1715747,22.5682781 C79.6812888,22.9087249 79.3603222,23.624609 78.7212634,24.7641601 C77.9308234,26.187417 76.4639584,28.981918 73.8732313,31.0028482 C72.3143878,32.2189999 71.2997503,32.7230503 72.5845746,34.2238534 C72.5845746,34.2238534 75.4368654,37.3919002 77.5437473,38.3101609 C80.0827365,39.4166131 80.7189209,39.230313 82.6092702,37.4732292 C83.7973255,36.3686684 86.1542739,33.355714 88.9950674,28.5497397 C90.4715136,26.0540753 92.4413859,26.006791 92.1750316,30.115795 C92.1750316,30.115795 91.7860393,34.0687609 91.6768148,34.8877247 C91.362555,37.2424819 91.6087891,38.0586086 93.7386656,38.0794136 C93.7386656,38.0794136 98.3126785,37.8306983 99.897391,37.6084622 C102.13266,37.3067885 102.010022,36.9493193 102.596384,35.202638 C105.71982,25.8781778 105.9833,9.87434007 105.9833,9.87434007 C106.119352,7.72763371 105.435262,6.81221004 103.52096,5.83437111 M96.488335,14.3171086 C96.488335,14.3171086 93.7921647,16.1597512 93.7256937,16.209406 C93.4953219,16.3854546 93.1811784,16.5958102 93.1383821,17.4489691 C93.121992,17.8064833 93.0172775,20.3154025 93.0109036,20.6322901 C93.0045296,20.9753593 92.8533766,21.9233136 91.7561509,20.9627199 C91.7561509,20.9627199 89.9168182,19.3593228 89.6454711,19.12098 C89.5835529,19.0668112 88.9534449,18.3535884 87.9709499,18.7761052 L85.0935779,19.9217757 C85.0935779,19.9217757 83.3635125,20.6241647 84.0054579,19.0767421 C84.6310131,17.5672377 85.0526027,16.3177436 85.1891868,15.9168944 C85.3330554,15.4925719 85.282064,14.8994234 84.9324087,14.4859347 C84.2995358,13.677044 83.680269,12.8577779 83.0748648,12.0284759 C83.0748648,12.0284759 81.9393955,10.6850892 83.8306302,10.7753706 C83.8306302,10.7753706 87.0603891,10.8494013 87.1122911,10.8539154 C87.1669247,10.8593323 87.7715371,10.8999589 88.2031429,10.2237514 C88.7339998,9.39045444 90.2947009,7.44127976 89.9714518,7.85567123 C90.24462,7.51169922 90.8765492,6.66034595 91.2954071,8.0723465 C91.2954071,8.0723465 91.8900033,9.92943419 92.1713666,10.7094652 C92.3625843,11.2421252 92.48551,11.5960282 93.445241,11.9038877 L96.413669,12.972819 C96.413669,12.972819 97.7995425,13.3998499 96.4892456,14.3171086" id="Shape" fill="#0061AF"></path>
            <path d="M36.6585119,19.51077 C35.1570632,17.0647769 32.7486129,15.4981445 29.8802327,15.0994882 C26.2146406,14.5907911 22.6677401,16.0580008 20.6252555,18.9248514 C19.1305978,21.0002181 18.6359198,23.6078341 19.2701932,26.067846 C20.7795546,32.0978849 26.822935,33.7851761 30.6022732,32.685734 C34.8702252,31.4434321 37.2569153,28.9984044 37.9047736,25.2097214 C38.2143608,23.3834314 37.7613546,21.3061713 36.6585119,19.51077 M25.9687738,27.508711 C24.7581639,27.130813 23.8562194,25.3316093 24.2941635,23.376034 C24.7301034,21.4223202 26.2022772,20.0661692 27.5712285,20.4719906 C28.7858471,20.8349961 29.6807765,22.7431014 29.2568626,24.7033307 C28.8058903,26.7845617 27.355764,27.9452483 25.969776,27.508711" id="Shape" fill="#F58220"></path>
            <path d="M112.288878,13.3645076 C111.956702,13.8631143 109.339155,17.7566873 109.011725,23.7371931 C108.867465,26.3958124 110.061401,28.7426868 112.207257,30.0183431 C114.589434,31.4327581 117.681517,31.3134255 120.473693,29.6945725 C126.47374,26.2191261 127.147583,17.4578932 126.977698,13.5069667 C126.940685,12.5930085 126.393069,12.0444485 125.474365,12.004671 C125.121309,11.9880199 124.361101,12.0157717 123.500291,12.0897764 C122.630939,12.1637811 122.10705,12.7576689 122.063392,13.7197302 L122.057698,13.9805968 C122.016888,17.6540057 121.762536,20.9065128 120.131078,22.9166658 C119.064318,24.2357998 117.790661,24.7630834 116.95073,24.4235868 C116.199063,24.1210925 115.721679,23.1322046 115.837466,22.1275906 C116.125985,19.620681 117.207929,17.6438301 117.877975,16.3820497 L118.1608,15.8381151 C118.571749,14.9907611 118.364851,14.0860535 117.67867,13.732681 C117.281008,13.5300931 116.412605,13.2174232 115.647651,12.9417557 L114.722304,12.6041092 C114.063646,12.3515681 113.094642,12.1545305 112.288878,13.3645076 Z" id="Shape" fill="#72BF44"></path>
            <path d="M133.491511,11.9025381 C130.943217,13.3807373 129.63378,15.4008426 129.363535,18.2609022 C128.997635,22.1234879 133.83605,24.8149545 134.987612,25.4963512 C136.371343,26.3152314 136.42242,27.2585493 136.064879,27.8185189 C135.498385,28.701625 133.92799,28.4527496 132.768999,27.9499812 C131.498567,27.3980399 130.854064,26.7417315 129.806514,25.4200829 C129.193586,24.6473651 127.327871,26.8621551 127.036266,28.4095978 C126.901608,29.1170863 127.156994,29.4492546 127.55354,30.0784677 C128.570443,31.7001717 131.837534,34.5722736 136.574723,34.957629 C137.881374,35.0640032 141.284052,35.1503067 143.577888,32.8341602 C144.506567,31.89586 145.518826,30.3413925 145.868938,28.4959014 C146.110394,27.2194116 146.091821,25.5405065 145.172429,24.0121308 C143.882495,21.8665843 141.732604,20.4415722 139.344043,19.2222836 C135.863356,17.4450325 136.536647,16.3893193 137.313951,15.9016039 C138.043893,15.4439943 140.522536,15.7671309 142.464402,17.7701761 C143.448802,18.7867517 145.490037,15.6356685 144.640296,14.5628953 C141.53851,10.6491295 136.272903,10.2868553 133.491511,11.9025381 Z" id="Shape" fill="#ED145B"></path>
            <path d="M59.7904862,12.8767692 C57.7475324,19.4062432 49.0177471,34.3528499 45.6082559,35.7842044 C45.1266396,35.9859389 45.0307079,36.0406954 44.5295137,35.9715293 C42.718558,35.7208021 40.4641629,33.403737 39.7378228,32.5506882 C39.4147875,32.1712351 38.7178143,31.3028161 39.2797,30.8455512 C41.4068387,29.108713 44.0518129,26.4611876 44.1771115,24.9155169 C44.2045206,24.5725682 44.1017366,24.2209737 43.9803536,24.0538223 C43.7816379,23.7800397 38.2489236,16.3398784 37.6929112,15.544468 C36.7492565,14.1880436 36.7551298,13.8691109 37.7986319,13.3484437 C38.8421339,12.8268159 40.5023398,12.1188238 41.6672248,11.6596376 C42.8321098,11.2033333 43.0092898,11.5213053 43.3381985,11.8988371 L48.2963015,18.2659628 C48.6545771,18.5157293 48.9795702,18.4446419 49.2399563,18.1324338 C49.8703646,17.3735277 52.5496002,12.4387171 52.9715039,11.6577163 C53.4638881,10.7960217 54.2783287,11.030418 55.0996216,11.0256148 C55.9688803,11.0179296 57.3158398,11.030418 58.7244696,11.1015054 C60.0792603,11.1687502 60.2045588,11.5587703 59.7914651,12.8767692 L59.7904862,12.8767692 Z" id="Shape" fill="#72BF44"></path>
            <path d="M61.4880253,13.7153469 C59.2568372,15.0962149 58.1940871,16.8311997 58.1412432,19.1713681 C58.0717632,22.3321881 62.4666166,24.4241 63.5685103,24.8953189 C64.8925443,25.4611563 65.0814124,26.1394116 64.8445933,26.6546609 C64.4962148,27.4116089 63.7064917,27.5521314 62.7797658,27.3610208 C61.1005032,27.0181458 59.7911481,25.5539011 58.4671141,24.8222472 C57.7184918,24.409111 56.6175766,25.8293253 56.4551304,27.1052698 C56.3807575,27.6889067 56.5617969,28.009298 57.0432638,28.423371 C58.2792246,29.4913422 60.8294334,31.9907695 65.891686,32.208111 C67.0933961,32.2596359 70.2190166,32.0282422 72.1615202,29.9859815 C72.9492862,29.1587722 73.7722814,28.0580125 73.9660425,26.5347483 C74.0991309,25.4817662 73.8525259,24.1983272 73.0217019,22.9458031 C72.324945,21.8984419 71.0547335,20.8529543 68.8235454,19.9358106 C65.2076507,18.450956 66.3496667,16.9586068 67.2088698,16.6766249 C67.9418347,16.4367998 69.2296608,16.6204159 71.3698399,17.9057286 C72.5304491,18.6017835 74.0687946,15.8700256 73.1087966,15.1805284 C68.309785,11.7367898 63.9286319,12.206135 61.4880253,13.7153469 Z M3.68027845,10.4381414 C11.2185734,10.3736601 13.7679869,10.2247841 20.5686152,9.05274104 C22.1003306,8.78722967 22.2271905,9.58471203 22.4743323,10.0958214 C22.683886,10.5253809 23.0832596,12.7556764 23.056948,13.3303188 C23.0287569,13.90022 23.2984516,14.7280465 22.3813017,14.9973509 C19.5170879,15.8356082 18.7681449,16.0973266 16.8652469,16.6918824 C15.9885043,16.9668763 16.0439468,17.3499713 16.068379,18.0573694 C16.2027565,21.9679726 17.4422244,27.1321687 18.3199067,30.0215013 C18.6901496,31.2371641 18.8555372,32.1076621 18.0455135,32.4253274 C16.9178703,32.8653177 13.7783236,33.7576256 12.93635,33.9434835 C11.4788711,34.2639937 11.267438,33.1422081 11.1302414,32.5656692 C9.89265295,27.3701806 9.27808739,22.0722806 9.15780544,20.0932727 C9.09766447,19.0843295 8.78286407,18.1417641 7.87793038,18.1626257 C6.94950412,18.1863321 5.90831353,18.3010709 3.88701304,18.3437424 C2.80635495,18.3674488 2.2331363,18.2982262 2.09030149,17.3234201 C1.94464758,16.3505106 1.98411509,11.9344876 2.14480425,11.2432098 C2.30455371,10.5509838 3.0713511,10.443831 3.68027845,10.4381414 Z" id="Shape" fill="#ED145B"></path>
            <path d="M148.505338,11 C149.339146,11 150,11.6628272 150,12.5005236 C150,13.3413613 149.340214,14 148.505338,14 C147.672598,14 147,13.3413613 147,12.5005236 C147,11.6628272 147.672598,11 148.505338,11 Z M148.503947,11 C147.677632,11 147,11.6677324 147,12.4968128 C147,13.3383046 147.677632,13.9998313 148.503947,13.9998313 C149.336842,14.0122427 150,13.3383046 150,12.5030185 C150,11.6677324 149.336842,11.0012411 148.503947,11.0012411 L148.503947,11 Z M148.825858,12.4990814 L148.5,12.4990814 L148.5,11.0367422 C148.671504,11.0183711 148.829815,11 149.085752,11 C149.406332,11 149.613456,11.0505205 149.742744,11.1148194 C149.864116,11.1745254 149.936675,11.276485 149.936675,11.4151868 C149.936675,11.6080833 149.751979,11.7293325 149.521108,11.7752603 L149.521108,11.7844458 C149.705805,11.8074097 149.833773,11.9277404 149.873351,12.1399265 C149.924802,12.3704838 149.969657,12.4577465 150,12.5 L149.649077,12.5 C149.604222,12.4577465 149.555409,12.3199633 149.514512,12.1298224 C149.469657,11.9461115 149.327177,11.8726271 149.059367,11.8726271 L148.825858,11.8726271 L148.825858,12.4990814 Z M148.5,13.3282829 L148.7685,13.3282829 C149.0925,13.3282829 149.367,13.2082829 149.367,12.9217829 C149.367,12.7087829 149.205,12.5002829 148.767,12.5002829 C148.677525,12.498455 148.588089,12.5054893 148.5,12.5212829 L148.5,13.3282829 Z" id="Shape" fill="#FFFFFF"></path>
        </g>
    </g>
</svg>