<?xml version="1.0" encoding="UTF-8"?>
<svg width="742px" height="149px" viewBox="0 0 742 149" version="1.1" xmlns="http://www.w3.org/2000/svg" xmlns:xlink="http://www.w3.org/1999/xlink">
    <!-- Generator: Sketch 49.2 (51160) - http://www.bohemiancoding.com/sketch -->
    <title>Group 22</title>
    <desc>Created with Sketch.</desc>
    <defs>
        <linearGradient x1="50%" y1="100%" x2="50%" y2="3.061617e-15%" id="linearGradient-1">
            <stop stop-color="#0061B5" offset="0%"></stop>
            <stop stop-color="#0371D0" offset="100%"></stop>
        </linearGradient>
        <path d="M20.772,26.272 C20.772,26.146 20.814,26.02 20.884,25.88 L24.524,17.76 C24.72,17.326 25.07,17.06 25.56,17.06 L25.644,17.06 C26.134,17.06 26.47,17.326 26.666,17.76 L30.306,25.88 C30.376,26.006 30.404,26.132 30.404,26.244 C30.404,26.706 30.054,27.07 29.592,27.07 C29.186,27.07 28.906,26.832 28.752,26.468 L27.954,24.634 L23.194,24.634 L22.368,26.524 C22.228,26.874 21.934,27.07 21.57,27.07 C21.122,27.07 20.772,26.72 20.772,26.272 Z M23.852,23.108 L27.296,23.108 L25.574,19.146 L23.852,23.108 Z M39.336,17.55 L39.336,26.23 C39.336,26.706 38.958,27.07 38.496,27.07 C38.02,27.07 37.642,26.706 37.642,26.23 L37.642,25.768 C37.096,26.538 36.326,27.154 35.122,27.154 C33.386,27.154 31.692,25.768 31.692,23.318 L31.692,23.29 C31.692,20.84 33.358,19.454 35.122,19.454 C36.34,19.454 37.11,20.056 37.642,20.756 L37.642,17.55 C37.642,17.074 38.02,16.71 38.482,16.71 C38.958,16.71 39.336,17.074 39.336,17.55 Z M35.528,20.924 C34.366,20.924 33.4,21.82 33.4,23.29 L33.4,23.318 C33.4,24.746 34.38,25.684 35.528,25.684 C36.662,25.684 37.67,24.732 37.67,23.318 L37.67,23.29 C37.67,21.862 36.662,20.924 35.528,20.924 Z M48.73,17.55 L48.73,26.23 C48.73,26.706 48.352,27.07 47.89,27.07 C47.414,27.07 47.036,26.706 47.036,26.23 L47.036,25.768 C46.49,26.538 45.72,27.154 44.516,27.154 C42.78,27.154 41.086,25.768 41.086,23.318 L41.086,23.29 C41.086,20.84 42.752,19.454 44.516,19.454 C45.734,19.454 46.504,20.056 47.036,20.756 L47.036,17.55 C47.036,17.074 47.414,16.71 47.876,16.71 C48.352,16.71 48.73,17.074 48.73,17.55 Z M44.922,20.924 C43.76,20.924 42.794,21.82 42.794,23.29 L42.794,23.318 C42.794,24.746 43.774,25.684 44.922,25.684 C46.056,25.684 47.064,24.732 47.064,23.318 L47.064,23.29 C47.064,21.862 46.056,20.924 44.922,20.924 Z M57.536,27.126 C56.29,27.126 55.408,26.58 55.408,24.956 L55.408,21.064 L55.128,21.064 C54.722,21.064 54.4,20.742 54.4,20.336 C54.4,19.93 54.722,19.608 55.128,19.608 L55.408,19.608 L55.408,18.348 C55.408,17.886 55.786,17.508 56.262,17.508 C56.724,17.508 57.102,17.886 57.102,18.348 L57.102,19.608 L58.432,19.608 C58.838,19.608 59.174,19.93 59.174,20.336 C59.174,20.742 58.838,21.064 58.432,21.064 L57.102,21.064 L57.102,24.69 C57.102,25.348 57.438,25.614 58.012,25.614 C58.208,25.614 58.376,25.572 58.432,25.572 C58.81,25.572 59.146,25.88 59.146,26.272 C59.146,26.58 58.936,26.832 58.698,26.93 C58.334,27.056 57.984,27.126 57.536,27.126 Z M64.326,27.168 C62.072,27.168 60.406,25.446 60.406,23.346 L60.406,23.318 C60.406,21.204 62.086,19.454 64.354,19.454 C66.622,19.454 68.288,21.176 68.288,23.29 L68.288,23.318 C68.288,25.418 66.608,27.168 64.326,27.168 Z M64.354,25.684 C65.726,25.684 66.594,24.62 66.594,23.346 L66.594,23.318 C66.594,22.016 65.656,20.938 64.326,20.938 C62.968,20.938 62.1,22.002 62.1,23.29 L62.1,23.318 C62.1,24.606 63.038,25.684 64.354,25.684 Z M74.406,26.132 L74.406,18.068 C74.406,17.578 74.784,17.2 75.274,17.2 L78.802,17.2 C79.922,17.2 80.804,17.508 81.364,18.068 C81.798,18.502 82.022,19.034 82.022,19.692 L82.022,19.72 C82.022,20.896 81.35,21.526 80.622,21.904 C81.77,22.296 82.568,22.954 82.568,24.284 L82.568,24.312 C82.568,26.062 81.126,27 78.942,27 L75.274,27 C74.784,27 74.406,26.622 74.406,26.132 Z M76.1,21.33 L78.452,21.33 C79.558,21.33 80.3,20.896 80.3,20 L80.3,19.972 C80.3,19.202 79.684,18.726 78.578,18.726 L76.1,18.726 L76.1,21.33 Z M76.1,25.474 L78.956,25.474 C80.132,25.474 80.846,25.012 80.846,24.13 L80.846,24.102 C80.846,23.276 80.188,22.786 78.83,22.786 L76.1,22.786 L76.1,25.474 Z M86.446,27.154 C85.06,27.154 83.828,26.356 83.828,24.872 L83.828,24.844 C83.828,23.248 85.074,22.464 86.88,22.464 C87.706,22.464 88.294,22.59 88.868,22.772 L88.868,22.59 C88.868,21.54 88.224,20.98 87.034,20.98 C86.39,20.98 85.858,21.092 85.396,21.274 C85.298,21.302 85.214,21.316 85.13,21.316 C84.738,21.316 84.416,21.008 84.416,20.616 C84.416,20.308 84.626,20.042 84.878,19.944 C85.578,19.678 86.292,19.51 87.258,19.51 C88.364,19.51 89.19,19.804 89.708,20.336 C90.254,20.868 90.506,21.652 90.506,22.618 L90.506,26.258 C90.506,26.72 90.142,27.07 89.68,27.07 C89.19,27.07 88.854,26.734 88.854,26.356 L88.854,26.076 C88.35,26.678 87.58,27.154 86.446,27.154 Z M86.922,25.922 C88.042,25.922 88.896,25.278 88.896,24.34 L88.896,23.836 C88.462,23.668 87.888,23.542 87.216,23.542 C86.124,23.542 85.48,24.004 85.48,24.774 L85.48,24.802 C85.48,25.516 86.11,25.922 86.922,25.922 Z M95.07,27.14 C94.132,27.14 93.11,26.846 92.256,26.258 C92.074,26.16 91.934,25.95 91.934,25.67 C91.934,25.292 92.228,24.984 92.62,24.984 C92.76,24.984 92.886,25.026 92.984,25.082 C93.698,25.558 94.44,25.796 95.112,25.796 C95.84,25.796 96.26,25.488 96.26,24.998 L96.26,24.97 C96.26,24.396 95.476,24.2 94.608,23.934 C93.516,23.626 92.298,23.178 92.298,21.764 L92.298,21.736 C92.298,20.336 93.46,19.482 94.93,19.482 C95.714,19.482 96.54,19.706 97.254,20.084 C97.492,20.21 97.66,20.434 97.66,20.728 C97.66,21.12 97.352,21.414 96.96,21.414 C96.82,21.414 96.736,21.386 96.624,21.33 C96.022,21.022 95.406,20.826 94.888,20.826 C94.23,20.826 93.852,21.134 93.852,21.554 L93.852,21.582 C93.852,22.128 94.65,22.352 95.518,22.632 C96.596,22.968 97.814,23.458 97.814,24.788 L97.814,24.816 C97.814,26.37 96.61,27.14 95.07,27.14 Z M99.55,26.23 L99.55,17.55 C99.55,17.088 99.914,16.71 100.39,16.71 C100.866,16.71 101.244,17.088 101.244,17.55 L101.244,23.01 L104.422,19.888 C104.646,19.664 104.856,19.524 105.15,19.524 C105.598,19.524 105.892,19.888 105.892,20.294 C105.892,20.574 105.752,20.784 105.514,21.008 L103.554,22.814 L105.794,25.74 C105.948,25.95 106.018,26.104 106.018,26.3 C106.018,26.762 105.654,27.07 105.22,27.07 C104.884,27.07 104.688,26.958 104.478,26.692 L102.364,23.878 L101.244,24.942 L101.244,26.23 C101.244,26.706 100.866,27.07 100.39,27.07 C99.928,27.07 99.55,26.706 99.55,26.23 Z M108.944,22.786 L112.738,22.786 C112.626,21.694 111.982,20.84 110.862,20.84 C109.826,20.84 109.098,21.638 108.944,22.786 Z M113.718,26.188 C113.046,26.79 112.206,27.168 111.058,27.168 C108.916,27.168 107.264,25.614 107.264,23.332 L107.264,23.304 C107.264,21.19 108.762,19.454 110.876,19.454 C113.228,19.454 114.39,21.386 114.39,23.094 C114.39,23.57 114.026,23.906 113.592,23.906 L108.958,23.906 C109.14,25.11 109.994,25.782 111.086,25.782 C111.8,25.782 112.36,25.53 112.836,25.138 C112.962,25.04 113.074,24.984 113.27,24.984 C113.648,24.984 113.942,25.278 113.942,25.67 C113.942,25.88 113.844,26.062 113.718,26.188 Z M118.604,27.126 C117.358,27.126 116.476,26.58 116.476,24.956 L116.476,21.064 L116.196,21.064 C115.79,21.064 115.468,20.742 115.468,20.336 C115.468,19.93 115.79,19.608 116.196,19.608 L116.476,19.608 L116.476,18.348 C116.476,17.886 116.854,17.508 117.33,17.508 C117.792,17.508 118.17,17.886 118.17,18.348 L118.17,19.608 L119.5,19.608 C119.906,19.608 120.242,19.93 120.242,20.336 C120.242,20.742 119.906,21.064 119.5,21.064 L118.17,21.064 L118.17,24.69 C118.17,25.348 118.506,25.614 119.08,25.614 C119.276,25.614 119.444,25.572 119.5,25.572 C119.878,25.572 120.214,25.88 120.214,26.272 C120.214,26.58 120.004,26.832 119.766,26.93 C119.402,27.056 119.052,27.126 118.604,27.126 Z" id="path-2"></path>
        <filter x="-3.5%" y="-23.9%" width="107.0%" height="166.9%" filterUnits="objectBoundingBox" id="filter-3">
            <feOffset dx="0" dy="1" in="SourceAlpha" result="shadowOffsetOuter1"></feOffset>
            <feGaussianBlur stdDeviation="1" in="shadowOffsetOuter1" result="shadowBlurOuter1"></feGaussianBlur>
            <feColorMatrix values="0 0 0 0 0   0 0 0 0 0   0 0 0 0 0  0 0 0 0.36 0" type="matrix" in="shadowBlurOuter1"></feColorMatrix>
        </filter>
        <path d="M17.767,22.13 C16.571,22.13 15.362,21.766 14.348,21.038 C14.127,20.882 13.971,20.596 13.971,20.284 C13.971,19.764 14.387,19.361 14.907,19.361 C15.167,19.361 15.349,19.452 15.479,19.543 C16.168,20.05 16.922,20.362 17.806,20.362 C18.625,20.362 19.119,20.037 19.119,19.504 L19.119,19.478 C19.119,18.971 18.807,18.711 17.286,18.321 C15.453,17.853 14.27,17.346 14.27,15.539 L14.27,15.513 C14.27,13.862 15.596,12.77 17.455,12.77 C18.56,12.77 19.522,13.056 20.341,13.576 C20.562,13.706 20.783,13.979 20.783,14.369 C20.783,14.889 20.367,15.292 19.847,15.292 C19.652,15.292 19.496,15.24 19.34,15.149 C18.677,14.759 18.053,14.538 17.429,14.538 C16.662,14.538 16.259,14.889 16.259,15.331 L16.259,15.357 C16.259,15.955 16.649,16.15 18.222,16.553 C20.068,17.034 21.108,17.697 21.108,19.283 L21.108,19.309 C21.108,21.116 19.73,22.13 17.767,22.13 Z M22.642,21.09 L22.642,15.942 C22.642,15.396 23.084,14.954 23.63,14.954 C24.176,14.954 24.618,15.396 24.618,15.942 L24.618,16.02 C25.073,15.435 25.671,14.902 26.672,14.902 C27.582,14.902 28.271,15.305 28.635,16.007 C29.246,15.292 29.974,14.902 30.923,14.902 C32.392,14.902 33.276,15.786 33.276,17.463 L33.276,21.09 C33.276,21.636 32.834,22.078 32.288,22.078 C31.742,22.078 31.3,21.636 31.3,21.09 L31.3,18.113 C31.3,17.177 30.884,16.696 30.143,16.696 C29.402,16.696 28.947,17.177 28.947,18.113 L28.947,21.09 C28.947,21.636 28.505,22.078 27.959,22.078 C27.413,22.078 26.971,21.636 26.971,21.09 L26.971,18.113 C26.971,17.177 26.555,16.696 25.814,16.696 C25.073,16.696 24.618,17.177 24.618,18.113 L24.618,21.09 C24.618,21.636 24.176,22.078 23.63,22.078 C23.084,22.078 22.642,21.636 22.642,21.09 Z M36.968,22.13 C35.655,22.13 34.576,21.376 34.576,19.998 L34.576,19.972 C34.576,18.451 35.733,17.749 37.384,17.749 C38.086,17.749 38.593,17.866 39.087,18.035 L39.087,17.918 C39.087,17.099 38.58,16.644 37.592,16.644 C37.046,16.644 36.604,16.722 36.227,16.839 C36.11,16.878 36.032,16.891 35.941,16.891 C35.486,16.891 35.122,16.54 35.122,16.085 C35.122,15.734 35.343,15.435 35.655,15.318 C36.279,15.084 36.955,14.954 37.878,14.954 C38.957,14.954 39.737,15.24 40.231,15.734 C40.751,16.254 40.985,17.021 40.985,17.957 L40.985,21.129 C40.985,21.662 40.556,22.078 40.023,22.078 C39.451,22.078 39.074,21.675 39.074,21.259 L39.074,21.246 C38.593,21.779 37.93,22.13 36.968,22.13 Z M37.566,20.765 C38.489,20.765 39.113,20.258 39.113,19.543 L39.113,19.192 C38.775,19.036 38.333,18.932 37.852,18.932 C37.007,18.932 36.487,19.27 36.487,19.894 L36.487,19.92 C36.487,20.453 36.929,20.765 37.566,20.765 Z M42.779,21.09 L42.779,13.42 C42.779,12.874 43.221,12.432 43.767,12.432 C44.313,12.432 44.755,12.874 44.755,13.42 L44.755,21.09 C44.755,21.636 44.313,22.078 43.767,22.078 C43.221,22.078 42.779,21.636 42.779,21.09 Z M46.705,21.09 L46.705,13.42 C46.705,12.874 47.147,12.432 47.693,12.432 C48.239,12.432 48.681,12.874 48.681,13.42 L48.681,21.09 C48.681,21.636 48.239,22.078 47.693,22.078 C47.147,22.078 46.705,21.636 46.705,21.09 Z M54.648,20.999 L54.648,13.901 C54.648,13.342 55.09,12.9 55.649,12.9 L58.873,12.9 C59.913,12.9 60.732,13.186 61.252,13.706 C61.668,14.122 61.876,14.629 61.876,15.253 L61.876,15.279 C61.876,16.306 61.33,16.878 60.68,17.242 C61.733,17.645 62.383,18.256 62.383,19.478 L62.383,19.504 C62.383,21.168 61.031,22 58.977,22 L55.649,22 C55.09,22 54.648,21.558 54.648,20.999 Z M56.598,16.579 L58.444,16.579 C59.328,16.579 59.887,16.293 59.887,15.617 L59.887,15.591 C59.887,14.993 59.419,14.655 58.574,14.655 L56.598,14.655 L56.598,16.579 Z M56.598,20.245 L58.977,20.245 C59.861,20.245 60.394,19.933 60.394,19.257 L60.394,19.231 C60.394,18.62 59.939,18.243 58.912,18.243 L56.598,18.243 L56.598,20.245 Z M70.157,15.942 L70.157,21.09 C70.157,21.636 69.715,22.078 69.169,22.078 C68.623,22.078 68.181,21.636 68.181,21.09 L68.181,21.012 C67.726,21.597 67.141,22.13 66.14,22.13 C64.645,22.13 63.774,21.142 63.774,19.543 L63.774,15.942 C63.774,15.396 64.216,14.954 64.762,14.954 C65.308,14.954 65.75,15.396 65.75,15.942 L65.75,18.919 C65.75,19.855 66.192,20.336 66.946,20.336 C67.7,20.336 68.181,19.855 68.181,18.919 L68.181,15.942 C68.181,15.396 68.623,14.954 69.169,14.954 C69.715,14.954 70.157,15.396 70.157,15.942 Z M74.278,22.117 C73.069,22.117 72.25,21.636 72.25,20.024 L72.25,16.722 L72.185,16.722 C71.717,16.722 71.34,16.345 71.34,15.877 C71.34,15.409 71.717,15.032 72.185,15.032 L72.25,15.032 L72.25,14.161 C72.25,13.615 72.692,13.173 73.238,13.173 C73.784,13.173 74.226,13.615 74.226,14.161 L74.226,15.032 L75.097,15.032 C75.565,15.032 75.942,15.409 75.942,15.877 C75.942,16.345 75.565,16.722 75.097,16.722 L74.226,16.722 L74.226,19.699 C74.226,20.154 74.421,20.375 74.863,20.375 C74.928,20.375 75.058,20.362 75.097,20.362 C75.539,20.362 75.916,20.726 75.916,21.181 C75.916,21.532 75.682,21.818 75.409,21.922 C75.045,22.065 74.707,22.117 74.278,22.117 Z M79.673,22.117 C78.464,22.117 77.645,21.636 77.645,20.024 L77.645,16.722 L77.58,16.722 C77.112,16.722 76.735,16.345 76.735,15.877 C76.735,15.409 77.112,15.032 77.58,15.032 L77.645,15.032 L77.645,14.161 C77.645,13.615 78.087,13.173 78.633,13.173 C79.179,13.173 79.621,13.615 79.621,14.161 L79.621,15.032 L80.492,15.032 C80.96,15.032 81.337,15.409 81.337,15.877 C81.337,16.345 80.96,16.722 80.492,16.722 L79.621,16.722 L79.621,19.699 C79.621,20.154 79.816,20.375 80.258,20.375 C80.323,20.375 80.453,20.362 80.492,20.362 C80.934,20.362 81.311,20.726 81.311,21.181 C81.311,21.532 81.077,21.818 80.804,21.922 C80.44,22.065 80.102,22.117 79.673,22.117 Z M86.134,22.156 C83.976,22.156 82.377,20.557 82.377,18.555 L82.377,18.529 C82.377,16.527 83.989,14.902 86.16,14.902 C88.318,14.902 89.917,16.501 89.917,18.503 L89.917,18.529 C89.917,20.531 88.305,22.156 86.134,22.156 Z M86.16,20.453 C87.291,20.453 87.967,19.582 87.967,18.555 L87.967,18.529 C87.967,17.502 87.226,16.605 86.134,16.605 C85.003,16.605 84.327,17.476 84.327,18.503 L84.327,18.529 C84.327,19.556 85.068,20.453 86.16,20.453 Z M91.347,21.09 L91.347,15.942 C91.347,15.396 91.789,14.954 92.335,14.954 C92.881,14.954 93.323,15.396 93.323,15.942 L93.323,16.02 C93.778,15.435 94.363,14.902 95.364,14.902 C96.859,14.902 97.73,15.89 97.73,17.489 L97.73,21.09 C97.73,21.636 97.288,22.078 96.742,22.078 C96.196,22.078 95.754,21.636 95.754,21.09 L95.754,18.113 C95.754,17.177 95.312,16.696 94.558,16.696 C93.804,16.696 93.323,17.177 93.323,18.113 L93.323,21.09 C93.323,21.636 92.881,22.078 92.335,22.078 C91.789,22.078 91.347,21.636 91.347,21.09 Z" id="path-4"></path>
        <filter x="-4.2%" y="-25.7%" width="108.4%" height="172.0%" filterUnits="objectBoundingBox" id="filter-5">
            <feOffset dx="0" dy="1" in="SourceAlpha" result="shadowOffsetOuter1"></feOffset>
            <feGaussianBlur stdDeviation="1" in="shadowOffsetOuter1" result="shadowBlurOuter1"></feGaussianBlur>
            <feColorMatrix values="0 0 0 0 0   0 0 0 0 0   0 0 0 0 0  0 0 0 0.36 0" type="matrix" in="shadowBlurOuter1"></feColorMatrix>
        </filter>
        <path d="M25.668,30.168 C25.668,30.024 25.716,29.88 25.796,29.72 L29.956,20.44 C30.18,19.944 30.58,19.64 31.14,19.64 L31.236,19.64 C31.796,19.64 32.18,19.944 32.404,20.44 L36.564,29.72 C36.644,29.864 36.676,30.008 36.676,30.136 C36.676,30.664 36.276,31.08 35.748,31.08 C35.284,31.08 34.964,30.808 34.788,30.392 L33.876,28.296 L28.436,28.296 L27.492,30.456 C27.332,30.856 26.996,31.08 26.58,31.08 C26.068,31.08 25.668,30.68 25.668,30.168 Z M29.188,26.552 L33.124,26.552 L31.156,22.024 L29.188,26.552 Z M46.884,20.2 L46.884,30.12 C46.884,30.664 46.452,31.08 45.924,31.08 C45.38,31.08 44.948,30.664 44.948,30.12 L44.948,29.592 C44.324,30.472 43.444,31.176 42.068,31.176 C40.084,31.176 38.148,29.592 38.148,26.792 L38.148,26.76 C38.148,23.96 40.052,22.376 42.068,22.376 C43.46,22.376 44.34,23.064 44.948,23.864 L44.948,20.2 C44.948,19.656 45.38,19.24 45.908,19.24 C46.452,19.24 46.884,19.656 46.884,20.2 Z M42.532,24.056 C41.204,24.056 40.1,25.08 40.1,26.76 L40.1,26.792 C40.1,28.424 41.22,29.496 42.532,29.496 C43.828,29.496 44.98,28.408 44.98,26.792 L44.98,26.76 C44.98,25.128 43.828,24.056 42.532,24.056 Z M57.62,20.2 L57.62,30.12 C57.62,30.664 57.188,31.08 56.66,31.08 C56.116,31.08 55.684,30.664 55.684,30.12 L55.684,29.592 C55.06,30.472 54.18,31.176 52.804,31.176 C50.82,31.176 48.884,29.592 48.884,26.792 L48.884,26.76 C48.884,23.96 50.788,22.376 52.804,22.376 C54.196,22.376 55.076,23.064 55.684,23.864 L55.684,20.2 C55.684,19.656 56.116,19.24 56.644,19.24 C57.188,19.24 57.62,19.656 57.62,20.2 Z M53.268,24.056 C51.94,24.056 50.836,25.08 50.836,26.76 L50.836,26.792 C50.836,28.424 51.956,29.496 53.268,29.496 C54.564,29.496 55.716,28.408 55.716,26.792 L55.716,26.76 C55.716,25.128 54.564,24.056 53.268,24.056 Z M67.684,31.144 C66.26,31.144 65.252,30.52 65.252,28.664 L65.252,24.216 L64.932,24.216 C64.468,24.216 64.1,23.848 64.1,23.384 C64.1,22.92 64.468,22.552 64.932,22.552 L65.252,22.552 L65.252,21.112 C65.252,20.584 65.684,20.152 66.228,20.152 C66.756,20.152 67.188,20.584 67.188,21.112 L67.188,22.552 L68.708,22.552 C69.172,22.552 69.556,22.92 69.556,23.384 C69.556,23.848 69.172,24.216 68.708,24.216 L67.188,24.216 L67.188,28.36 C67.188,29.112 67.572,29.416 68.228,29.416 C68.452,29.416 68.644,29.368 68.708,29.368 C69.14,29.368 69.524,29.72 69.524,30.168 C69.524,30.52 69.284,30.808 69.012,30.92 C68.596,31.064 68.196,31.144 67.684,31.144 Z M75.444,31.192 C72.868,31.192 70.964,29.224 70.964,26.824 L70.964,26.792 C70.964,24.376 72.884,22.376 75.476,22.376 C78.068,22.376 79.972,24.344 79.972,26.76 L79.972,26.792 C79.972,29.192 78.052,31.192 75.444,31.192 Z M75.476,29.496 C77.044,29.496 78.036,28.28 78.036,26.824 L78.036,26.792 C78.036,25.304 76.964,24.072 75.444,24.072 C73.892,24.072 72.9,25.288 72.9,26.76 L72.9,26.792 C72.9,28.264 73.972,29.496 75.476,29.496 Z M86.964,30.008 L86.964,20.792 C86.964,20.232 87.396,19.8 87.956,19.8 L91.988,19.8 C93.268,19.8 94.276,20.152 94.916,20.792 C95.412,21.288 95.668,21.896 95.668,22.648 L95.668,22.68 C95.668,24.024 94.9,24.744 94.068,25.176 C95.38,25.624 96.292,26.376 96.292,27.896 L96.292,27.928 C96.292,29.928 94.644,31 92.148,31 L87.956,31 C87.396,31 86.964,30.568 86.964,30.008 Z M88.9,24.52 L91.588,24.52 C92.852,24.52 93.7,24.024 93.7,23 L93.7,22.968 C93.7,22.088 92.996,21.544 91.732,21.544 L88.9,21.544 L88.9,24.52 Z M88.9,29.256 L92.164,29.256 C93.508,29.256 94.324,28.728 94.324,27.72 L94.324,27.688 C94.324,26.744 93.572,26.184 92.02,26.184 L88.9,26.184 L88.9,29.256 Z M100.724,31.176 C99.14,31.176 97.732,30.264 97.732,28.568 L97.732,28.536 C97.732,26.712 99.156,25.816 101.22,25.816 C102.164,25.816 102.836,25.96 103.492,26.168 L103.492,25.96 C103.492,24.76 102.756,24.12 101.396,24.12 C100.66,24.12 100.052,24.248 99.524,24.456 C99.412,24.488 99.316,24.504 99.22,24.504 C98.772,24.504 98.404,24.152 98.404,23.704 C98.404,23.352 98.644,23.048 98.932,22.936 C99.732,22.632 100.548,22.44 101.652,22.44 C102.916,22.44 103.86,22.776 104.452,23.384 C105.076,23.992 105.364,24.888 105.364,25.992 L105.364,30.152 C105.364,30.68 104.948,31.08 104.42,31.08 C103.86,31.08 103.476,30.696 103.476,30.264 L103.476,29.944 C102.9,30.632 102.02,31.176 100.724,31.176 Z M101.268,29.768 C102.548,29.768 103.524,29.032 103.524,27.96 L103.524,27.384 C103.028,27.192 102.372,27.048 101.604,27.048 C100.356,27.048 99.62,27.576 99.62,28.456 L99.62,28.488 C99.62,29.304 100.34,29.768 101.268,29.768 Z M110.58,31.16 C109.508,31.16 108.34,30.824 107.364,30.152 C107.156,30.04 106.996,29.8 106.996,29.48 C106.996,29.048 107.332,28.696 107.78,28.696 C107.94,28.696 108.084,28.744 108.196,28.808 C109.012,29.352 109.86,29.624 110.628,29.624 C111.46,29.624 111.94,29.272 111.94,28.712 L111.94,28.68 C111.94,28.024 111.044,27.8 110.052,27.496 C108.804,27.144 107.412,26.632 107.412,25.016 L107.412,24.984 C107.412,23.384 108.74,22.408 110.42,22.408 C111.316,22.408 112.26,22.664 113.076,23.096 C113.348,23.24 113.54,23.496 113.54,23.832 C113.54,24.28 113.188,24.616 112.74,24.616 C112.58,24.616 112.484,24.584 112.356,24.52 C111.668,24.168 110.964,23.944 110.372,23.944 C109.62,23.944 109.188,24.296 109.188,24.776 L109.188,24.808 C109.188,25.432 110.1,25.688 111.092,26.008 C112.324,26.392 113.716,26.952 113.716,28.472 L113.716,28.504 C113.716,30.28 112.34,31.16 110.58,31.16 Z M115.7,30.12 L115.7,20.2 C115.7,19.672 116.116,19.24 116.66,19.24 C117.204,19.24 117.636,19.672 117.636,20.2 L117.636,26.44 L121.268,22.872 C121.524,22.616 121.764,22.456 122.1,22.456 C122.612,22.456 122.948,22.872 122.948,23.336 C122.948,23.656 122.788,23.896 122.516,24.152 L120.276,26.216 L122.836,29.56 C123.012,29.8 123.092,29.976 123.092,30.2 C123.092,30.728 122.676,31.08 122.18,31.08 C121.796,31.08 121.572,30.952 121.332,30.648 L118.916,27.432 L117.636,28.648 L117.636,30.12 C117.636,30.664 117.204,31.08 116.66,31.08 C116.132,31.08 115.7,30.664 115.7,30.12 Z M126.436,26.184 L130.772,26.184 C130.644,24.936 129.908,23.96 128.628,23.96 C127.444,23.96 126.612,24.872 126.436,26.184 Z M131.892,30.072 C131.124,30.76 130.164,31.192 128.852,31.192 C126.404,31.192 124.516,29.416 124.516,26.808 L124.516,26.776 C124.516,24.36 126.228,22.376 128.644,22.376 C131.332,22.376 132.66,24.584 132.66,26.536 C132.66,27.08 132.244,27.464 131.748,27.464 L126.452,27.464 C126.66,28.84 127.636,29.608 128.884,29.608 C129.7,29.608 130.34,29.32 130.884,28.872 C131.028,28.76 131.156,28.696 131.38,28.696 C131.812,28.696 132.148,29.032 132.148,29.48 C132.148,29.72 132.036,29.928 131.892,30.072 Z M137.476,31.144 C136.052,31.144 135.044,30.52 135.044,28.664 L135.044,24.216 L134.724,24.216 C134.26,24.216 133.892,23.848 133.892,23.384 C133.892,22.92 134.26,22.552 134.724,22.552 L135.044,22.552 L135.044,21.112 C135.044,20.584 135.476,20.152 136.02,20.152 C136.548,20.152 136.98,20.584 136.98,21.112 L136.98,22.552 L138.5,22.552 C138.964,22.552 139.348,22.92 139.348,23.384 C139.348,23.848 138.964,24.216 138.5,24.216 L136.98,24.216 L136.98,28.36 C136.98,29.112 137.364,29.416 138.02,29.416 C138.244,29.416 138.436,29.368 138.5,29.368 C138.932,29.368 139.316,29.72 139.316,30.168 C139.316,30.52 139.076,30.808 138.804,30.92 C138.388,31.064 137.988,31.144 137.476,31.144 Z" id="path-6"></path>
        <filter x="-3.1%" y="-20.9%" width="106.2%" height="158.6%" filterUnits="objectBoundingBox" id="filter-7">
            <feOffset dx="0" dy="1" in="SourceAlpha" result="shadowOffsetOuter1"></feOffset>
            <feGaussianBlur stdDeviation="1" in="shadowOffsetOuter1" result="shadowBlurOuter1"></feGaussianBlur>
            <feColorMatrix values="0 0 0 0 0   0 0 0 0 0   0 0 0 0 0  0 0 0 0.36 0" type="matrix" in="shadowBlurOuter1"></feColorMatrix>
        </filter>
        <linearGradient x1="50%" y1="100%" x2="50%" y2="3.061617e-15%" id="linearGradient-8">
            <stop stop-color="#F4F4F4" offset="0%"></stop>
            <stop stop-color="#FFFFFF" offset="100%"></stop>
        </linearGradient>
        <rect id="path-9" x="0" y="0" width="163" height="50" rx="3"></rect>
        <rect id="path-10" x="0" y="0" width="140" height="43" rx="3"></rect>
        <rect id="path-11" x="0" y="0" width="111" height="34" rx="2"></rect>
        <linearGradient x1="50%" y1="100%" x2="50%" y2="3.061617e-15%" id="linearGradient-12">
            <stop stop-color="#E87202" offset="0%"></stop>
            <stop stop-color="#F67901" offset="100%"></stop>
        </linearGradient>
        <path d="M20.772,26.272 C20.772,26.146 20.814,26.02 20.884,25.88 L24.524,17.76 C24.72,17.326 25.07,17.06 25.56,17.06 L25.644,17.06 C26.134,17.06 26.47,17.326 26.666,17.76 L30.306,25.88 C30.376,26.006 30.404,26.132 30.404,26.244 C30.404,26.706 30.054,27.07 29.592,27.07 C29.186,27.07 28.906,26.832 28.752,26.468 L27.954,24.634 L23.194,24.634 L22.368,26.524 C22.228,26.874 21.934,27.07 21.57,27.07 C21.122,27.07 20.772,26.72 20.772,26.272 Z M23.852,23.108 L27.296,23.108 L25.574,19.146 L23.852,23.108 Z M39.336,17.55 L39.336,26.23 C39.336,26.706 38.958,27.07 38.496,27.07 C38.02,27.07 37.642,26.706 37.642,26.23 L37.642,25.768 C37.096,26.538 36.326,27.154 35.122,27.154 C33.386,27.154 31.692,25.768 31.692,23.318 L31.692,23.29 C31.692,20.84 33.358,19.454 35.122,19.454 C36.34,19.454 37.11,20.056 37.642,20.756 L37.642,17.55 C37.642,17.074 38.02,16.71 38.482,16.71 C38.958,16.71 39.336,17.074 39.336,17.55 Z M35.528,20.924 C34.366,20.924 33.4,21.82 33.4,23.29 L33.4,23.318 C33.4,24.746 34.38,25.684 35.528,25.684 C36.662,25.684 37.67,24.732 37.67,23.318 L37.67,23.29 C37.67,21.862 36.662,20.924 35.528,20.924 Z M48.73,17.55 L48.73,26.23 C48.73,26.706 48.352,27.07 47.89,27.07 C47.414,27.07 47.036,26.706 47.036,26.23 L47.036,25.768 C46.49,26.538 45.72,27.154 44.516,27.154 C42.78,27.154 41.086,25.768 41.086,23.318 L41.086,23.29 C41.086,20.84 42.752,19.454 44.516,19.454 C45.734,19.454 46.504,20.056 47.036,20.756 L47.036,17.55 C47.036,17.074 47.414,16.71 47.876,16.71 C48.352,16.71 48.73,17.074 48.73,17.55 Z M44.922,20.924 C43.76,20.924 42.794,21.82 42.794,23.29 L42.794,23.318 C42.794,24.746 43.774,25.684 44.922,25.684 C46.056,25.684 47.064,24.732 47.064,23.318 L47.064,23.29 C47.064,21.862 46.056,20.924 44.922,20.924 Z M57.536,27.126 C56.29,27.126 55.408,26.58 55.408,24.956 L55.408,21.064 L55.128,21.064 C54.722,21.064 54.4,20.742 54.4,20.336 C54.4,19.93 54.722,19.608 55.128,19.608 L55.408,19.608 L55.408,18.348 C55.408,17.886 55.786,17.508 56.262,17.508 C56.724,17.508 57.102,17.886 57.102,18.348 L57.102,19.608 L58.432,19.608 C58.838,19.608 59.174,19.93 59.174,20.336 C59.174,20.742 58.838,21.064 58.432,21.064 L57.102,21.064 L57.102,24.69 C57.102,25.348 57.438,25.614 58.012,25.614 C58.208,25.614 58.376,25.572 58.432,25.572 C58.81,25.572 59.146,25.88 59.146,26.272 C59.146,26.58 58.936,26.832 58.698,26.93 C58.334,27.056 57.984,27.126 57.536,27.126 Z M64.326,27.168 C62.072,27.168 60.406,25.446 60.406,23.346 L60.406,23.318 C60.406,21.204 62.086,19.454 64.354,19.454 C66.622,19.454 68.288,21.176 68.288,23.29 L68.288,23.318 C68.288,25.418 66.608,27.168 64.326,27.168 Z M64.354,25.684 C65.726,25.684 66.594,24.62 66.594,23.346 L66.594,23.318 C66.594,22.016 65.656,20.938 64.326,20.938 C62.968,20.938 62.1,22.002 62.1,23.29 L62.1,23.318 C62.1,24.606 63.038,25.684 64.354,25.684 Z M74.406,26.132 L74.406,18.068 C74.406,17.578 74.784,17.2 75.274,17.2 L78.802,17.2 C79.922,17.2 80.804,17.508 81.364,18.068 C81.798,18.502 82.022,19.034 82.022,19.692 L82.022,19.72 C82.022,20.896 81.35,21.526 80.622,21.904 C81.77,22.296 82.568,22.954 82.568,24.284 L82.568,24.312 C82.568,26.062 81.126,27 78.942,27 L75.274,27 C74.784,27 74.406,26.622 74.406,26.132 Z M76.1,21.33 L78.452,21.33 C79.558,21.33 80.3,20.896 80.3,20 L80.3,19.972 C80.3,19.202 79.684,18.726 78.578,18.726 L76.1,18.726 L76.1,21.33 Z M76.1,25.474 L78.956,25.474 C80.132,25.474 80.846,25.012 80.846,24.13 L80.846,24.102 C80.846,23.276 80.188,22.786 78.83,22.786 L76.1,22.786 L76.1,25.474 Z M86.446,27.154 C85.06,27.154 83.828,26.356 83.828,24.872 L83.828,24.844 C83.828,23.248 85.074,22.464 86.88,22.464 C87.706,22.464 88.294,22.59 88.868,22.772 L88.868,22.59 C88.868,21.54 88.224,20.98 87.034,20.98 C86.39,20.98 85.858,21.092 85.396,21.274 C85.298,21.302 85.214,21.316 85.13,21.316 C84.738,21.316 84.416,21.008 84.416,20.616 C84.416,20.308 84.626,20.042 84.878,19.944 C85.578,19.678 86.292,19.51 87.258,19.51 C88.364,19.51 89.19,19.804 89.708,20.336 C90.254,20.868 90.506,21.652 90.506,22.618 L90.506,26.258 C90.506,26.72 90.142,27.07 89.68,27.07 C89.19,27.07 88.854,26.734 88.854,26.356 L88.854,26.076 C88.35,26.678 87.58,27.154 86.446,27.154 Z M86.922,25.922 C88.042,25.922 88.896,25.278 88.896,24.34 L88.896,23.836 C88.462,23.668 87.888,23.542 87.216,23.542 C86.124,23.542 85.48,24.004 85.48,24.774 L85.48,24.802 C85.48,25.516 86.11,25.922 86.922,25.922 Z M95.07,27.14 C94.132,27.14 93.11,26.846 92.256,26.258 C92.074,26.16 91.934,25.95 91.934,25.67 C91.934,25.292 92.228,24.984 92.62,24.984 C92.76,24.984 92.886,25.026 92.984,25.082 C93.698,25.558 94.44,25.796 95.112,25.796 C95.84,25.796 96.26,25.488 96.26,24.998 L96.26,24.97 C96.26,24.396 95.476,24.2 94.608,23.934 C93.516,23.626 92.298,23.178 92.298,21.764 L92.298,21.736 C92.298,20.336 93.46,19.482 94.93,19.482 C95.714,19.482 96.54,19.706 97.254,20.084 C97.492,20.21 97.66,20.434 97.66,20.728 C97.66,21.12 97.352,21.414 96.96,21.414 C96.82,21.414 96.736,21.386 96.624,21.33 C96.022,21.022 95.406,20.826 94.888,20.826 C94.23,20.826 93.852,21.134 93.852,21.554 L93.852,21.582 C93.852,22.128 94.65,22.352 95.518,22.632 C96.596,22.968 97.814,23.458 97.814,24.788 L97.814,24.816 C97.814,26.37 96.61,27.14 95.07,27.14 Z M99.55,26.23 L99.55,17.55 C99.55,17.088 99.914,16.71 100.39,16.71 C100.866,16.71 101.244,17.088 101.244,17.55 L101.244,23.01 L104.422,19.888 C104.646,19.664 104.856,19.524 105.15,19.524 C105.598,19.524 105.892,19.888 105.892,20.294 C105.892,20.574 105.752,20.784 105.514,21.008 L103.554,22.814 L105.794,25.74 C105.948,25.95 106.018,26.104 106.018,26.3 C106.018,26.762 105.654,27.07 105.22,27.07 C104.884,27.07 104.688,26.958 104.478,26.692 L102.364,23.878 L101.244,24.942 L101.244,26.23 C101.244,26.706 100.866,27.07 100.39,27.07 C99.928,27.07 99.55,26.706 99.55,26.23 Z M108.944,22.786 L112.738,22.786 C112.626,21.694 111.982,20.84 110.862,20.84 C109.826,20.84 109.098,21.638 108.944,22.786 Z M113.718,26.188 C113.046,26.79 112.206,27.168 111.058,27.168 C108.916,27.168 107.264,25.614 107.264,23.332 L107.264,23.304 C107.264,21.19 108.762,19.454 110.876,19.454 C113.228,19.454 114.39,21.386 114.39,23.094 C114.39,23.57 114.026,23.906 113.592,23.906 L108.958,23.906 C109.14,25.11 109.994,25.782 111.086,25.782 C111.8,25.782 112.36,25.53 112.836,25.138 C112.962,25.04 113.074,24.984 113.27,24.984 C113.648,24.984 113.942,25.278 113.942,25.67 C113.942,25.88 113.844,26.062 113.718,26.188 Z M118.604,27.126 C117.358,27.126 116.476,26.58 116.476,24.956 L116.476,21.064 L116.196,21.064 C115.79,21.064 115.468,20.742 115.468,20.336 C115.468,19.93 115.79,19.608 116.196,19.608 L116.476,19.608 L116.476,18.348 C116.476,17.886 116.854,17.508 117.33,17.508 C117.792,17.508 118.17,17.886 118.17,18.348 L118.17,19.608 L119.5,19.608 C119.906,19.608 120.242,19.93 120.242,20.336 C120.242,20.742 119.906,21.064 119.5,21.064 L118.17,21.064 L118.17,24.69 C118.17,25.348 118.506,25.614 119.08,25.614 C119.276,25.614 119.444,25.572 119.5,25.572 C119.878,25.572 120.214,25.88 120.214,26.272 C120.214,26.58 120.004,26.832 119.766,26.93 C119.402,27.056 119.052,27.126 118.604,27.126 Z" id="path-13"></path>
        <filter x="-3.5%" y="-23.9%" width="107.0%" height="166.9%" filterUnits="objectBoundingBox" id="filter-14">
            <feOffset dx="0" dy="1" in="SourceAlpha" result="shadowOffsetOuter1"></feOffset>
            <feGaussianBlur stdDeviation="1" in="shadowOffsetOuter1" result="shadowBlurOuter1"></feGaussianBlur>
            <feColorMatrix values="0 0 0 0 0   0 0 0 0 0   0 0 0 0 0  0 0 0 0.36 0" type="matrix" in="shadowBlurOuter1"></feColorMatrix>
        </filter>
        <path d="M17.767,22.13 C16.571,22.13 15.362,21.766 14.348,21.038 C14.127,20.882 13.971,20.596 13.971,20.284 C13.971,19.764 14.387,19.361 14.907,19.361 C15.167,19.361 15.349,19.452 15.479,19.543 C16.168,20.05 16.922,20.362 17.806,20.362 C18.625,20.362 19.119,20.037 19.119,19.504 L19.119,19.478 C19.119,18.971 18.807,18.711 17.286,18.321 C15.453,17.853 14.27,17.346 14.27,15.539 L14.27,15.513 C14.27,13.862 15.596,12.77 17.455,12.77 C18.56,12.77 19.522,13.056 20.341,13.576 C20.562,13.706 20.783,13.979 20.783,14.369 C20.783,14.889 20.367,15.292 19.847,15.292 C19.652,15.292 19.496,15.24 19.34,15.149 C18.677,14.759 18.053,14.538 17.429,14.538 C16.662,14.538 16.259,14.889 16.259,15.331 L16.259,15.357 C16.259,15.955 16.649,16.15 18.222,16.553 C20.068,17.034 21.108,17.697 21.108,19.283 L21.108,19.309 C21.108,21.116 19.73,22.13 17.767,22.13 Z M22.642,21.09 L22.642,15.942 C22.642,15.396 23.084,14.954 23.63,14.954 C24.176,14.954 24.618,15.396 24.618,15.942 L24.618,16.02 C25.073,15.435 25.671,14.902 26.672,14.902 C27.582,14.902 28.271,15.305 28.635,16.007 C29.246,15.292 29.974,14.902 30.923,14.902 C32.392,14.902 33.276,15.786 33.276,17.463 L33.276,21.09 C33.276,21.636 32.834,22.078 32.288,22.078 C31.742,22.078 31.3,21.636 31.3,21.09 L31.3,18.113 C31.3,17.177 30.884,16.696 30.143,16.696 C29.402,16.696 28.947,17.177 28.947,18.113 L28.947,21.09 C28.947,21.636 28.505,22.078 27.959,22.078 C27.413,22.078 26.971,21.636 26.971,21.09 L26.971,18.113 C26.971,17.177 26.555,16.696 25.814,16.696 C25.073,16.696 24.618,17.177 24.618,18.113 L24.618,21.09 C24.618,21.636 24.176,22.078 23.63,22.078 C23.084,22.078 22.642,21.636 22.642,21.09 Z M36.968,22.13 C35.655,22.13 34.576,21.376 34.576,19.998 L34.576,19.972 C34.576,18.451 35.733,17.749 37.384,17.749 C38.086,17.749 38.593,17.866 39.087,18.035 L39.087,17.918 C39.087,17.099 38.58,16.644 37.592,16.644 C37.046,16.644 36.604,16.722 36.227,16.839 C36.11,16.878 36.032,16.891 35.941,16.891 C35.486,16.891 35.122,16.54 35.122,16.085 C35.122,15.734 35.343,15.435 35.655,15.318 C36.279,15.084 36.955,14.954 37.878,14.954 C38.957,14.954 39.737,15.24 40.231,15.734 C40.751,16.254 40.985,17.021 40.985,17.957 L40.985,21.129 C40.985,21.662 40.556,22.078 40.023,22.078 C39.451,22.078 39.074,21.675 39.074,21.259 L39.074,21.246 C38.593,21.779 37.93,22.13 36.968,22.13 Z M37.566,20.765 C38.489,20.765 39.113,20.258 39.113,19.543 L39.113,19.192 C38.775,19.036 38.333,18.932 37.852,18.932 C37.007,18.932 36.487,19.27 36.487,19.894 L36.487,19.92 C36.487,20.453 36.929,20.765 37.566,20.765 Z M42.779,21.09 L42.779,13.42 C42.779,12.874 43.221,12.432 43.767,12.432 C44.313,12.432 44.755,12.874 44.755,13.42 L44.755,21.09 C44.755,21.636 44.313,22.078 43.767,22.078 C43.221,22.078 42.779,21.636 42.779,21.09 Z M46.705,21.09 L46.705,13.42 C46.705,12.874 47.147,12.432 47.693,12.432 C48.239,12.432 48.681,12.874 48.681,13.42 L48.681,21.09 C48.681,21.636 48.239,22.078 47.693,22.078 C47.147,22.078 46.705,21.636 46.705,21.09 Z M54.648,20.999 L54.648,13.901 C54.648,13.342 55.09,12.9 55.649,12.9 L58.873,12.9 C59.913,12.9 60.732,13.186 61.252,13.706 C61.668,14.122 61.876,14.629 61.876,15.253 L61.876,15.279 C61.876,16.306 61.33,16.878 60.68,17.242 C61.733,17.645 62.383,18.256 62.383,19.478 L62.383,19.504 C62.383,21.168 61.031,22 58.977,22 L55.649,22 C55.09,22 54.648,21.558 54.648,20.999 Z M56.598,16.579 L58.444,16.579 C59.328,16.579 59.887,16.293 59.887,15.617 L59.887,15.591 C59.887,14.993 59.419,14.655 58.574,14.655 L56.598,14.655 L56.598,16.579 Z M56.598,20.245 L58.977,20.245 C59.861,20.245 60.394,19.933 60.394,19.257 L60.394,19.231 C60.394,18.62 59.939,18.243 58.912,18.243 L56.598,18.243 L56.598,20.245 Z M70.157,15.942 L70.157,21.09 C70.157,21.636 69.715,22.078 69.169,22.078 C68.623,22.078 68.181,21.636 68.181,21.09 L68.181,21.012 C67.726,21.597 67.141,22.13 66.14,22.13 C64.645,22.13 63.774,21.142 63.774,19.543 L63.774,15.942 C63.774,15.396 64.216,14.954 64.762,14.954 C65.308,14.954 65.75,15.396 65.75,15.942 L65.75,18.919 C65.75,19.855 66.192,20.336 66.946,20.336 C67.7,20.336 68.181,19.855 68.181,18.919 L68.181,15.942 C68.181,15.396 68.623,14.954 69.169,14.954 C69.715,14.954 70.157,15.396 70.157,15.942 Z M74.278,22.117 C73.069,22.117 72.25,21.636 72.25,20.024 L72.25,16.722 L72.185,16.722 C71.717,16.722 71.34,16.345 71.34,15.877 C71.34,15.409 71.717,15.032 72.185,15.032 L72.25,15.032 L72.25,14.161 C72.25,13.615 72.692,13.173 73.238,13.173 C73.784,13.173 74.226,13.615 74.226,14.161 L74.226,15.032 L75.097,15.032 C75.565,15.032 75.942,15.409 75.942,15.877 C75.942,16.345 75.565,16.722 75.097,16.722 L74.226,16.722 L74.226,19.699 C74.226,20.154 74.421,20.375 74.863,20.375 C74.928,20.375 75.058,20.362 75.097,20.362 C75.539,20.362 75.916,20.726 75.916,21.181 C75.916,21.532 75.682,21.818 75.409,21.922 C75.045,22.065 74.707,22.117 74.278,22.117 Z M79.673,22.117 C78.464,22.117 77.645,21.636 77.645,20.024 L77.645,16.722 L77.58,16.722 C77.112,16.722 76.735,16.345 76.735,15.877 C76.735,15.409 77.112,15.032 77.58,15.032 L77.645,15.032 L77.645,14.161 C77.645,13.615 78.087,13.173 78.633,13.173 C79.179,13.173 79.621,13.615 79.621,14.161 L79.621,15.032 L80.492,15.032 C80.96,15.032 81.337,15.409 81.337,15.877 C81.337,16.345 80.96,16.722 80.492,16.722 L79.621,16.722 L79.621,19.699 C79.621,20.154 79.816,20.375 80.258,20.375 C80.323,20.375 80.453,20.362 80.492,20.362 C80.934,20.362 81.311,20.726 81.311,21.181 C81.311,21.532 81.077,21.818 80.804,21.922 C80.44,22.065 80.102,22.117 79.673,22.117 Z M86.134,22.156 C83.976,22.156 82.377,20.557 82.377,18.555 L82.377,18.529 C82.377,16.527 83.989,14.902 86.16,14.902 C88.318,14.902 89.917,16.501 89.917,18.503 L89.917,18.529 C89.917,20.531 88.305,22.156 86.134,22.156 Z M86.16,20.453 C87.291,20.453 87.967,19.582 87.967,18.555 L87.967,18.529 C87.967,17.502 87.226,16.605 86.134,16.605 C85.003,16.605 84.327,17.476 84.327,18.503 L84.327,18.529 C84.327,19.556 85.068,20.453 86.16,20.453 Z M91.347,21.09 L91.347,15.942 C91.347,15.396 91.789,14.954 92.335,14.954 C92.881,14.954 93.323,15.396 93.323,15.942 L93.323,16.02 C93.778,15.435 94.363,14.902 95.364,14.902 C96.859,14.902 97.73,15.89 97.73,17.489 L97.73,21.09 C97.73,21.636 97.288,22.078 96.742,22.078 C96.196,22.078 95.754,21.636 95.754,21.09 L95.754,18.113 C95.754,17.177 95.312,16.696 94.558,16.696 C93.804,16.696 93.323,17.177 93.323,18.113 L93.323,21.09 C93.323,21.636 92.881,22.078 92.335,22.078 C91.789,22.078 91.347,21.636 91.347,21.09 Z" id="path-15"></path>
        <filter x="-4.2%" y="-25.7%" width="108.4%" height="172.0%" filterUnits="objectBoundingBox" id="filter-16">
            <feOffset dx="0" dy="1" in="SourceAlpha" result="shadowOffsetOuter1"></feOffset>
            <feGaussianBlur stdDeviation="1" in="shadowOffsetOuter1" result="shadowBlurOuter1"></feGaussianBlur>
            <feColorMatrix values="0 0 0 0 0   0 0 0 0 0   0 0 0 0 0  0 0 0 0.36 0" type="matrix" in="shadowBlurOuter1"></feColorMatrix>
        </filter>
        <path d="M25.668,30.168 C25.668,30.024 25.716,29.88 25.796,29.72 L29.956,20.44 C30.18,19.944 30.58,19.64 31.14,19.64 L31.236,19.64 C31.796,19.64 32.18,19.944 32.404,20.44 L36.564,29.72 C36.644,29.864 36.676,30.008 36.676,30.136 C36.676,30.664 36.276,31.08 35.748,31.08 C35.284,31.08 34.964,30.808 34.788,30.392 L33.876,28.296 L28.436,28.296 L27.492,30.456 C27.332,30.856 26.996,31.08 26.58,31.08 C26.068,31.08 25.668,30.68 25.668,30.168 Z M29.188,26.552 L33.124,26.552 L31.156,22.024 L29.188,26.552 Z M46.884,20.2 L46.884,30.12 C46.884,30.664 46.452,31.08 45.924,31.08 C45.38,31.08 44.948,30.664 44.948,30.12 L44.948,29.592 C44.324,30.472 43.444,31.176 42.068,31.176 C40.084,31.176 38.148,29.592 38.148,26.792 L38.148,26.76 C38.148,23.96 40.052,22.376 42.068,22.376 C43.46,22.376 44.34,23.064 44.948,23.864 L44.948,20.2 C44.948,19.656 45.38,19.24 45.908,19.24 C46.452,19.24 46.884,19.656 46.884,20.2 Z M42.532,24.056 C41.204,24.056 40.1,25.08 40.1,26.76 L40.1,26.792 C40.1,28.424 41.22,29.496 42.532,29.496 C43.828,29.496 44.98,28.408 44.98,26.792 L44.98,26.76 C44.98,25.128 43.828,24.056 42.532,24.056 Z M57.62,20.2 L57.62,30.12 C57.62,30.664 57.188,31.08 56.66,31.08 C56.116,31.08 55.684,30.664 55.684,30.12 L55.684,29.592 C55.06,30.472 54.18,31.176 52.804,31.176 C50.82,31.176 48.884,29.592 48.884,26.792 L48.884,26.76 C48.884,23.96 50.788,22.376 52.804,22.376 C54.196,22.376 55.076,23.064 55.684,23.864 L55.684,20.2 C55.684,19.656 56.116,19.24 56.644,19.24 C57.188,19.24 57.62,19.656 57.62,20.2 Z M53.268,24.056 C51.94,24.056 50.836,25.08 50.836,26.76 L50.836,26.792 C50.836,28.424 51.956,29.496 53.268,29.496 C54.564,29.496 55.716,28.408 55.716,26.792 L55.716,26.76 C55.716,25.128 54.564,24.056 53.268,24.056 Z M67.684,31.144 C66.26,31.144 65.252,30.52 65.252,28.664 L65.252,24.216 L64.932,24.216 C64.468,24.216 64.1,23.848 64.1,23.384 C64.1,22.92 64.468,22.552 64.932,22.552 L65.252,22.552 L65.252,21.112 C65.252,20.584 65.684,20.152 66.228,20.152 C66.756,20.152 67.188,20.584 67.188,21.112 L67.188,22.552 L68.708,22.552 C69.172,22.552 69.556,22.92 69.556,23.384 C69.556,23.848 69.172,24.216 68.708,24.216 L67.188,24.216 L67.188,28.36 C67.188,29.112 67.572,29.416 68.228,29.416 C68.452,29.416 68.644,29.368 68.708,29.368 C69.14,29.368 69.524,29.72 69.524,30.168 C69.524,30.52 69.284,30.808 69.012,30.92 C68.596,31.064 68.196,31.144 67.684,31.144 Z M75.444,31.192 C72.868,31.192 70.964,29.224 70.964,26.824 L70.964,26.792 C70.964,24.376 72.884,22.376 75.476,22.376 C78.068,22.376 79.972,24.344 79.972,26.76 L79.972,26.792 C79.972,29.192 78.052,31.192 75.444,31.192 Z M75.476,29.496 C77.044,29.496 78.036,28.28 78.036,26.824 L78.036,26.792 C78.036,25.304 76.964,24.072 75.444,24.072 C73.892,24.072 72.9,25.288 72.9,26.76 L72.9,26.792 C72.9,28.264 73.972,29.496 75.476,29.496 Z M86.964,30.008 L86.964,20.792 C86.964,20.232 87.396,19.8 87.956,19.8 L91.988,19.8 C93.268,19.8 94.276,20.152 94.916,20.792 C95.412,21.288 95.668,21.896 95.668,22.648 L95.668,22.68 C95.668,24.024 94.9,24.744 94.068,25.176 C95.38,25.624 96.292,26.376 96.292,27.896 L96.292,27.928 C96.292,29.928 94.644,31 92.148,31 L87.956,31 C87.396,31 86.964,30.568 86.964,30.008 Z M88.9,24.52 L91.588,24.52 C92.852,24.52 93.7,24.024 93.7,23 L93.7,22.968 C93.7,22.088 92.996,21.544 91.732,21.544 L88.9,21.544 L88.9,24.52 Z M88.9,29.256 L92.164,29.256 C93.508,29.256 94.324,28.728 94.324,27.72 L94.324,27.688 C94.324,26.744 93.572,26.184 92.02,26.184 L88.9,26.184 L88.9,29.256 Z M100.724,31.176 C99.14,31.176 97.732,30.264 97.732,28.568 L97.732,28.536 C97.732,26.712 99.156,25.816 101.22,25.816 C102.164,25.816 102.836,25.96 103.492,26.168 L103.492,25.96 C103.492,24.76 102.756,24.12 101.396,24.12 C100.66,24.12 100.052,24.248 99.524,24.456 C99.412,24.488 99.316,24.504 99.22,24.504 C98.772,24.504 98.404,24.152 98.404,23.704 C98.404,23.352 98.644,23.048 98.932,22.936 C99.732,22.632 100.548,22.44 101.652,22.44 C102.916,22.44 103.86,22.776 104.452,23.384 C105.076,23.992 105.364,24.888 105.364,25.992 L105.364,30.152 C105.364,30.68 104.948,31.08 104.42,31.08 C103.86,31.08 103.476,30.696 103.476,30.264 L103.476,29.944 C102.9,30.632 102.02,31.176 100.724,31.176 Z M101.268,29.768 C102.548,29.768 103.524,29.032 103.524,27.96 L103.524,27.384 C103.028,27.192 102.372,27.048 101.604,27.048 C100.356,27.048 99.62,27.576 99.62,28.456 L99.62,28.488 C99.62,29.304 100.34,29.768 101.268,29.768 Z M110.58,31.16 C109.508,31.16 108.34,30.824 107.364,30.152 C107.156,30.04 106.996,29.8 106.996,29.48 C106.996,29.048 107.332,28.696 107.78,28.696 C107.94,28.696 108.084,28.744 108.196,28.808 C109.012,29.352 109.86,29.624 110.628,29.624 C111.46,29.624 111.94,29.272 111.94,28.712 L111.94,28.68 C111.94,28.024 111.044,27.8 110.052,27.496 C108.804,27.144 107.412,26.632 107.412,25.016 L107.412,24.984 C107.412,23.384 108.74,22.408 110.42,22.408 C111.316,22.408 112.26,22.664 113.076,23.096 C113.348,23.24 113.54,23.496 113.54,23.832 C113.54,24.28 113.188,24.616 112.74,24.616 C112.58,24.616 112.484,24.584 112.356,24.52 C111.668,24.168 110.964,23.944 110.372,23.944 C109.62,23.944 109.188,24.296 109.188,24.776 L109.188,24.808 C109.188,25.432 110.1,25.688 111.092,26.008 C112.324,26.392 113.716,26.952 113.716,28.472 L113.716,28.504 C113.716,30.28 112.34,31.16 110.58,31.16 Z M115.7,30.12 L115.7,20.2 C115.7,19.672 116.116,19.24 116.66,19.24 C117.204,19.24 117.636,19.672 117.636,20.2 L117.636,26.44 L121.268,22.872 C121.524,22.616 121.764,22.456 122.1,22.456 C122.612,22.456 122.948,22.872 122.948,23.336 C122.948,23.656 122.788,23.896 122.516,24.152 L120.276,26.216 L122.836,29.56 C123.012,29.8 123.092,29.976 123.092,30.2 C123.092,30.728 122.676,31.08 122.18,31.08 C121.796,31.08 121.572,30.952 121.332,30.648 L118.916,27.432 L117.636,28.648 L117.636,30.12 C117.636,30.664 117.204,31.08 116.66,31.08 C116.132,31.08 115.7,30.664 115.7,30.12 Z M126.436,26.184 L130.772,26.184 C130.644,24.936 129.908,23.96 128.628,23.96 C127.444,23.96 126.612,24.872 126.436,26.184 Z M131.892,30.072 C131.124,30.76 130.164,31.192 128.852,31.192 C126.404,31.192 124.516,29.416 124.516,26.808 L124.516,26.776 C124.516,24.36 126.228,22.376 128.644,22.376 C131.332,22.376 132.66,24.584 132.66,26.536 C132.66,27.08 132.244,27.464 131.748,27.464 L126.452,27.464 C126.66,28.84 127.636,29.608 128.884,29.608 C129.7,29.608 130.34,29.32 130.884,28.872 C131.028,28.76 131.156,28.696 131.38,28.696 C131.812,28.696 132.148,29.032 132.148,29.48 C132.148,29.72 132.036,29.928 131.892,30.072 Z M137.476,31.144 C136.052,31.144 135.044,30.52 135.044,28.664 L135.044,24.216 L134.724,24.216 C134.26,24.216 133.892,23.848 133.892,23.384 C133.892,22.92 134.26,22.552 134.724,22.552 L135.044,22.552 L135.044,21.112 C135.044,20.584 135.476,20.152 136.02,20.152 C136.548,20.152 136.98,20.584 136.98,21.112 L136.98,22.552 L138.5,22.552 C138.964,22.552 139.348,22.92 139.348,23.384 C139.348,23.848 138.964,24.216 138.5,24.216 L136.98,24.216 L136.98,28.36 C136.98,29.112 137.364,29.416 138.02,29.416 C138.244,29.416 138.436,29.368 138.5,29.368 C138.932,29.368 139.316,29.72 139.316,30.168 C139.316,30.52 139.076,30.808 138.804,30.92 C138.388,31.064 137.988,31.144 137.476,31.144 Z" id="path-17"></path>
        <filter x="-3.1%" y="-20.9%" width="106.2%" height="158.6%" filterUnits="objectBoundingBox" id="filter-18">
            <feOffset dx="0" dy="1" in="SourceAlpha" result="shadowOffsetOuter1"></feOffset>
            <feGaussianBlur stdDeviation="1" in="shadowOffsetOuter1" result="shadowBlurOuter1"></feGaussianBlur>
            <feColorMatrix values="0 0 0 0 0   0 0 0 0 0   0 0 0 0 0  0 0 0 0.36 0" type="matrix" in="shadowBlurOuter1"></feColorMatrix>
        </filter>
        <linearGradient x1="50%" y1="100%" x2="50%" y2="3.061617e-15%" id="linearGradient-19">
            <stop stop-color="#699006" offset="0%"></stop>
            <stop stop-color="#88B609" offset="100%"></stop>
        </linearGradient>
        <path d="M41.863,27.168 C39.007,27.168 36.879,24.942 36.879,22.128 L36.879,22.1 C36.879,19.314 38.965,17.032 41.933,17.032 C43.445,17.032 44.439,17.48 45.293,18.138 C45.475,18.278 45.629,18.516 45.629,18.824 C45.629,19.3 45.251,19.664 44.775,19.664 C44.537,19.664 44.369,19.58 44.257,19.496 C43.585,18.95 42.857,18.614 41.919,18.614 C40.057,18.614 38.685,20.154 38.685,22.072 L38.685,22.1 C38.685,24.018 40.043,25.572 41.919,25.572 C42.955,25.572 43.655,25.236 44.369,24.634 C44.495,24.522 44.677,24.438 44.887,24.438 C45.321,24.438 45.699,24.802 45.699,25.236 C45.699,25.502 45.573,25.712 45.419,25.852 C44.495,26.664 43.445,27.168 41.863,27.168 Z M50.963,27.168 C48.709,27.168 47.043,25.446 47.043,23.346 L47.043,23.318 C47.043,21.204 48.723,19.454 50.991,19.454 C53.259,19.454 54.925,21.176 54.925,23.29 L54.925,23.318 C54.925,25.418 53.245,27.168 50.963,27.168 Z M50.991,25.684 C52.363,25.684 53.231,24.62 53.231,23.346 L53.231,23.318 C53.231,22.016 52.293,20.938 50.963,20.938 C49.605,20.938 48.737,22.002 48.737,23.29 L48.737,23.318 C48.737,24.606 49.675,25.684 50.991,25.684 Z M56.647,26.23 L56.647,20.378 C56.647,19.902 57.011,19.524 57.487,19.524 C57.963,19.524 58.341,19.902 58.341,20.378 L58.341,20.728 C58.817,20.07 59.461,19.454 60.595,19.454 C61.659,19.454 62.415,19.972 62.807,20.756 C63.395,19.972 64.179,19.454 65.299,19.454 C66.909,19.454 67.889,20.476 67.889,22.282 L67.889,26.23 C67.889,26.706 67.525,27.07 67.049,27.07 C66.573,27.07 66.195,26.706 66.195,26.23 L66.195,22.8 C66.195,21.624 65.649,20.994 64.697,20.994 C63.773,20.994 63.115,21.638 63.115,22.828 L63.115,26.23 C63.115,26.706 62.737,27.07 62.275,27.07 C61.799,27.07 61.421,26.706 61.421,26.23 L61.421,22.786 C61.421,21.638 60.861,20.994 59.923,20.994 C58.985,20.994 58.341,21.694 58.341,22.828 L58.341,26.23 C58.341,26.706 57.963,27.07 57.487,27.07 C57.025,27.07 56.647,26.706 56.647,26.23 Z M69.947,28.47 L69.947,20.378 C69.947,19.902 70.311,19.524 70.787,19.524 C71.263,19.524 71.641,19.902 71.641,20.378 L71.641,20.84 C72.187,20.07 72.957,19.454 74.161,19.454 C75.897,19.454 77.591,20.826 77.591,23.29 L77.591,23.318 C77.591,25.768 75.911,27.154 74.161,27.154 C72.929,27.154 72.159,26.538 71.641,25.852 L71.641,28.47 C71.641,28.946 71.263,29.31 70.787,29.31 C70.325,29.31 69.947,28.946 69.947,28.47 Z M73.755,25.684 C74.917,25.684 75.869,24.774 75.869,23.318 L75.869,23.29 C75.869,21.862 74.903,20.924 73.755,20.924 C72.607,20.924 71.599,21.876 71.599,23.29 L71.599,23.318 C71.599,24.732 72.607,25.684 73.755,25.684 Z M79.439,26.23 L79.439,17.55 C79.439,17.088 79.803,16.71 80.279,16.71 C80.755,16.71 81.133,17.088 81.133,17.55 L81.133,26.23 C81.133,26.706 80.755,27.07 80.279,27.07 C79.817,27.07 79.439,26.706 79.439,26.23 Z M84.619,22.786 L88.413,22.786 C88.301,21.694 87.657,20.84 86.537,20.84 C85.501,20.84 84.773,21.638 84.619,22.786 Z M89.393,26.188 C88.721,26.79 87.881,27.168 86.733,27.168 C84.591,27.168 82.939,25.614 82.939,23.332 L82.939,23.304 C82.939,21.19 84.437,19.454 86.551,19.454 C88.903,19.454 90.065,21.386 90.065,23.094 C90.065,23.57 89.701,23.906 89.267,23.906 L84.633,23.906 C84.815,25.11 85.669,25.782 86.761,25.782 C87.475,25.782 88.035,25.53 88.511,25.138 C88.637,25.04 88.749,24.984 88.945,24.984 C89.323,24.984 89.617,25.278 89.617,25.67 C89.617,25.88 89.519,26.062 89.393,26.188 Z M94.279,27.126 C93.033,27.126 92.151,26.58 92.151,24.956 L92.151,21.064 L91.871,21.064 C91.465,21.064 91.143,20.742 91.143,20.336 C91.143,19.93 91.465,19.608 91.871,19.608 L92.151,19.608 L92.151,18.348 C92.151,17.886 92.529,17.508 93.005,17.508 C93.467,17.508 93.845,17.886 93.845,18.348 L93.845,19.608 L95.175,19.608 C95.581,19.608 95.917,19.93 95.917,20.336 C95.917,20.742 95.581,21.064 95.175,21.064 L93.845,21.064 L93.845,24.69 C93.845,25.348 94.181,25.614 94.755,25.614 C94.951,25.614 95.119,25.572 95.175,25.572 C95.553,25.572 95.889,25.88 95.889,26.272 C95.889,26.58 95.679,26.832 95.441,26.93 C95.077,27.056 94.727,27.126 94.279,27.126 Z M98.829,22.786 L102.623,22.786 C102.511,21.694 101.867,20.84 100.747,20.84 C99.711,20.84 98.983,21.638 98.829,22.786 Z M103.603,26.188 C102.931,26.79 102.091,27.168 100.943,27.168 C98.801,27.168 97.149,25.614 97.149,23.332 L97.149,23.304 C97.149,21.19 98.647,19.454 100.761,19.454 C103.113,19.454 104.275,21.386 104.275,23.094 C104.275,23.57 103.911,23.906 103.477,23.906 L98.843,23.906 C99.025,25.11 99.879,25.782 100.971,25.782 C101.685,25.782 102.245,25.53 102.721,25.138 C102.847,25.04 102.959,24.984 103.155,24.984 C103.533,24.984 103.827,25.278 103.827,25.67 C103.827,25.88 103.729,26.062 103.603,26.188 Z" id="path-20"></path>
        <filter x="-5.2%" y="-19.8%" width="110.4%" height="155.6%" filterUnits="objectBoundingBox" id="filter-21">
            <feOffset dx="0" dy="1" in="SourceAlpha" result="shadowOffsetOuter1"></feOffset>
            <feGaussianBlur stdDeviation="1" in="shadowOffsetOuter1" result="shadowBlurOuter1"></feGaussianBlur>
            <feColorMatrix values="0 0 0 0 0   0 0 0 0 0   0 0 0 0 0  0 0 0 0.36 0" type="matrix" in="shadowBlurOuter1"></feColorMatrix>
        </filter>
        <path d="M29.051,22.156 C26.373,22.156 24.384,20.089 24.384,17.476 L24.384,17.45 C24.384,14.863 26.334,12.744 29.129,12.744 C30.494,12.744 31.417,13.108 32.171,13.667 C32.379,13.823 32.561,14.109 32.561,14.46 C32.561,15.006 32.119,15.435 31.573,15.435 C31.3,15.435 31.118,15.331 30.975,15.24 C30.416,14.824 29.831,14.59 29.116,14.59 C27.582,14.59 26.477,15.864 26.477,17.424 L26.477,17.45 C26.477,19.01 27.556,20.31 29.116,20.31 C29.961,20.31 30.52,20.05 31.092,19.595 C31.248,19.465 31.456,19.374 31.69,19.374 C32.197,19.374 32.626,19.79 32.626,20.297 C32.626,20.609 32.47,20.856 32.288,21.012 C31.469,21.727 30.507,22.156 29.051,22.156 Z M37.592,22.156 C35.434,22.156 33.835,20.557 33.835,18.555 L33.835,18.529 C33.835,16.527 35.447,14.902 37.618,14.902 C39.776,14.902 41.375,16.501 41.375,18.503 L41.375,18.529 C41.375,20.531 39.763,22.156 37.592,22.156 Z M37.618,20.453 C38.749,20.453 39.425,19.582 39.425,18.555 L39.425,18.529 C39.425,17.502 38.684,16.605 37.592,16.605 C36.461,16.605 35.785,17.476 35.785,18.503 L35.785,18.529 C35.785,19.556 36.526,20.453 37.618,20.453 Z M42.805,21.09 L42.805,15.942 C42.805,15.396 43.247,14.954 43.793,14.954 C44.339,14.954 44.781,15.396 44.781,15.942 L44.781,16.02 C45.236,15.435 45.834,14.902 46.835,14.902 C47.745,14.902 48.434,15.305 48.798,16.007 C49.409,15.292 50.137,14.902 51.086,14.902 C52.555,14.902 53.439,15.786 53.439,17.463 L53.439,21.09 C53.439,21.636 52.997,22.078 52.451,22.078 C51.905,22.078 51.463,21.636 51.463,21.09 L51.463,18.113 C51.463,17.177 51.047,16.696 50.306,16.696 C49.565,16.696 49.11,17.177 49.11,18.113 L49.11,21.09 C49.11,21.636 48.668,22.078 48.122,22.078 C47.576,22.078 47.134,21.636 47.134,21.09 L47.134,18.113 C47.134,17.177 46.718,16.696 45.977,16.696 C45.236,16.696 44.781,17.177 44.781,18.113 L44.781,21.09 C44.781,21.636 44.339,22.078 43.793,22.078 C43.247,22.078 42.805,21.636 42.805,21.09 Z M55.155,23.17 L55.155,15.942 C55.155,15.396 55.597,14.954 56.143,14.954 C56.689,14.954 57.131,15.396 57.131,15.942 L57.131,16.033 C57.612,15.383 58.275,14.902 59.302,14.902 C60.927,14.902 62.474,16.176 62.474,18.503 L62.474,18.529 C62.474,20.856 60.953,22.13 59.302,22.13 C58.249,22.13 57.599,21.649 57.131,21.09 L57.131,23.17 C57.131,23.716 56.689,24.158 56.143,24.158 C55.597,24.158 55.155,23.716 55.155,23.17 Z M58.795,20.453 C59.718,20.453 60.498,19.699 60.498,18.529 L60.498,18.503 C60.498,17.346 59.718,16.579 58.795,16.579 C57.872,16.579 57.105,17.346 57.105,18.503 L57.105,18.529 C57.105,19.686 57.872,20.453 58.795,20.453 Z M64.021,21.09 L64.021,13.42 C64.021,12.874 64.463,12.432 65.009,12.432 C65.555,12.432 65.997,12.874 65.997,13.42 L65.997,21.09 C65.997,21.636 65.555,22.078 65.009,22.078 C64.463,22.078 64.021,21.636 64.021,21.09 Z M69.455,17.97 L72.432,17.97 C72.315,17.086 71.795,16.488 70.963,16.488 C70.144,16.488 69.611,17.073 69.455,17.97 Z M73.576,21.311 C72.965,21.831 72.172,22.156 71.158,22.156 C69.065,22.156 67.518,20.687 67.518,18.555 L67.518,18.529 C67.518,16.54 68.935,14.902 70.963,14.902 C73.29,14.902 74.317,16.813 74.317,18.256 C74.317,18.828 73.914,19.205 73.394,19.205 L69.481,19.205 C69.676,20.102 70.3,20.57 71.184,20.57 C71.73,20.57 72.185,20.401 72.588,20.102 C72.731,19.998 72.861,19.946 73.069,19.946 C73.511,19.946 73.836,20.284 73.836,20.726 C73.836,20.986 73.719,21.181 73.576,21.311 Z M78.178,22.117 C76.969,22.117 76.15,21.636 76.15,20.024 L76.15,16.722 L76.085,16.722 C75.617,16.722 75.24,16.345 75.24,15.877 C75.24,15.409 75.617,15.032 76.085,15.032 L76.15,15.032 L76.15,14.161 C76.15,13.615 76.592,13.173 77.138,13.173 C77.684,13.173 78.126,13.615 78.126,14.161 L78.126,15.032 L78.997,15.032 C79.465,15.032 79.842,15.409 79.842,15.877 C79.842,16.345 79.465,16.722 78.997,16.722 L78.126,16.722 L78.126,19.699 C78.126,20.154 78.321,20.375 78.763,20.375 C78.828,20.375 78.958,20.362 78.997,20.362 C79.439,20.362 79.816,20.726 79.816,21.181 C79.816,21.532 79.582,21.818 79.309,21.922 C78.945,22.065 78.607,22.117 78.178,22.117 Z M82.819,17.97 L85.796,17.97 C85.679,17.086 85.159,16.488 84.327,16.488 C83.508,16.488 82.975,17.073 82.819,17.97 Z M86.94,21.311 C86.329,21.831 85.536,22.156 84.522,22.156 C82.429,22.156 80.882,20.687 80.882,18.555 L80.882,18.529 C80.882,16.54 82.299,14.902 84.327,14.902 C86.654,14.902 87.681,16.813 87.681,18.256 C87.681,18.828 87.278,19.205 86.758,19.205 L82.845,19.205 C83.04,20.102 83.664,20.57 84.548,20.57 C85.094,20.57 85.549,20.401 85.952,20.102 C86.095,19.998 86.225,19.946 86.433,19.946 C86.875,19.946 87.2,20.284 87.2,20.726 C87.2,20.986 87.083,21.181 86.94,21.311 Z" id="path-22"></path>
        <filter x="-5.5%" y="-21.3%" width="111.1%" height="159.7%" filterUnits="objectBoundingBox" id="filter-23">
            <feOffset dx="0" dy="1" in="SourceAlpha" result="shadowOffsetOuter1"></feOffset>
            <feGaussianBlur stdDeviation="1" in="shadowOffsetOuter1" result="shadowBlurOuter1"></feGaussianBlur>
            <feColorMatrix values="0 0 0 0 0   0 0 0 0 0   0 0 0 0 0  0 0 0 0.36 0" type="matrix" in="shadowBlurOuter1"></feColorMatrix>
        </filter>
        <rect id="path-24" x="0" y="0" width="163" height="50" rx="3"></rect>
        <filter x="-3.1%" y="-8.0%" width="106.1%" height="120.0%" filterUnits="objectBoundingBox" id="filter-25">
            <feOffset dx="0" dy="1" in="SourceAlpha" result="shadowOffsetOuter1"></feOffset>
            <feGaussianBlur stdDeviation="1.5" in="shadowOffsetOuter1" result="shadowBlurOuter1"></feGaussianBlur>
            <feColorMatrix values="0 0 0 0 0   0 0 0 0 0   0 0 0 0 0  0 0 0 0.4 0" type="matrix" in="shadowBlurOuter1"></feColorMatrix>
        </filter>
        <path d="M48.772,30.192 C45.508,30.192 43.076,27.648 43.076,24.432 L43.076,24.4 C43.076,21.216 45.46,18.608 48.852,18.608 C50.58,18.608 51.716,19.12 52.692,19.872 C52.9,20.032 53.076,20.304 53.076,20.656 C53.076,21.2 52.644,21.616 52.1,21.616 C51.828,21.616 51.636,21.52 51.508,21.424 C50.74,20.8 49.908,20.416 48.836,20.416 C46.708,20.416 45.14,22.176 45.14,24.368 L45.14,24.4 C45.14,26.592 46.692,28.368 48.836,28.368 C50.02,28.368 50.82,27.984 51.636,27.296 C51.78,27.168 51.988,27.072 52.228,27.072 C52.724,27.072 53.156,27.488 53.156,27.984 C53.156,28.288 53.012,28.528 52.836,28.688 C51.78,29.616 50.58,30.192 48.772,30.192 Z M59.172,30.192 C56.596,30.192 54.692,28.224 54.692,25.824 L54.692,25.792 C54.692,23.376 56.612,21.376 59.204,21.376 C61.796,21.376 63.7,23.344 63.7,25.76 L63.7,25.792 C63.7,28.192 61.78,30.192 59.172,30.192 Z M59.204,28.496 C60.772,28.496 61.764,27.28 61.764,25.824 L61.764,25.792 C61.764,24.304 60.692,23.072 59.172,23.072 C57.62,23.072 56.628,24.288 56.628,25.76 L56.628,25.792 C56.628,27.264 57.7,28.496 59.204,28.496 Z M65.668,29.12 L65.668,22.432 C65.668,21.888 66.084,21.456 66.628,21.456 C67.172,21.456 67.604,21.888 67.604,22.432 L67.604,22.832 C68.148,22.08 68.884,21.376 70.18,21.376 C71.396,21.376 72.26,21.968 72.708,22.864 C73.38,21.968 74.276,21.376 75.556,21.376 C77.396,21.376 78.516,22.544 78.516,24.608 L78.516,29.12 C78.516,29.664 78.1,30.08 77.556,30.08 C77.012,30.08 76.58,29.664 76.58,29.12 L76.58,25.2 C76.58,23.856 75.956,23.136 74.868,23.136 C73.812,23.136 73.06,23.872 73.06,25.232 L73.06,29.12 C73.06,29.664 72.628,30.08 72.1,30.08 C71.556,30.08 71.124,29.664 71.124,29.12 L71.124,25.184 C71.124,23.872 70.484,23.136 69.412,23.136 C68.34,23.136 67.604,23.936 67.604,25.232 L67.604,29.12 C67.604,29.664 67.172,30.08 66.628,30.08 C66.1,30.08 65.668,29.664 65.668,29.12 Z M80.868,31.68 L80.868,22.432 C80.868,21.888 81.284,21.456 81.828,21.456 C82.372,21.456 82.804,21.888 82.804,22.432 L82.804,22.96 C83.428,22.08 84.308,21.376 85.684,21.376 C87.668,21.376 89.604,22.944 89.604,25.76 L89.604,25.792 C89.604,28.592 87.684,30.176 85.684,30.176 C84.276,30.176 83.396,29.472 82.804,28.688 L82.804,31.68 C82.804,32.224 82.372,32.64 81.828,32.64 C81.3,32.64 80.868,32.224 80.868,31.68 Z M85.22,28.496 C86.548,28.496 87.636,27.456 87.636,25.792 L87.636,25.76 C87.636,24.128 86.532,23.056 85.22,23.056 C83.908,23.056 82.756,24.144 82.756,25.76 L82.756,25.792 C82.756,27.408 83.908,28.496 85.22,28.496 Z M91.716,29.12 L91.716,19.2 C91.716,18.672 92.132,18.24 92.676,18.24 C93.22,18.24 93.652,18.672 93.652,19.2 L93.652,29.12 C93.652,29.664 93.22,30.08 92.676,30.08 C92.148,30.08 91.716,29.664 91.716,29.12 Z M97.636,25.184 L101.972,25.184 C101.844,23.936 101.108,22.96 99.828,22.96 C98.644,22.96 97.812,23.872 97.636,25.184 Z M103.092,29.072 C102.324,29.76 101.364,30.192 100.052,30.192 C97.604,30.192 95.716,28.416 95.716,25.808 L95.716,25.776 C95.716,23.36 97.428,21.376 99.844,21.376 C102.532,21.376 103.86,23.584 103.86,25.536 C103.86,26.08 103.444,26.464 102.948,26.464 L97.652,26.464 C97.86,27.84 98.836,28.608 100.084,28.608 C100.9,28.608 101.54,28.32 102.084,27.872 C102.228,27.76 102.356,27.696 102.58,27.696 C103.012,27.696 103.348,28.032 103.348,28.48 C103.348,28.72 103.236,28.928 103.092,29.072 Z M108.676,30.144 C107.252,30.144 106.244,29.52 106.244,27.664 L106.244,23.216 L105.924,23.216 C105.46,23.216 105.092,22.848 105.092,22.384 C105.092,21.92 105.46,21.552 105.924,21.552 L106.244,21.552 L106.244,20.112 C106.244,19.584 106.676,19.152 107.22,19.152 C107.748,19.152 108.18,19.584 108.18,20.112 L108.18,21.552 L109.7,21.552 C110.164,21.552 110.548,21.92 110.548,22.384 C110.548,22.848 110.164,23.216 109.7,23.216 L108.18,23.216 L108.18,27.36 C108.18,28.112 108.564,28.416 109.22,28.416 C109.444,28.416 109.636,28.368 109.7,28.368 C110.132,28.368 110.516,28.72 110.516,29.168 C110.516,29.52 110.276,29.808 110.004,29.92 C109.588,30.064 109.188,30.144 108.676,30.144 Z M113.876,25.184 L118.212,25.184 C118.084,23.936 117.348,22.96 116.068,22.96 C114.884,22.96 114.052,23.872 113.876,25.184 Z M119.332,29.072 C118.564,29.76 117.604,30.192 116.292,30.192 C113.844,30.192 111.956,28.416 111.956,25.808 L111.956,25.776 C111.956,23.36 113.668,21.376 116.084,21.376 C118.772,21.376 120.1,23.584 120.1,25.536 C120.1,26.08 119.684,26.464 119.188,26.464 L113.892,26.464 C114.1,27.84 115.076,28.608 116.324,28.608 C117.14,28.608 117.78,28.32 118.324,27.872 C118.468,27.76 118.596,27.696 118.82,27.696 C119.252,27.696 119.588,28.032 119.588,28.48 C119.588,28.72 119.476,28.928 119.332,29.072 Z" id="path-26"></path>
        <filter x="-4.5%" y="-17.4%" width="109.1%" height="148.6%" filterUnits="objectBoundingBox" id="filter-27">
            <feOffset dx="0" dy="1" in="SourceAlpha" result="shadowOffsetOuter1"></feOffset>
            <feGaussianBlur stdDeviation="1" in="shadowOffsetOuter1" result="shadowBlurOuter1"></feGaussianBlur>
            <feColorMatrix values="0 0 0 0 0   0 0 0 0 0   0 0 0 0 0  0 0 0 0.5 0" type="matrix" in="shadowBlurOuter1"></feColorMatrix>
        </filter>
    </defs>
    <g id="Slides" stroke="none" stroke-width="1" fill="none" fill-rule="evenodd">
        <g id="Group-22" transform="translate(0.000000, 2.000000)">
            <g id="Group-18">
                <g id="Group-4" transform="translate(12.000000, 60.000000)">
                    <rect id="Rectangle-12" fill="url(#linearGradient-1)" x="0" y="0" width="140" height="43" rx="3"></rect>
                    <g id="Add-to-Basket">
                        <use fill="black" fill-opacity="1" filter="url(#filter-3)" xlink:href="#path-2"></use>
                        <use fill="#FFFFFF" fill-rule="evenodd" xlink:href="#path-2"></use>
                    </g>
                </g>
                <g id="Group-4" transform="translate(26.000000, 113.000000)">
                    <rect id="Rectangle-12" fill="url(#linearGradient-1)" x="0" y="0" width="111" height="34" rx="2"></rect>
                    <g id="Small-Button">
                        <use fill="black" fill-opacity="1" filter="url(#filter-5)" xlink:href="#path-4"></use>
                        <use fill="#FFFFFF" fill-rule="evenodd" xlink:href="#path-4"></use>
                    </g>
                </g>
                <g id="Group-4">
                    <rect id="Rectangle-12" fill="url(#linearGradient-1)" x="0" y="0" width="163" height="50" rx="3"></rect>
                    <g id="Add-to-Basket">
                        <use fill="black" fill-opacity="1" filter="url(#filter-7)" xlink:href="#path-6"></use>
                        <use fill="#FFFFFF" fill-rule="evenodd" xlink:href="#path-6"></use>
                    </g>
                </g>
            </g>
            <g id="Group-21" transform="translate(579.000000, 0.000000)">
                <g id="Group-4">
                    <g id="Rectangle-12">
                        <use fill="url(#linearGradient-8)" fill-rule="evenodd" xlink:href="#path-9"></use>
                        <rect stroke="#CDE3F3" stroke-width="1" x="0.5" y="0.5" width="162" height="49" rx="3"></rect>
                    </g>
                    <path d="M67.292,29.104 L67.292,19.696 C67.292,19.152 67.724,18.72 68.284,18.72 C68.828,18.72 69.26,19.152 69.26,19.696 L69.26,29.104 C69.26,29.648 68.828,30.08 68.284,30.08 C67.724,30.08 67.292,29.648 67.292,29.104 Z M72.028,29.12 L72.028,22.432 C72.028,21.888 72.444,21.456 72.988,21.456 C73.532,21.456 73.964,21.888 73.964,22.432 L73.964,22.848 C74.508,22.064 75.292,21.376 76.604,21.376 C78.508,21.376 79.612,22.656 79.612,24.608 L79.612,29.12 C79.612,29.664 79.196,30.08 78.652,30.08 C78.108,30.08 77.676,29.664 77.676,29.12 L77.676,25.2 C77.676,23.888 77.02,23.136 75.868,23.136 C74.748,23.136 73.964,23.92 73.964,25.232 L73.964,29.12 C73.964,29.664 73.532,30.08 72.988,30.08 C72.46,30.08 72.028,29.664 72.028,29.12 Z M82.38,29.12 L82.38,23.216 L82.044,23.216 C81.596,23.216 81.228,22.864 81.228,22.416 C81.228,21.968 81.596,21.6 82.044,21.6 L82.38,21.6 L82.38,20.976 C82.38,20.048 82.62,19.344 83.068,18.896 C83.516,18.448 84.14,18.224 84.972,18.224 C85.356,18.224 85.676,18.256 85.948,18.304 C86.3,18.352 86.62,18.672 86.62,19.104 C86.62,19.552 86.252,19.92 85.804,19.904 C85.692,19.888 85.532,19.872 85.404,19.872 C84.668,19.872 84.284,20.272 84.284,21.152 L84.284,21.616 L85.788,21.616 C86.252,21.616 86.604,21.968 86.604,22.416 C86.604,22.864 86.236,23.216 85.788,23.216 L84.316,23.216 L84.316,29.12 C84.316,29.648 83.884,30.08 83.34,30.08 C82.812,30.08 82.38,29.648 82.38,29.12 Z M91.98,30.192 C89.404,30.192 87.5,28.224 87.5,25.824 L87.5,25.792 C87.5,23.376 89.42,21.376 92.012,21.376 C94.604,21.376 96.508,23.344 96.508,25.76 L96.508,25.792 C96.508,28.192 94.588,30.192 91.98,30.192 Z M92.012,28.496 C93.58,28.496 94.572,27.28 94.572,25.824 L94.572,25.792 C94.572,24.304 93.5,23.072 91.98,23.072 C90.428,23.072 89.436,24.288 89.436,25.76 L89.436,25.792 C89.436,27.264 90.508,28.496 92.012,28.496 Z" id="Info" fill="#3A3939"></path>
                </g>
                <g id="Group-4-Copy-3" transform="translate(12.000000, 60.000000)">
                    <g id="Rectangle-12">
                        <use fill="url(#linearGradient-8)" fill-rule="evenodd" xlink:href="#path-10"></use>
                        <rect stroke="#CDE3F3" stroke-width="1" x="0.5" y="0.5" width="139" height="42" rx="3"></rect>
                    </g>
                    <path d="M41.863,27.168 C39.007,27.168 36.879,24.942 36.879,22.128 L36.879,22.1 C36.879,19.314 38.965,17.032 41.933,17.032 C43.445,17.032 44.439,17.48 45.293,18.138 C45.475,18.278 45.629,18.516 45.629,18.824 C45.629,19.3 45.251,19.664 44.775,19.664 C44.537,19.664 44.369,19.58 44.257,19.496 C43.585,18.95 42.857,18.614 41.919,18.614 C40.057,18.614 38.685,20.154 38.685,22.072 L38.685,22.1 C38.685,24.018 40.043,25.572 41.919,25.572 C42.955,25.572 43.655,25.236 44.369,24.634 C44.495,24.522 44.677,24.438 44.887,24.438 C45.321,24.438 45.699,24.802 45.699,25.236 C45.699,25.502 45.573,25.712 45.419,25.852 C44.495,26.664 43.445,27.168 41.863,27.168 Z M50.963,27.168 C48.709,27.168 47.043,25.446 47.043,23.346 L47.043,23.318 C47.043,21.204 48.723,19.454 50.991,19.454 C53.259,19.454 54.925,21.176 54.925,23.29 L54.925,23.318 C54.925,25.418 53.245,27.168 50.963,27.168 Z M50.991,25.684 C52.363,25.684 53.231,24.62 53.231,23.346 L53.231,23.318 C53.231,22.016 52.293,20.938 50.963,20.938 C49.605,20.938 48.737,22.002 48.737,23.29 L48.737,23.318 C48.737,24.606 49.675,25.684 50.991,25.684 Z M56.647,26.23 L56.647,20.378 C56.647,19.902 57.011,19.524 57.487,19.524 C57.963,19.524 58.341,19.902 58.341,20.378 L58.341,20.728 C58.817,20.07 59.461,19.454 60.595,19.454 C61.659,19.454 62.415,19.972 62.807,20.756 C63.395,19.972 64.179,19.454 65.299,19.454 C66.909,19.454 67.889,20.476 67.889,22.282 L67.889,26.23 C67.889,26.706 67.525,27.07 67.049,27.07 C66.573,27.07 66.195,26.706 66.195,26.23 L66.195,22.8 C66.195,21.624 65.649,20.994 64.697,20.994 C63.773,20.994 63.115,21.638 63.115,22.828 L63.115,26.23 C63.115,26.706 62.737,27.07 62.275,27.07 C61.799,27.07 61.421,26.706 61.421,26.23 L61.421,22.786 C61.421,21.638 60.861,20.994 59.923,20.994 C58.985,20.994 58.341,21.694 58.341,22.828 L58.341,26.23 C58.341,26.706 57.963,27.07 57.487,27.07 C57.025,27.07 56.647,26.706 56.647,26.23 Z M69.947,28.47 L69.947,20.378 C69.947,19.902 70.311,19.524 70.787,19.524 C71.263,19.524 71.641,19.902 71.641,20.378 L71.641,20.84 C72.187,20.07 72.957,19.454 74.161,19.454 C75.897,19.454 77.591,20.826 77.591,23.29 L77.591,23.318 C77.591,25.768 75.911,27.154 74.161,27.154 C72.929,27.154 72.159,26.538 71.641,25.852 L71.641,28.47 C71.641,28.946 71.263,29.31 70.787,29.31 C70.325,29.31 69.947,28.946 69.947,28.47 Z M73.755,25.684 C74.917,25.684 75.869,24.774 75.869,23.318 L75.869,23.29 C75.869,21.862 74.903,20.924 73.755,20.924 C72.607,20.924 71.599,21.876 71.599,23.29 L71.599,23.318 C71.599,24.732 72.607,25.684 73.755,25.684 Z M79.439,26.23 L79.439,17.55 C79.439,17.088 79.803,16.71 80.279,16.71 C80.755,16.71 81.133,17.088 81.133,17.55 L81.133,26.23 C81.133,26.706 80.755,27.07 80.279,27.07 C79.817,27.07 79.439,26.706 79.439,26.23 Z M84.619,22.786 L88.413,22.786 C88.301,21.694 87.657,20.84 86.537,20.84 C85.501,20.84 84.773,21.638 84.619,22.786 Z M89.393,26.188 C88.721,26.79 87.881,27.168 86.733,27.168 C84.591,27.168 82.939,25.614 82.939,23.332 L82.939,23.304 C82.939,21.19 84.437,19.454 86.551,19.454 C88.903,19.454 90.065,21.386 90.065,23.094 C90.065,23.57 89.701,23.906 89.267,23.906 L84.633,23.906 C84.815,25.11 85.669,25.782 86.761,25.782 C87.475,25.782 88.035,25.53 88.511,25.138 C88.637,25.04 88.749,24.984 88.945,24.984 C89.323,24.984 89.617,25.278 89.617,25.67 C89.617,25.88 89.519,26.062 89.393,26.188 Z M94.279,27.126 C93.033,27.126 92.151,26.58 92.151,24.956 L92.151,21.064 L91.871,21.064 C91.465,21.064 91.143,20.742 91.143,20.336 C91.143,19.93 91.465,19.608 91.871,19.608 L92.151,19.608 L92.151,18.348 C92.151,17.886 92.529,17.508 93.005,17.508 C93.467,17.508 93.845,17.886 93.845,18.348 L93.845,19.608 L95.175,19.608 C95.581,19.608 95.917,19.93 95.917,20.336 C95.917,20.742 95.581,21.064 95.175,21.064 L93.845,21.064 L93.845,24.69 C93.845,25.348 94.181,25.614 94.755,25.614 C94.951,25.614 95.119,25.572 95.175,25.572 C95.553,25.572 95.889,25.88 95.889,26.272 C95.889,26.58 95.679,26.832 95.441,26.93 C95.077,27.056 94.727,27.126 94.279,27.126 Z M98.829,22.786 L102.623,22.786 C102.511,21.694 101.867,20.84 100.747,20.84 C99.711,20.84 98.983,21.638 98.829,22.786 Z M103.603,26.188 C102.931,26.79 102.091,27.168 100.943,27.168 C98.801,27.168 97.149,25.614 97.149,23.332 L97.149,23.304 C97.149,21.19 98.647,19.454 100.761,19.454 C103.113,19.454 104.275,21.386 104.275,23.094 C104.275,23.57 103.911,23.906 103.477,23.906 L98.843,23.906 C99.025,25.11 99.879,25.782 100.971,25.782 C101.685,25.782 102.245,25.53 102.721,25.138 C102.847,25.04 102.959,24.984 103.155,24.984 C103.533,24.984 103.827,25.278 103.827,25.67 C103.827,25.88 103.729,26.062 103.603,26.188 Z" id="Complete" fill="#3A3939"></path>
                </g>
                <g id="Group-4-Copy-4" transform="translate(26.000000, 113.000000)">
                    <g id="Rectangle-12">
                        <use fill="url(#linearGradient-8)" fill-rule="evenodd" xlink:href="#path-11"></use>
                        <rect stroke="#CDE3F3" stroke-width="1" x="0.5" y="0.5" width="110" height="33" rx="2"></rect>
                    </g>
                    <path d="M29.051,22.156 C26.373,22.156 24.384,20.089 24.384,17.476 L24.384,17.45 C24.384,14.863 26.334,12.744 29.129,12.744 C30.494,12.744 31.417,13.108 32.171,13.667 C32.379,13.823 32.561,14.109 32.561,14.46 C32.561,15.006 32.119,15.435 31.573,15.435 C31.3,15.435 31.118,15.331 30.975,15.24 C30.416,14.824 29.831,14.59 29.116,14.59 C27.582,14.59 26.477,15.864 26.477,17.424 L26.477,17.45 C26.477,19.01 27.556,20.31 29.116,20.31 C29.961,20.31 30.52,20.05 31.092,19.595 C31.248,19.465 31.456,19.374 31.69,19.374 C32.197,19.374 32.626,19.79 32.626,20.297 C32.626,20.609 32.47,20.856 32.288,21.012 C31.469,21.727 30.507,22.156 29.051,22.156 Z M37.592,22.156 C35.434,22.156 33.835,20.557 33.835,18.555 L33.835,18.529 C33.835,16.527 35.447,14.902 37.618,14.902 C39.776,14.902 41.375,16.501 41.375,18.503 L41.375,18.529 C41.375,20.531 39.763,22.156 37.592,22.156 Z M37.618,20.453 C38.749,20.453 39.425,19.582 39.425,18.555 L39.425,18.529 C39.425,17.502 38.684,16.605 37.592,16.605 C36.461,16.605 35.785,17.476 35.785,18.503 L35.785,18.529 C35.785,19.556 36.526,20.453 37.618,20.453 Z M42.805,21.09 L42.805,15.942 C42.805,15.396 43.247,14.954 43.793,14.954 C44.339,14.954 44.781,15.396 44.781,15.942 L44.781,16.02 C45.236,15.435 45.834,14.902 46.835,14.902 C47.745,14.902 48.434,15.305 48.798,16.007 C49.409,15.292 50.137,14.902 51.086,14.902 C52.555,14.902 53.439,15.786 53.439,17.463 L53.439,21.09 C53.439,21.636 52.997,22.078 52.451,22.078 C51.905,22.078 51.463,21.636 51.463,21.09 L51.463,18.113 C51.463,17.177 51.047,16.696 50.306,16.696 C49.565,16.696 49.11,17.177 49.11,18.113 L49.11,21.09 C49.11,21.636 48.668,22.078 48.122,22.078 C47.576,22.078 47.134,21.636 47.134,21.09 L47.134,18.113 C47.134,17.177 46.718,16.696 45.977,16.696 C45.236,16.696 44.781,17.177 44.781,18.113 L44.781,21.09 C44.781,21.636 44.339,22.078 43.793,22.078 C43.247,22.078 42.805,21.636 42.805,21.09 Z M55.155,23.17 L55.155,15.942 C55.155,15.396 55.597,14.954 56.143,14.954 C56.689,14.954 57.131,15.396 57.131,15.942 L57.131,16.033 C57.612,15.383 58.275,14.902 59.302,14.902 C60.927,14.902 62.474,16.176 62.474,18.503 L62.474,18.529 C62.474,20.856 60.953,22.13 59.302,22.13 C58.249,22.13 57.599,21.649 57.131,21.09 L57.131,23.17 C57.131,23.716 56.689,24.158 56.143,24.158 C55.597,24.158 55.155,23.716 55.155,23.17 Z M58.795,20.453 C59.718,20.453 60.498,19.699 60.498,18.529 L60.498,18.503 C60.498,17.346 59.718,16.579 58.795,16.579 C57.872,16.579 57.105,17.346 57.105,18.503 L57.105,18.529 C57.105,19.686 57.872,20.453 58.795,20.453 Z M64.021,21.09 L64.021,13.42 C64.021,12.874 64.463,12.432 65.009,12.432 C65.555,12.432 65.997,12.874 65.997,13.42 L65.997,21.09 C65.997,21.636 65.555,22.078 65.009,22.078 C64.463,22.078 64.021,21.636 64.021,21.09 Z M69.455,17.97 L72.432,17.97 C72.315,17.086 71.795,16.488 70.963,16.488 C70.144,16.488 69.611,17.073 69.455,17.97 Z M73.576,21.311 C72.965,21.831 72.172,22.156 71.158,22.156 C69.065,22.156 67.518,20.687 67.518,18.555 L67.518,18.529 C67.518,16.54 68.935,14.902 70.963,14.902 C73.29,14.902 74.317,16.813 74.317,18.256 C74.317,18.828 73.914,19.205 73.394,19.205 L69.481,19.205 C69.676,20.102 70.3,20.57 71.184,20.57 C71.73,20.57 72.185,20.401 72.588,20.102 C72.731,19.998 72.861,19.946 73.069,19.946 C73.511,19.946 73.836,20.284 73.836,20.726 C73.836,20.986 73.719,21.181 73.576,21.311 Z M78.178,22.117 C76.969,22.117 76.15,21.636 76.15,20.024 L76.15,16.722 L76.085,16.722 C75.617,16.722 75.24,16.345 75.24,15.877 C75.24,15.409 75.617,15.032 76.085,15.032 L76.15,15.032 L76.15,14.161 C76.15,13.615 76.592,13.173 77.138,13.173 C77.684,13.173 78.126,13.615 78.126,14.161 L78.126,15.032 L78.997,15.032 C79.465,15.032 79.842,15.409 79.842,15.877 C79.842,16.345 79.465,16.722 78.997,16.722 L78.126,16.722 L78.126,19.699 C78.126,20.154 78.321,20.375 78.763,20.375 C78.828,20.375 78.958,20.362 78.997,20.362 C79.439,20.362 79.816,20.726 79.816,21.181 C79.816,21.532 79.582,21.818 79.309,21.922 C78.945,22.065 78.607,22.117 78.178,22.117 Z M82.819,17.97 L85.796,17.97 C85.679,17.086 85.159,16.488 84.327,16.488 C83.508,16.488 82.975,17.073 82.819,17.97 Z M86.94,21.311 C86.329,21.831 85.536,22.156 84.522,22.156 C82.429,22.156 80.882,20.687 80.882,18.555 L80.882,18.529 C80.882,16.54 82.299,14.902 84.327,14.902 C86.654,14.902 87.681,16.813 87.681,18.256 C87.681,18.828 87.278,19.205 86.758,19.205 L82.845,19.205 C83.04,20.102 83.664,20.57 84.548,20.57 C85.094,20.57 85.549,20.401 85.952,20.102 C86.095,19.998 86.225,19.946 86.433,19.946 C86.875,19.946 87.2,20.284 87.2,20.726 C87.2,20.986 87.083,21.181 86.94,21.311 Z" id="Complete" fill="#3A3939"></path>
                </g>
            </g>
            <g id="Group-19" transform="translate(193.000000, 0.000000)">
                <g id="Group-4" transform="translate(12.000000, 60.000000)">
                    <rect id="Rectangle-12" fill="url(#linearGradient-12)" x="0" y="0" width="140" height="43" rx="3"></rect>
                    <g id="Add-to-Basket">
                        <use fill="black" fill-opacity="1" filter="url(#filter-14)" xlink:href="#path-13"></use>
                        <use fill="#FFFFFF" fill-rule="evenodd" xlink:href="#path-13"></use>
                    </g>
                </g>
                <g id="Group-4" transform="translate(26.000000, 113.000000)">
                    <rect id="Rectangle-12" fill="url(#linearGradient-12)" x="0" y="0" width="111" height="34" rx="2"></rect>
                    <g id="Small-Button">
                        <use fill="black" fill-opacity="1" filter="url(#filter-16)" xlink:href="#path-15"></use>
                        <use fill="#FFFFFF" fill-rule="evenodd" xlink:href="#path-15"></use>
                    </g>
                </g>
                <g id="Group-4">
                    <rect id="Rectangle-12" fill="url(#linearGradient-12)" x="0" y="0" width="163" height="50" rx="3"></rect>
                    <g id="Add-to-Basket">
                        <use fill="black" fill-opacity="1" filter="url(#filter-18)" xlink:href="#path-17"></use>
                        <use fill="#FFFFFF" fill-rule="evenodd" xlink:href="#path-17"></use>
                    </g>
                </g>
            </g>
            <g id="Group-20" transform="translate(386.000000, 0.000000)">
                <g id="Group-4-Copy" transform="translate(12.000000, 60.000000)">
                    <rect id="Rectangle-12" fill="url(#linearGradient-19)" x="0" y="0" width="140" height="43" rx="3"></rect>
                    <g id="Complete">
                        <use fill="black" fill-opacity="1" filter="url(#filter-21)" xlink:href="#path-20"></use>
                        <use fill="#FFFFFF" fill-rule="evenodd" xlink:href="#path-20"></use>
                    </g>
                </g>
                <g id="Group-4-Copy-2" transform="translate(26.000000, 113.000000)">
                    <rect id="Rectangle-12" fill="url(#linearGradient-19)" x="0" y="0" width="111" height="34" rx="2"></rect>
                    <g id="Complete">
                        <use fill="black" fill-opacity="1" filter="url(#filter-23)" xlink:href="#path-22"></use>
                        <use fill="#FFFFFF" fill-rule="evenodd" xlink:href="#path-22"></use>
                    </g>
                </g>
                <g id="Group-4">
                    <g id="Rectangle-12">
                        <use fill="black" fill-opacity="1" filter="url(#filter-25)" xlink:href="#path-24"></use>
                        <use fill="url(#linearGradient-19)" fill-rule="evenodd" xlink:href="#path-24"></use>
                    </g>
                    <g id="Complete">
                        <use fill="black" fill-opacity="1" filter="url(#filter-27)" xlink:href="#path-26"></use>
                        <use fill="#FFFFFF" fill-rule="evenodd" xlink:href="#path-26"></use>
                    </g>
                </g>
            </g>
        </g>
    </g>
</svg>