<svg width="646" height="183" viewBox="0 0 646 183" fill="none" xmlns="http://www.w3.org/2000/svg">
<line x1="136" y1="93.5" x2="166" y2="93.5" stroke="#CCCCCC"/>
<line x1="297" y1="93.5" x2="510" y2="93.5" stroke="#CCCCCC"/>
<rect x="0.5" y="0.5" width="135" height="182" rx="4.5" fill="white" stroke="#CCCCCC"/>
<path d="M3 17H133V174C133 176.761 130.761 179 128 179H8C5.23858 179 3 176.761 3 174V17Z" fill="#C7E0EC"/>
<circle cx="6.5" cy="9.5" r="2.5" fill="#C7E0EC"/>
<circle cx="15.5" cy="9.5" r="2.5" fill="#C7E0EC"/>
<circle cx="24.5" cy="9.5" r="2.5" fill="#C7E0EC"/>
<path d="M22.4005 102V92.926H25.7025C26.5431 92.926 27.1845 93.1557 27.6265 93.615C28.0685 94.0743 28.2895 94.7157 28.2895 95.539C28.2895 96.3623 28.0685 97.0037 27.6265 97.463C27.1845 97.9223 26.5431 98.152 25.7025 98.152H23.4925V102H22.4005ZM23.4925 97.203H25.6765C26.1358 97.203 26.4911 97.0903 26.7425 96.865C27.0025 96.631 27.1325 96.3017 27.1325 95.877V95.201C27.1325 94.7763 27.0025 94.4513 26.7425 94.226C26.4911 93.992 26.1358 93.875 25.6765 93.875H23.4925V97.203ZM30.0264 101.116H31.9894V96.176H30.0264V95.292H33.0294V96.982H33.0944C33.2331 96.4533 33.4931 96.0417 33.8744 95.747C34.2644 95.4437 34.7584 95.292 35.3564 95.292H36.2924V96.332H35.0314C34.4334 96.332 33.9481 96.5053 33.5754 96.852C33.2114 97.1987 33.0294 97.6537 33.0294 98.217V101.116H35.6294V102H30.0264V101.116ZM40.7203 102.156C40.2523 102.156 39.8276 102.074 39.4463 101.909C39.0736 101.744 38.753 101.51 38.4843 101.207C38.2243 100.895 38.025 100.527 37.8863 100.102C37.7476 99.6687 37.6783 99.1833 37.6783 98.646C37.6783 98.1173 37.7476 97.6363 37.8863 97.203C38.025 96.7697 38.2243 96.4013 38.4843 96.098C38.753 95.786 39.0736 95.5477 39.4463 95.383C39.8276 95.2183 40.2523 95.136 40.7203 95.136C41.1883 95.136 41.6086 95.2183 41.9813 95.383C42.3626 95.5477 42.6833 95.786 42.9433 96.098C43.212 96.4013 43.4156 96.7697 43.5543 97.203C43.693 97.6363 43.7623 98.1173 43.7623 98.646C43.7623 99.1833 43.693 99.6687 43.5543 100.102C43.4156 100.527 43.212 100.895 42.9433 101.207C42.6833 101.51 42.3626 101.744 41.9813 101.909C41.6086 102.074 41.1883 102.156 40.7203 102.156ZM40.7203 101.259C41.301 101.259 41.769 101.086 42.1243 100.739C42.4796 100.392 42.6573 99.855 42.6573 99.127V98.165C42.6573 97.437 42.4796 96.8997 42.1243 96.553C41.769 96.2063 41.301 96.033 40.7203 96.033C40.1396 96.033 39.6716 96.2063 39.3163 96.553C38.961 96.8997 38.7833 97.437 38.7833 98.165V99.127C38.7833 99.855 38.961 100.392 39.3163 100.739C39.6716 101.086 40.1396 101.259 40.7203 101.259ZM50.1402 100.908H50.0882C49.6549 101.74 48.9659 102.156 48.0212 102.156C47.1979 102.156 46.5522 101.848 46.0842 101.233C45.6249 100.618 45.3952 99.7553 45.3952 98.646C45.3952 97.5367 45.6249 96.6743 46.0842 96.059C46.5522 95.4437 47.1979 95.136 48.0212 95.136C48.9659 95.136 49.6549 95.552 50.0882 96.384H50.1402V92.38H51.1802V102H50.1402V100.908ZM48.4242 101.233C48.6582 101.233 48.8792 101.203 49.0872 101.142C49.2952 101.081 49.4772 100.995 49.6332 100.882C49.7892 100.761 49.9106 100.618 49.9972 100.453C50.0926 100.28 50.1402 100.08 50.1402 99.855V97.437C50.1402 97.2117 50.0926 97.0167 49.9972 96.852C49.9106 96.6787 49.7892 96.5357 49.6332 96.423C49.4772 96.3017 49.2952 96.2107 49.0872 96.15C48.8792 96.0893 48.6582 96.059 48.4242 96.059C47.8176 96.059 47.3452 96.2453 47.0072 96.618C46.6779 96.982 46.5132 97.4673 46.5132 98.074V99.218C46.5132 99.8247 46.6779 100.314 47.0072 100.687C47.3452 101.051 47.8176 101.233 48.4242 101.233ZM57.8962 100.908H57.8442C57.7748 101.073 57.6882 101.233 57.5842 101.389C57.4802 101.536 57.3502 101.666 57.1942 101.779C57.0468 101.892 56.8692 101.983 56.6612 102.052C56.4532 102.121 56.2105 102.156 55.9332 102.156C55.2312 102.156 54.6678 101.935 54.2432 101.493C53.8185 101.042 53.6062 100.41 53.6062 99.595V95.292H54.6462V99.413C54.6462 100.028 54.7805 100.488 55.0492 100.791C55.3178 101.086 55.7122 101.233 56.2322 101.233C56.4402 101.233 56.6438 101.207 56.8432 101.155C57.0425 101.103 57.2202 101.025 57.3762 100.921C57.5322 100.817 57.6578 100.687 57.7532 100.531C57.8485 100.366 57.8962 100.171 57.8962 99.946V95.292H58.9362V102H57.8962V100.908ZM64.3391 102.156C63.8537 102.156 63.4204 102.074 63.0391 101.909C62.6664 101.736 62.3501 101.497 62.0901 101.194C61.8301 100.891 61.6307 100.522 61.4921 100.089C61.3621 99.6557 61.2971 99.1747 61.2971 98.646C61.2971 98.1173 61.3664 97.6363 61.5051 97.203C61.6437 96.7697 61.8431 96.4013 62.1031 96.098C62.3631 95.786 62.6794 95.5477 63.0521 95.383C63.4247 95.2183 63.8494 95.136 64.3261 95.136C64.9761 95.136 65.5047 95.279 65.9121 95.565C66.3194 95.851 66.6184 96.2237 66.8091 96.683L65.9771 97.125C65.8557 96.7783 65.6521 96.5097 65.3661 96.319C65.0887 96.1283 64.7421 96.033 64.3261 96.033C64.0227 96.033 63.7497 96.085 63.5071 96.189C63.2731 96.2843 63.0737 96.423 62.9091 96.605C62.7444 96.787 62.6187 97.0037 62.5321 97.255C62.4541 97.5063 62.4151 97.7793 62.4151 98.074V99.218C62.4151 99.5127 62.4541 99.7857 62.5321 100.037C62.6187 100.288 62.7444 100.505 62.9091 100.687C63.0737 100.869 63.2774 101.012 63.5201 101.116C63.7627 101.211 64.0401 101.259 64.3521 101.259C64.8027 101.259 65.1754 101.155 65.4701 100.947C65.7647 100.739 65.9987 100.453 66.1721 100.089L66.9131 100.596C66.7137 101.047 66.4017 101.419 65.9771 101.714C65.5611 102.009 65.0151 102.156 64.3391 102.156ZM72.225 102C71.7137 102 71.3367 101.857 71.094 101.571C70.86 101.285 70.743 100.917 70.743 100.466V96.176H68.507V95.292H70.171C70.3963 95.292 70.5523 95.2487 70.639 95.162C70.7343 95.0667 70.782 94.9063 70.782 94.681V92.926H71.783V95.292H74.838V96.176H71.783V101.116H74.838V102H72.225ZM84.7598 102V92.926H88.0618C88.9025 92.926 89.5438 93.1557 89.9858 93.615C90.4278 94.0743 90.6488 94.7157 90.6488 95.539C90.6488 96.3623 90.4278 97.0037 89.9858 97.463C89.5438 97.9223 88.9025 98.152 88.0618 98.152H85.8518V102H84.7598ZM85.8518 97.203H88.0358C88.4952 97.203 88.8505 97.0903 89.1018 96.865C89.3618 96.631 89.4918 96.3017 89.4918 95.877V95.201C89.4918 94.7763 89.3618 94.4513 89.1018 94.226C88.8505 93.992 88.4952 93.875 88.0358 93.875H85.8518V97.203ZM97.8198 102C97.4124 102 97.1221 101.896 96.9488 101.688C96.7754 101.48 96.6671 101.22 96.6238 100.908H96.5588C96.4114 101.298 96.1731 101.606 95.8438 101.831C95.5231 102.048 95.0898 102.156 94.5438 102.156C93.8418 102.156 93.2828 101.974 92.8668 101.61C92.4508 101.246 92.2428 100.748 92.2428 100.115C92.2428 99.491 92.4681 99.01 92.9188 98.672C93.3781 98.334 94.1148 98.165 95.1288 98.165H96.5588V97.502C96.5588 97.008 96.4201 96.6397 96.1428 96.397C95.8654 96.1457 95.4711 96.02 94.9598 96.02C94.5091 96.02 94.1408 96.111 93.8548 96.293C93.5688 96.4663 93.3391 96.7047 93.1658 97.008L92.4638 96.488C92.5504 96.3147 92.6674 96.1457 92.8148 95.981C92.9621 95.8163 93.1441 95.6733 93.3608 95.552C93.5774 95.422 93.8244 95.3223 94.1018 95.253C94.3791 95.175 94.6868 95.136 95.0248 95.136C95.8134 95.136 96.4374 95.3353 96.8968 95.734C97.3648 96.1327 97.5988 96.6873 97.5988 97.398V101.09H98.5348V102H97.8198ZM94.7258 101.285C94.9944 101.285 95.2371 101.255 95.4538 101.194C95.6791 101.125 95.8741 101.038 96.0388 100.934C96.2034 100.821 96.3291 100.691 96.4158 100.544C96.5111 100.388 96.5588 100.223 96.5588 100.05V98.945H95.1288C94.5048 98.945 94.0498 99.0317 93.7638 99.205C93.4778 99.3783 93.3348 99.6297 93.3348 99.959V100.232C93.3348 100.579 93.4561 100.843 93.6988 101.025C93.9501 101.198 94.2924 101.285 94.7258 101.285ZM106.473 102.767C106.473 103.443 106.191 103.941 105.628 104.262C105.064 104.591 104.219 104.756 103.093 104.756C102.009 104.756 101.229 104.613 100.753 104.327C100.285 104.041 100.051 103.629 100.051 103.092C100.051 102.728 100.146 102.446 100.337 102.247C100.527 102.048 100.796 101.9 101.143 101.805V101.649C100.952 101.554 100.805 101.432 100.701 101.285C100.597 101.138 100.545 100.951 100.545 100.726C100.545 100.379 100.657 100.119 100.883 99.946C101.117 99.7727 101.407 99.6427 101.754 99.556V99.504C101.338 99.322 101.013 99.0533 100.779 98.698C100.553 98.3427 100.441 97.9267 100.441 97.45C100.441 97.112 100.501 96.8 100.623 96.514C100.744 96.228 100.917 95.9853 101.143 95.786C101.377 95.578 101.654 95.4177 101.975 95.305C102.295 95.1923 102.651 95.136 103.041 95.136C103.543 95.136 103.985 95.227 104.367 95.409V95.292C104.367 95.032 104.427 94.8153 104.549 94.642C104.67 94.4687 104.878 94.382 105.173 94.382H106.408V95.292H104.9V95.747C105.142 95.955 105.329 96.202 105.459 96.488C105.589 96.774 105.654 97.0947 105.654 97.45C105.654 97.788 105.589 98.1 105.459 98.386C105.337 98.672 105.164 98.919 104.939 99.127C104.713 99.3263 104.436 99.4823 104.107 99.595C103.786 99.7077 103.431 99.764 103.041 99.764C102.928 99.764 102.82 99.7597 102.716 99.751C102.612 99.7423 102.508 99.7293 102.404 99.712C102.3 99.7293 102.191 99.7597 102.079 99.803C101.966 99.8377 101.862 99.8897 101.767 99.959C101.671 100.02 101.593 100.093 101.533 100.18C101.472 100.267 101.442 100.366 101.442 100.479C101.442 100.678 101.541 100.813 101.741 100.882C101.94 100.943 102.2 100.973 102.521 100.973H104.003C104.869 100.973 105.498 101.138 105.888 101.467C106.278 101.788 106.473 102.221 106.473 102.767ZM105.498 102.819C105.498 102.55 105.389 102.334 105.173 102.169C104.956 102.013 104.579 101.935 104.042 101.935H101.715C101.264 102.117 101.039 102.42 101.039 102.845C101.039 103.14 101.156 103.391 101.39 103.599C101.624 103.816 102.014 103.924 102.56 103.924H103.574C104.18 103.924 104.653 103.829 104.991 103.638C105.329 103.456 105.498 103.183 105.498 102.819ZM103.041 98.958C103.561 98.958 103.942 98.8367 104.185 98.594C104.436 98.3513 104.562 98.0307 104.562 97.632V97.255C104.562 96.8563 104.436 96.54 104.185 96.306C103.942 96.0633 103.561 95.942 103.041 95.942C102.521 95.942 102.139 96.0633 101.897 96.306C101.654 96.54 101.533 96.8563 101.533 97.255V97.632C101.533 98.0307 101.654 98.3513 101.897 98.594C102.139 98.8367 102.521 98.958 103.041 98.958ZM110.992 102.156C110.506 102.156 110.069 102.074 109.679 101.909C109.297 101.744 108.968 101.51 108.691 101.207C108.422 100.895 108.214 100.527 108.067 100.102C107.919 99.6687 107.846 99.1877 107.846 98.659C107.846 98.1217 107.919 97.6363 108.067 97.203C108.223 96.7697 108.435 96.4013 108.704 96.098C108.972 95.786 109.293 95.5477 109.666 95.383C110.047 95.2183 110.467 95.136 110.927 95.136C111.377 95.136 111.785 95.2183 112.149 95.383C112.521 95.5477 112.838 95.7773 113.098 96.072C113.358 96.358 113.557 96.7003 113.696 97.099C113.834 97.4977 113.904 97.9353 113.904 98.412V98.906H108.938V99.218C108.938 99.5127 108.985 99.7857 109.081 100.037C109.176 100.288 109.31 100.505 109.484 100.687C109.666 100.869 109.882 101.012 110.134 101.116C110.394 101.211 110.68 101.259 110.992 101.259C111.442 101.259 111.832 101.155 112.162 100.947C112.491 100.739 112.742 100.453 112.916 100.089L113.683 100.609C113.483 101.06 113.15 101.432 112.682 101.727C112.222 102.013 111.659 102.156 110.992 102.156ZM110.927 95.994C110.641 95.994 110.376 96.046 110.134 96.15C109.891 96.254 109.679 96.397 109.497 96.579C109.323 96.761 109.185 96.9777 109.081 97.229C108.985 97.4717 108.938 97.7403 108.938 98.035V98.126H112.786V97.983C112.786 97.6883 112.738 97.4197 112.643 97.177C112.556 96.9343 112.43 96.7263 112.266 96.553C112.11 96.371 111.915 96.2323 111.681 96.137C111.455 96.0417 111.204 95.994 110.927 95.994Z" fill="black"/>
<path d="M364.5 75.5H455.5C465.993 75.5 474.5 84.0066 474.5 94.5C474.5 104.993 465.993 113.5 455.5 113.5H364.5C354.007 113.5 345.5 104.993 345.5 94.5C345.5 84.0066 354.007 75.5 364.5 75.5Z" fill="#C7E0EC" stroke="#CCCCCC"/>
<path d="M365.086 99L364.319 96.413H361.134L360.367 99H359.236L362.018 89.926H363.461L366.243 99H365.086ZM362.785 91.083H362.668L361.394 95.464H364.059L362.785 91.083ZM372.153 97.908H372.101C371.668 98.74 370.979 99.156 370.034 99.156C369.211 99.156 368.565 98.8483 368.097 98.233C367.638 97.6177 367.408 96.7553 367.408 95.646C367.408 94.5367 367.638 93.6743 368.097 93.059C368.565 92.4437 369.211 92.136 370.034 92.136C370.979 92.136 371.668 92.552 372.101 93.384H372.153V89.38H373.193V99H372.153V97.908ZM370.437 98.233C370.671 98.233 370.892 98.2027 371.1 98.142C371.308 98.0813 371.49 97.9947 371.646 97.882C371.802 97.7607 371.923 97.6177 372.01 97.453C372.105 97.2797 372.153 97.0803 372.153 96.855V94.437C372.153 94.2117 372.105 94.0167 372.01 93.852C371.923 93.6787 371.802 93.5357 371.646 93.423C371.49 93.3017 371.308 93.2107 371.1 93.15C370.892 93.0893 370.671 93.059 370.437 93.059C369.83 93.059 369.358 93.2453 369.02 93.618C368.691 93.982 368.526 94.4673 368.526 95.074V96.218C368.526 96.8247 368.691 97.3143 369.02 97.687C369.358 98.051 369.83 98.233 370.437 98.233ZM379.948 97.908H379.896C379.463 98.74 378.774 99.156 377.829 99.156C377.006 99.156 376.36 98.8483 375.892 98.233C375.433 97.6177 375.203 96.7553 375.203 95.646C375.203 94.5367 375.433 93.6743 375.892 93.059C376.36 92.4437 377.006 92.136 377.829 92.136C378.774 92.136 379.463 92.552 379.896 93.384H379.948V89.38H380.988V99H379.948V97.908ZM378.232 98.233C378.466 98.233 378.687 98.2027 378.895 98.142C379.103 98.0813 379.285 97.9947 379.441 97.882C379.597 97.7607 379.718 97.6177 379.805 97.453C379.9 97.2797 379.948 97.0803 379.948 96.855V94.437C379.948 94.2117 379.9 94.0167 379.805 93.852C379.718 93.6787 379.597 93.5357 379.441 93.423C379.285 93.3017 379.103 93.2107 378.895 93.15C378.687 93.0893 378.466 93.059 378.232 93.059C377.625 93.059 377.153 93.2453 376.815 93.618C376.486 93.982 376.321 94.4673 376.321 95.074V96.218C376.321 96.8247 376.486 97.3143 376.815 97.687C377.153 98.051 377.625 98.233 378.232 98.233ZM394.459 90.875V99H393.367V90.875H390.338V89.926H397.488V90.875H394.459ZM401.708 99.156C401.24 99.156 400.815 99.0737 400.434 98.909C400.061 98.7443 399.74 98.5103 399.472 98.207C399.212 97.895 399.012 97.5267 398.874 97.102C398.735 96.6687 398.666 96.1833 398.666 95.646C398.666 95.1173 398.735 94.6363 398.874 94.203C399.012 93.7697 399.212 93.4013 399.472 93.098C399.74 92.786 400.061 92.5477 400.434 92.383C400.815 92.2183 401.24 92.136 401.708 92.136C402.176 92.136 402.596 92.2183 402.969 92.383C403.35 92.5477 403.671 92.786 403.931 93.098C404.199 93.4013 404.403 93.7697 404.542 94.203C404.68 94.6363 404.75 95.1173 404.75 95.646C404.75 96.1833 404.68 96.6687 404.542 97.102C404.403 97.5267 404.199 97.895 403.931 98.207C403.671 98.5103 403.35 98.7443 402.969 98.909C402.596 99.0737 402.176 99.156 401.708 99.156ZM401.708 98.259C402.288 98.259 402.756 98.0857 403.112 97.739C403.467 97.3923 403.645 96.855 403.645 96.127V95.165C403.645 94.437 403.467 93.8997 403.112 93.553C402.756 93.2063 402.288 93.033 401.708 93.033C401.127 93.033 400.659 93.2063 400.304 93.553C399.948 93.8997 399.771 94.437 399.771 95.165V96.127C399.771 96.855 399.948 97.3923 400.304 97.739C400.659 98.0857 401.127 98.259 401.708 98.259ZM414.541 89.926H417.622C418.402 89.926 419.013 90.1383 419.455 90.563C419.897 90.9877 420.118 91.5553 420.118 92.266C420.118 92.812 419.984 93.241 419.715 93.553C419.455 93.865 419.117 94.086 418.701 94.216V94.255C419.213 94.3763 419.633 94.606 419.962 94.944C420.292 95.2733 420.456 95.7543 420.456 96.387C420.456 96.751 420.396 97.0933 420.274 97.414C420.153 97.7347 419.98 98.012 419.754 98.246C419.538 98.48 419.278 98.6663 418.974 98.805C418.68 98.935 418.359 99 418.012 99H414.541V89.926ZM417.687 98.051C418.19 98.051 418.584 97.9383 418.87 97.713C419.156 97.4877 419.299 97.141 419.299 96.673V96.14C419.299 95.6807 419.156 95.3383 418.87 95.113C418.584 94.879 418.19 94.762 417.687 94.762H415.633V98.051H417.687ZM417.505 93.865C417.965 93.865 418.324 93.7653 418.584 93.566C418.844 93.358 418.974 93.046 418.974 92.63V92.123C418.974 91.707 418.844 91.395 418.584 91.187C418.324 90.979 417.965 90.875 417.505 90.875H415.633V93.865H417.505ZM427.627 99C427.22 99 426.93 98.896 426.756 98.688C426.583 98.48 426.475 98.22 426.431 97.908H426.366C426.219 98.298 425.981 98.6057 425.651 98.831C425.331 99.0477 424.897 99.156 424.351 99.156C423.649 99.156 423.09 98.974 422.674 98.61C422.258 98.246 422.05 97.7477 422.05 97.115C422.05 96.491 422.276 96.01 422.726 95.672C423.186 95.334 423.922 95.165 424.936 95.165H426.366V94.502C426.366 94.008 426.228 93.6397 425.95 93.397C425.673 93.1457 425.279 93.02 424.767 93.02C424.317 93.02 423.948 93.111 423.662 93.293C423.376 93.4663 423.147 93.7047 422.973 94.008L422.271 93.488C422.358 93.3147 422.475 93.1457 422.622 92.981C422.77 92.8163 422.952 92.6733 423.168 92.552C423.385 92.422 423.632 92.3223 423.909 92.253C424.187 92.175 424.494 92.136 424.832 92.136C425.621 92.136 426.245 92.3353 426.704 92.734C427.172 93.1327 427.406 93.6873 427.406 94.398V98.09H428.342V99H427.627ZM424.533 98.285C424.802 98.285 425.045 98.2547 425.261 98.194C425.487 98.1247 425.682 98.038 425.846 97.934C426.011 97.8213 426.137 97.6913 426.223 97.544C426.319 97.388 426.366 97.2233 426.366 97.05V95.945H424.936C424.312 95.945 423.857 96.0317 423.571 96.205C423.285 96.3783 423.142 96.6297 423.142 96.959V97.232C423.142 97.5787 423.264 97.843 423.506 98.025C423.758 98.1983 424.1 98.285 424.533 98.285ZM432.965 99.156C432.263 99.156 431.657 99.039 431.145 98.805C430.643 98.5623 430.214 98.2417 429.858 97.843L430.56 97.232C430.881 97.57 431.232 97.83 431.613 98.012C431.995 98.194 432.454 98.285 432.991 98.285C433.511 98.285 433.936 98.194 434.265 98.012C434.603 97.8213 434.772 97.5267 434.772 97.128C434.772 96.9547 434.738 96.8117 434.668 96.699C434.608 96.5777 434.521 96.4823 434.408 96.413C434.296 96.3437 434.17 96.2917 434.031 96.257C433.893 96.2137 433.745 96.179 433.589 96.153L432.536 95.997C432.302 95.9623 432.047 95.9147 431.769 95.854C431.501 95.7933 431.254 95.698 431.028 95.568C430.803 95.4293 430.612 95.2473 430.456 95.022C430.309 94.7967 430.235 94.502 430.235 94.138C430.235 93.8 430.3 93.5097 430.43 93.267C430.569 93.0157 430.76 92.8077 431.002 92.643C431.245 92.4697 431.531 92.344 431.86 92.266C432.19 92.1793 432.549 92.136 432.939 92.136C433.546 92.136 434.07 92.2313 434.512 92.422C434.963 92.6127 435.349 92.877 435.669 93.215L434.993 93.852C434.915 93.7567 434.816 93.6613 434.694 93.566C434.582 93.462 434.439 93.371 434.265 93.293C434.101 93.2063 433.906 93.137 433.68 93.085C433.455 93.033 433.195 93.007 432.9 93.007C432.372 93.007 431.964 93.098 431.678 93.28C431.401 93.462 431.262 93.7263 431.262 94.073C431.262 94.2463 431.293 94.3937 431.353 94.515C431.423 94.6277 431.514 94.7187 431.626 94.788C431.739 94.8573 431.865 94.9137 432.003 94.957C432.151 94.9917 432.298 95.022 432.445 95.048L433.498 95.204C433.741 95.2387 433.997 95.2863 434.265 95.347C434.534 95.4077 434.781 95.5073 435.006 95.646C435.232 95.776 435.418 95.9537 435.565 96.179C435.721 96.4043 435.799 96.699 435.799 97.063C435.799 97.7303 435.539 98.246 435.019 98.61C434.508 98.974 433.823 99.156 432.965 99.156ZM438.147 89.38H439.187V95.451H439.239L440.409 94.346L442.645 92.292H443.919L441.137 94.918L444.244 99H442.957L440.344 95.516L439.187 96.569V99H438.147V89.38ZM448.594 99.156C448.109 99.156 447.671 99.0737 447.281 98.909C446.9 98.7443 446.57 98.5103 446.293 98.207C446.024 97.895 445.816 97.5267 445.669 97.102C445.522 96.6687 445.448 96.1877 445.448 95.659C445.448 95.1217 445.522 94.6363 445.669 94.203C445.825 93.7697 446.037 93.4013 446.306 93.098C446.575 92.786 446.895 92.5477 447.268 92.383C447.649 92.2183 448.07 92.136 448.529 92.136C448.98 92.136 449.387 92.2183 449.751 92.383C450.124 92.5477 450.44 92.7773 450.7 93.072C450.96 93.358 451.159 93.7003 451.298 94.099C451.437 94.4977 451.506 94.9353 451.506 95.412V95.906H446.54V96.218C446.54 96.5127 446.588 96.7857 446.683 97.037C446.778 97.2883 446.913 97.505 447.086 97.687C447.268 97.869 447.485 98.012 447.736 98.116C447.996 98.2113 448.282 98.259 448.594 98.259C449.045 98.259 449.435 98.155 449.764 97.947C450.093 97.739 450.345 97.453 450.518 97.089L451.285 97.609C451.086 98.0597 450.752 98.4323 450.284 98.727C449.825 99.013 449.261 99.156 448.594 99.156ZM448.529 92.994C448.243 92.994 447.979 93.046 447.736 93.15C447.493 93.254 447.281 93.397 447.099 93.579C446.926 93.761 446.787 93.9777 446.683 94.229C446.588 94.4717 446.54 94.7403 446.54 95.035V95.126H450.388V94.983C450.388 94.6883 450.34 94.4197 450.245 94.177C450.158 93.9343 450.033 93.7263 449.868 93.553C449.712 93.371 449.517 93.2323 449.283 93.137C449.058 93.0417 448.806 92.994 448.529 92.994ZM456.597 99C456.086 99 455.709 98.857 455.466 98.571C455.232 98.285 455.115 97.9167 455.115 97.466V93.176H452.879V92.292H454.543C454.768 92.292 454.924 92.2487 455.011 92.162C455.106 92.0667 455.154 91.9063 455.154 91.681V89.926H456.155V92.292H459.21V93.176H456.155V98.116H459.21V99H456.597Z" fill="black"/>
<rect x="510.5" y="0.5" width="135" height="182" rx="4.5" fill="white" stroke="#CCCCCC"/>
<path d="M513 17H643V174C643 176.761 640.761 179 638 179H518C515.239 179 513 176.761 513 174V17Z" fill="#C7E0EC"/>
<circle cx="516.5" cy="9.5" r="2.5" fill="#C7E0EC"/>
<circle cx="525.5" cy="9.5" r="2.5" fill="#C7E0EC"/>
<circle cx="534.5" cy="9.5" r="2.5" fill="#C7E0EC"/>
<path d="M541.287 102H540.195V92.926H543.497C544.338 92.926 544.979 93.1557 545.421 93.615C545.863 94.0743 546.084 94.7157 546.084 95.539C546.084 96.2757 545.894 96.865 545.512 97.307C545.131 97.749 544.576 98.0047 543.848 98.074L546.162 102H544.94L542.73 98.126H541.287V102ZM543.471 97.203C543.931 97.203 544.286 97.0903 544.537 96.865C544.797 96.631 544.927 96.3017 544.927 95.877V95.201C544.927 94.7763 544.797 94.4513 544.537 94.226C544.286 93.992 543.931 93.875 543.471 93.875H541.287V97.203H543.471ZM550.837 102.156C550.352 102.156 549.914 102.074 549.524 101.909C549.143 101.744 548.814 101.51 548.536 101.207C548.268 100.895 548.06 100.527 547.912 100.102C547.765 99.6687 547.691 99.1877 547.691 98.659C547.691 98.1217 547.765 97.6363 547.912 97.203C548.068 96.7697 548.281 96.4013 548.549 96.098C548.818 95.786 549.139 95.5477 549.511 95.383C549.893 95.2183 550.313 95.136 550.772 95.136C551.223 95.136 551.63 95.2183 551.994 95.383C552.367 95.5477 552.683 95.7773 552.943 96.072C553.203 96.358 553.403 96.7003 553.541 97.099C553.68 97.4977 553.749 97.9353 553.749 98.412V98.906H548.783V99.218C548.783 99.5127 548.831 99.7857 548.926 100.037C549.022 100.288 549.156 100.505 549.329 100.687C549.511 100.869 549.728 101.012 549.979 101.116C550.239 101.211 550.525 101.259 550.837 101.259C551.288 101.259 551.678 101.155 552.007 100.947C552.337 100.739 552.588 100.453 552.761 100.089L553.528 100.609C553.329 101.06 552.995 101.432 552.527 101.727C552.068 102.013 551.505 102.156 550.837 102.156ZM550.772 95.994C550.486 95.994 550.222 96.046 549.979 96.15C549.737 96.254 549.524 96.397 549.342 96.579C549.169 96.761 549.03 96.9777 548.926 97.229C548.831 97.4717 548.783 97.7403 548.783 98.035V98.126H552.631V97.983C552.631 97.6883 552.584 97.4197 552.488 97.177C552.402 96.9343 552.276 96.7263 552.111 96.553C551.955 96.371 551.76 96.2323 551.526 96.137C551.301 96.0417 551.05 95.994 550.772 95.994ZM558.84 102C558.329 102 557.952 101.857 557.709 101.571C557.475 101.285 557.358 100.917 557.358 100.466V96.176H555.122V95.292H556.786C557.012 95.292 557.168 95.2487 557.254 95.162C557.35 95.0667 557.397 94.9063 557.397 94.681V92.926H558.398V95.292H561.453V96.176H558.398V101.116H561.453V102H558.84ZM567.896 100.908H567.844C567.775 101.073 567.688 101.233 567.584 101.389C567.48 101.536 567.35 101.666 567.194 101.779C567.047 101.892 566.869 101.983 566.661 102.052C566.453 102.121 566.21 102.156 565.933 102.156C565.231 102.156 564.668 101.935 564.243 101.493C563.818 101.042 563.606 100.41 563.606 99.595V95.292H564.646V99.413C564.646 100.028 564.78 100.488 565.049 100.791C565.318 101.086 565.712 101.233 566.232 101.233C566.44 101.233 566.644 101.207 566.843 101.155C567.042 101.103 567.22 101.025 567.376 100.921C567.532 100.817 567.658 100.687 567.753 100.531C567.848 100.366 567.896 100.171 567.896 99.946V95.292H568.936V102H567.896V100.908ZM571.206 101.116H573.169V96.176H571.206V95.292H574.209V96.982H574.274C574.413 96.4533 574.673 96.0417 575.054 95.747C575.444 95.4437 575.938 95.292 576.536 95.292H577.472V96.332H576.211C575.613 96.332 575.128 96.5053 574.755 96.852C574.391 97.1987 574.209 97.6537 574.209 98.217V101.116H576.809V102H571.206V101.116ZM579.274 102V95.292H580.314V96.384H580.366C580.435 96.2193 580.522 96.0633 580.626 95.916C580.73 95.76 580.856 95.6257 581.003 95.513C581.159 95.4003 581.341 95.3093 581.549 95.24C581.757 95.1707 582 95.136 582.277 95.136C582.979 95.136 583.542 95.3613 583.967 95.812C584.392 96.254 584.604 96.8823 584.604 97.697V102H583.564V97.879C583.564 97.2637 583.43 96.8087 583.161 96.514C582.892 96.2107 582.498 96.059 581.978 96.059C581.77 96.059 581.566 96.085 581.367 96.137C581.168 96.189 580.99 96.267 580.834 96.371C580.678 96.475 580.552 96.6093 580.457 96.774C580.362 96.9387 580.314 97.1293 580.314 97.346V102H579.274ZM597.815 102C597.304 102 596.927 101.857 596.684 101.571C596.45 101.285 596.333 100.917 596.333 100.466V96.176H594.097V95.292H595.761C595.986 95.292 596.142 95.2487 596.229 95.162C596.324 95.0667 596.372 94.9063 596.372 94.681V92.926H597.373V95.292H600.428V96.176H597.373V101.116H600.428V102H597.815ZM605.285 102.156C604.817 102.156 604.392 102.074 604.011 101.909C603.638 101.744 603.317 101.51 603.049 101.207C602.789 100.895 602.589 100.527 602.451 100.102C602.312 99.6687 602.243 99.1833 602.243 98.646C602.243 98.1173 602.312 97.6363 602.451 97.203C602.589 96.7697 602.789 96.4013 603.049 96.098C603.317 95.786 603.638 95.5477 604.011 95.383C604.392 95.2183 604.817 95.136 605.285 95.136C605.753 95.136 606.173 95.2183 606.546 95.383C606.927 95.5477 607.248 95.786 607.508 96.098C607.776 96.4013 607.98 96.7697 608.119 97.203C608.257 97.6363 608.327 98.1173 608.327 98.646C608.327 99.1833 608.257 99.6687 608.119 100.102C607.98 100.527 607.776 100.895 607.508 101.207C607.248 101.51 606.927 101.744 606.546 101.909C606.173 102.074 605.753 102.156 605.285 102.156ZM605.285 101.259C605.865 101.259 606.333 101.086 606.689 100.739C607.044 100.392 607.222 99.855 607.222 99.127V98.165C607.222 97.437 607.044 96.8997 606.689 96.553C606.333 96.2063 605.865 96.033 605.285 96.033C604.704 96.033 604.236 96.2063 603.881 96.553C603.525 96.8997 603.348 97.437 603.348 98.165V99.127C603.348 99.855 603.525 100.392 603.881 100.739C604.236 101.086 604.704 101.259 605.285 101.259ZM532.4 119V109.926H535.702C536.543 109.926 537.184 110.156 537.626 110.615C538.068 111.074 538.289 111.716 538.289 112.539C538.289 113.362 538.068 114.004 537.626 114.463C537.184 114.922 536.543 115.152 535.702 115.152H533.492V119H532.4ZM533.492 114.203H535.676C536.136 114.203 536.491 114.09 536.742 113.865C537.002 113.631 537.132 113.302 537.132 112.877V112.201C537.132 111.776 537.002 111.451 536.742 111.226C536.491 110.992 536.136 110.875 535.676 110.875H533.492V114.203ZM540.026 118.116H541.989V113.176H540.026V112.292H543.029V113.982H543.094C543.233 113.453 543.493 113.042 543.874 112.747C544.264 112.444 544.758 112.292 545.356 112.292H546.292V113.332H545.031C544.433 113.332 543.948 113.505 543.575 113.852C543.211 114.199 543.029 114.654 543.029 115.217V118.116H545.629V119H540.026V118.116ZM550.72 119.156C550.252 119.156 549.828 119.074 549.446 118.909C549.074 118.744 548.753 118.51 548.484 118.207C548.224 117.895 548.025 117.527 547.886 117.102C547.748 116.669 547.678 116.183 547.678 115.646C547.678 115.117 547.748 114.636 547.886 114.203C548.025 113.77 548.224 113.401 548.484 113.098C548.753 112.786 549.074 112.548 549.446 112.383C549.828 112.218 550.252 112.136 550.72 112.136C551.188 112.136 551.609 112.218 551.981 112.383C552.363 112.548 552.683 112.786 552.943 113.098C553.212 113.401 553.416 113.77 553.554 114.203C553.693 114.636 553.762 115.117 553.762 115.646C553.762 116.183 553.693 116.669 553.554 117.102C553.416 117.527 553.212 117.895 552.943 118.207C552.683 118.51 552.363 118.744 551.981 118.909C551.609 119.074 551.188 119.156 550.72 119.156ZM550.72 118.259C551.301 118.259 551.769 118.086 552.124 117.739C552.48 117.392 552.657 116.855 552.657 116.127V115.165C552.657 114.437 552.48 113.9 552.124 113.553C551.769 113.206 551.301 113.033 550.72 113.033C550.14 113.033 549.672 113.206 549.316 113.553C548.961 113.9 548.783 114.437 548.783 115.165V116.127C548.783 116.855 548.961 117.392 549.316 117.739C549.672 118.086 550.14 118.259 550.72 118.259ZM560.14 117.908H560.088C559.655 118.74 558.966 119.156 558.021 119.156C557.198 119.156 556.552 118.848 556.084 118.233C555.625 117.618 555.395 116.755 555.395 115.646C555.395 114.537 555.625 113.674 556.084 113.059C556.552 112.444 557.198 112.136 558.021 112.136C558.966 112.136 559.655 112.552 560.088 113.384H560.14V109.38H561.18V119H560.14V117.908ZM558.424 118.233C558.658 118.233 558.879 118.203 559.087 118.142C559.295 118.081 559.477 117.995 559.633 117.882C559.789 117.761 559.911 117.618 559.997 117.453C560.093 117.28 560.14 117.08 560.14 116.855V114.437C560.14 114.212 560.093 114.017 559.997 113.852C559.911 113.679 559.789 113.536 559.633 113.423C559.477 113.302 559.295 113.211 559.087 113.15C558.879 113.089 558.658 113.059 558.424 113.059C557.818 113.059 557.345 113.245 557.007 113.618C556.678 113.982 556.513 114.467 556.513 115.074V116.218C556.513 116.825 556.678 117.314 557.007 117.687C557.345 118.051 557.818 118.233 558.424 118.233ZM567.896 117.908H567.844C567.775 118.073 567.688 118.233 567.584 118.389C567.48 118.536 567.35 118.666 567.194 118.779C567.047 118.892 566.869 118.983 566.661 119.052C566.453 119.121 566.21 119.156 565.933 119.156C565.231 119.156 564.668 118.935 564.243 118.493C563.818 118.042 563.606 117.41 563.606 116.595V112.292H564.646V116.413C564.646 117.028 564.78 117.488 565.049 117.791C565.318 118.086 565.712 118.233 566.232 118.233C566.44 118.233 566.644 118.207 566.843 118.155C567.042 118.103 567.22 118.025 567.376 117.921C567.532 117.817 567.658 117.687 567.753 117.531C567.848 117.366 567.896 117.171 567.896 116.946V112.292H568.936V119H567.896V117.908ZM574.339 119.156C573.854 119.156 573.42 119.074 573.039 118.909C572.666 118.736 572.35 118.497 572.09 118.194C571.83 117.891 571.631 117.522 571.492 117.089C571.362 116.656 571.297 116.175 571.297 115.646C571.297 115.117 571.366 114.636 571.505 114.203C571.644 113.77 571.843 113.401 572.103 113.098C572.363 112.786 572.679 112.548 573.052 112.383C573.425 112.218 573.849 112.136 574.326 112.136C574.976 112.136 575.505 112.279 575.912 112.565C576.319 112.851 576.618 113.224 576.809 113.683L575.977 114.125C575.856 113.778 575.652 113.51 575.366 113.319C575.089 113.128 574.742 113.033 574.326 113.033C574.023 113.033 573.75 113.085 573.507 113.189C573.273 113.284 573.074 113.423 572.909 113.605C572.744 113.787 572.619 114.004 572.532 114.255C572.454 114.506 572.415 114.779 572.415 115.074V116.218C572.415 116.513 572.454 116.786 572.532 117.037C572.619 117.288 572.744 117.505 572.909 117.687C573.074 117.869 573.277 118.012 573.52 118.116C573.763 118.211 574.04 118.259 574.352 118.259C574.803 118.259 575.175 118.155 575.47 117.947C575.765 117.739 575.999 117.453 576.172 117.089L576.913 117.596C576.714 118.047 576.402 118.419 575.977 118.714C575.561 119.009 575.015 119.156 574.339 119.156ZM582.225 119C581.714 119 581.337 118.857 581.094 118.571C580.86 118.285 580.743 117.917 580.743 117.466V113.176H578.507V112.292H580.171C580.396 112.292 580.552 112.249 580.639 112.162C580.734 112.067 580.782 111.906 580.782 111.681V109.926H581.783V112.292H584.838V113.176H581.783V118.116H584.838V119H582.225ZM594.76 119V109.926H598.062C598.903 109.926 599.544 110.156 599.986 110.615C600.428 111.074 600.649 111.716 600.649 112.539C600.649 113.362 600.428 114.004 599.986 114.463C599.544 114.922 598.903 115.152 598.062 115.152H595.852V119H594.76ZM595.852 114.203H598.036C598.495 114.203 598.851 114.09 599.102 113.865C599.362 113.631 599.492 113.302 599.492 112.877V112.201C599.492 111.776 599.362 111.451 599.102 111.226C598.851 110.992 598.495 110.875 598.036 110.875H595.852V114.203ZM607.82 119C607.412 119 607.122 118.896 606.949 118.688C606.775 118.48 606.667 118.22 606.624 117.908H606.559C606.411 118.298 606.173 118.606 605.844 118.831C605.523 119.048 605.09 119.156 604.544 119.156C603.842 119.156 603.283 118.974 602.867 118.61C602.451 118.246 602.243 117.748 602.243 117.115C602.243 116.491 602.468 116.01 602.919 115.672C603.378 115.334 604.115 115.165 605.129 115.165H606.559V114.502C606.559 114.008 606.42 113.64 606.143 113.397C605.865 113.146 605.471 113.02 604.96 113.02C604.509 113.02 604.141 113.111 603.855 113.293C603.569 113.466 603.339 113.705 603.166 114.008L602.464 113.488C602.55 113.315 602.667 113.146 602.815 112.981C602.962 112.816 603.144 112.673 603.361 112.552C603.577 112.422 603.824 112.322 604.102 112.253C604.379 112.175 604.687 112.136 605.025 112.136C605.813 112.136 606.437 112.335 606.897 112.734C607.365 113.133 607.599 113.687 607.599 114.398V118.09H608.535V119H607.82ZM604.726 118.285C604.994 118.285 605.237 118.255 605.454 118.194C605.679 118.125 605.874 118.038 606.039 117.934C606.203 117.821 606.329 117.691 606.416 117.544C606.511 117.388 606.559 117.223 606.559 117.05V115.945H605.129C604.505 115.945 604.05 116.032 603.764 116.205C603.478 116.378 603.335 116.63 603.335 116.959V117.232C603.335 117.579 603.456 117.843 603.699 118.025C603.95 118.198 604.292 118.285 604.726 118.285ZM616.473 119.767C616.473 120.443 616.191 120.941 615.628 121.262C615.064 121.591 614.219 121.756 613.093 121.756C612.009 121.756 611.229 121.613 610.753 121.327C610.285 121.041 610.051 120.629 610.051 120.092C610.051 119.728 610.146 119.446 610.337 119.247C610.527 119.048 610.796 118.9 611.143 118.805V118.649C610.952 118.554 610.805 118.432 610.701 118.285C610.597 118.138 610.545 117.951 610.545 117.726C610.545 117.379 610.657 117.119 610.883 116.946C611.117 116.773 611.407 116.643 611.754 116.556V116.504C611.338 116.322 611.013 116.053 610.779 115.698C610.553 115.343 610.441 114.927 610.441 114.45C610.441 114.112 610.501 113.8 610.623 113.514C610.744 113.228 610.917 112.985 611.143 112.786C611.377 112.578 611.654 112.418 611.975 112.305C612.295 112.192 612.651 112.136 613.041 112.136C613.543 112.136 613.985 112.227 614.367 112.409V112.292C614.367 112.032 614.427 111.815 614.549 111.642C614.67 111.469 614.878 111.382 615.173 111.382H616.408V112.292H614.9V112.747C615.142 112.955 615.329 113.202 615.459 113.488C615.589 113.774 615.654 114.095 615.654 114.45C615.654 114.788 615.589 115.1 615.459 115.386C615.337 115.672 615.164 115.919 614.939 116.127C614.713 116.326 614.436 116.482 614.107 116.595C613.786 116.708 613.431 116.764 613.041 116.764C612.928 116.764 612.82 116.76 612.716 116.751C612.612 116.742 612.508 116.729 612.404 116.712C612.3 116.729 612.191 116.76 612.079 116.803C611.966 116.838 611.862 116.89 611.767 116.959C611.671 117.02 611.593 117.093 611.533 117.18C611.472 117.267 611.442 117.366 611.442 117.479C611.442 117.678 611.541 117.813 611.741 117.882C611.94 117.943 612.2 117.973 612.521 117.973H614.003C614.869 117.973 615.498 118.138 615.888 118.467C616.278 118.788 616.473 119.221 616.473 119.767ZM615.498 119.819C615.498 119.55 615.389 119.334 615.173 119.169C614.956 119.013 614.579 118.935 614.042 118.935H611.715C611.264 119.117 611.039 119.42 611.039 119.845C611.039 120.14 611.156 120.391 611.39 120.599C611.624 120.816 612.014 120.924 612.56 120.924H613.574C614.18 120.924 614.653 120.829 614.991 120.638C615.329 120.456 615.498 120.183 615.498 119.819ZM613.041 115.958C613.561 115.958 613.942 115.837 614.185 115.594C614.436 115.351 614.562 115.031 614.562 114.632V114.255C614.562 113.856 614.436 113.54 614.185 113.306C613.942 113.063 613.561 112.942 613.041 112.942C612.521 112.942 612.139 113.063 611.897 113.306C611.654 113.54 611.533 113.856 611.533 114.255V114.632C611.533 115.031 611.654 115.351 611.897 115.594C612.139 115.837 612.521 115.958 613.041 115.958ZM620.992 119.156C620.506 119.156 620.069 119.074 619.679 118.909C619.297 118.744 618.968 118.51 618.691 118.207C618.422 117.895 618.214 117.527 618.067 117.102C617.919 116.669 617.846 116.188 617.846 115.659C617.846 115.122 617.919 114.636 618.067 114.203C618.223 113.77 618.435 113.401 618.704 113.098C618.972 112.786 619.293 112.548 619.666 112.383C620.047 112.218 620.467 112.136 620.927 112.136C621.377 112.136 621.785 112.218 622.149 112.383C622.521 112.548 622.838 112.777 623.098 113.072C623.358 113.358 623.557 113.7 623.696 114.099C623.834 114.498 623.904 114.935 623.904 115.412V115.906H618.938V116.218C618.938 116.513 618.985 116.786 619.081 117.037C619.176 117.288 619.31 117.505 619.484 117.687C619.666 117.869 619.882 118.012 620.134 118.116C620.394 118.211 620.68 118.259 620.992 118.259C621.442 118.259 621.832 118.155 622.162 117.947C622.491 117.739 622.742 117.453 622.916 117.089L623.683 117.609C623.483 118.06 623.15 118.432 622.682 118.727C622.222 119.013 621.659 119.156 620.992 119.156ZM620.927 112.994C620.641 112.994 620.376 113.046 620.134 113.15C619.891 113.254 619.679 113.397 619.497 113.579C619.323 113.761 619.185 113.978 619.081 114.229C618.985 114.472 618.938 114.74 618.938 115.035V115.126H622.786V114.983C622.786 114.688 622.738 114.42 622.643 114.177C622.556 113.934 622.43 113.726 622.266 113.553C622.11 113.371 621.915 113.232 621.681 113.137C621.455 113.042 621.204 112.994 620.927 112.994Z" fill="black"/>
<path d="M173 44.5H305C307.485 44.5 309.5 46.5147 309.5 49V139C309.5 141.485 307.485 143.5 305 143.5H173C170.515 143.5 168.5 141.485 168.5 139V49C168.5 46.5147 170.515 44.5 173 44.5Z" fill="#C7E0EC" stroke="#CCCCCC"/>
<path d="M185.237 93.156C184.128 93.156 183.3 92.753 182.754 91.947C182.217 91.141 181.948 89.9797 181.948 88.463C181.948 86.9463 182.217 85.785 182.754 84.979C183.3 84.173 184.128 83.77 185.237 83.77C185.653 83.77 186.013 83.8263 186.316 83.939C186.619 84.0517 186.879 84.2033 187.096 84.394C187.313 84.5847 187.495 84.8013 187.642 85.044C187.789 85.278 187.919 85.5163 188.032 85.759L187.096 86.188C187.018 85.9887 186.927 85.8023 186.823 85.629C186.719 85.447 186.593 85.291 186.446 85.161C186.307 85.0223 186.138 84.914 185.939 84.836C185.748 84.758 185.514 84.719 185.237 84.719C184.518 84.719 183.98 84.992 183.625 85.538C183.278 86.084 183.105 86.812 183.105 87.722V89.204C183.105 90.114 183.278 90.842 183.625 91.388C183.98 91.934 184.518 92.207 185.237 92.207C185.514 92.207 185.748 92.168 185.939 92.09C186.138 92.012 186.307 91.908 186.446 91.778C186.593 91.6393 186.719 91.4833 186.823 91.31C186.927 91.128 187.018 90.9373 187.096 90.738L188.032 91.167C187.919 91.4183 187.789 91.661 187.642 91.895C187.495 92.129 187.313 92.3413 187.096 92.532C186.879 92.7227 186.619 92.8743 186.316 92.987C186.013 93.0997 185.653 93.156 185.237 93.156ZM189.873 92.116H192.213V84.264H189.873V83.38H193.253V92.116H195.593V93H189.873V92.116ZM200.944 84.81C200.641 84.81 200.428 84.7493 200.307 84.628C200.186 84.498 200.125 84.3377 200.125 84.147V83.939C200.125 83.7483 200.186 83.5923 200.307 83.471C200.428 83.341 200.641 83.276 200.944 83.276C201.247 83.276 201.46 83.341 201.581 83.471C201.702 83.5923 201.763 83.7483 201.763 83.939V84.147C201.763 84.3377 201.702 84.498 201.581 84.628C201.46 84.7493 201.247 84.81 200.944 84.81ZM198.006 92.116H200.424V87.176H198.006V86.292H201.464V92.116H203.726V93H198.006V92.116ZM208.557 93.156C208.072 93.156 207.638 93.0737 207.257 92.909C206.884 92.7357 206.568 92.4973 206.308 92.194C206.048 91.8907 205.849 91.5223 205.71 91.089C205.58 90.6557 205.515 90.1747 205.515 89.646C205.515 89.1173 205.584 88.6363 205.723 88.203C205.862 87.7697 206.061 87.4013 206.321 87.098C206.581 86.786 206.897 86.5477 207.27 86.383C207.643 86.2183 208.067 86.136 208.544 86.136C209.194 86.136 209.723 86.279 210.13 86.565C210.537 86.851 210.836 87.2237 211.027 87.683L210.195 88.125C210.074 87.7783 209.87 87.5097 209.584 87.319C209.307 87.1283 208.96 87.033 208.544 87.033C208.241 87.033 207.968 87.085 207.725 87.189C207.491 87.2843 207.292 87.423 207.127 87.605C206.962 87.787 206.837 88.0037 206.75 88.255C206.672 88.5063 206.633 88.7793 206.633 89.074V90.218C206.633 90.5127 206.672 90.7857 206.75 91.037C206.837 91.2883 206.962 91.505 207.127 91.687C207.292 91.869 207.495 92.012 207.738 92.116C207.981 92.2113 208.258 92.259 208.57 92.259C209.021 92.259 209.393 92.155 209.688 91.947C209.983 91.739 210.217 91.453 210.39 91.089L211.131 91.596C210.932 92.0467 210.62 92.4193 210.195 92.714C209.779 93.0087 209.233 93.156 208.557 93.156ZM213.583 83.38H214.623V89.451H214.675L215.845 88.346L218.081 86.292H219.355L216.573 88.918L219.68 93H218.393L215.78 89.516L214.623 90.569V93H213.583V83.38ZM230.629 93.156C230.23 93.156 229.875 93.091 229.563 92.961C229.259 92.831 228.999 92.6533 228.783 92.428C228.575 92.194 228.414 91.9253 228.302 91.622C228.189 91.3187 228.133 90.9937 228.133 90.647C228.133 90.4217 228.159 90.1877 228.211 89.945C228.263 89.7023 228.354 89.4683 228.484 89.243C228.614 89.009 228.783 88.788 228.991 88.58C229.207 88.3633 229.48 88.1727 229.81 88.008C229.567 87.696 229.363 87.3753 229.199 87.046C229.043 86.7167 228.965 86.357 228.965 85.967C228.965 85.6377 229.025 85.3387 229.147 85.07C229.277 84.8013 229.446 84.5717 229.654 84.381C229.87 84.1817 230.122 84.03 230.408 83.926C230.694 83.822 230.997 83.77 231.318 83.77C231.604 83.77 231.864 83.8133 232.098 83.9C232.34 83.978 232.553 84.082 232.735 84.212C232.917 84.342 233.068 84.4893 233.19 84.654C233.32 84.8187 233.415 84.9833 233.476 85.148L232.618 85.59C232.505 85.3213 232.336 85.1003 232.111 84.927C231.885 84.745 231.604 84.654 231.266 84.654C230.876 84.654 230.564 84.7753 230.33 85.018C230.104 85.252 229.992 85.5553 229.992 85.928V86.032C229.992 86.1707 230.009 86.305 230.044 86.435C230.078 86.565 230.13 86.7037 230.2 86.851C230.278 86.9897 230.373 87.1413 230.486 87.306C230.607 87.4707 230.75 87.657 230.915 87.865L232.085 89.308L233.034 90.478H233.099C233.159 90.14 233.198 89.7543 233.216 89.321C233.233 88.8877 233.25 88.463 233.268 88.047H235.101V88.918H234.126C234.1 89.126 234.074 89.321 234.048 89.503C234.022 89.685 233.991 89.8627 233.957 90.036C233.922 90.2093 233.883 90.387 233.84 90.569C233.796 90.7423 233.736 90.9287 233.658 91.128L235.244 93H234.009L232.878 91.661H232.813C232.691 92.1117 232.444 92.4757 232.072 92.753C231.699 93.0217 231.218 93.156 230.629 93.156ZM230.902 92.233C231.274 92.233 231.604 92.155 231.89 91.999C232.176 91.843 232.401 91.6263 232.566 91.349L230.304 88.619C229.905 88.8703 229.623 89.1563 229.459 89.477C229.294 89.789 229.212 90.1313 229.212 90.504V90.699C229.212 91.167 229.368 91.5397 229.68 91.817C229.992 92.0943 230.399 92.233 230.902 92.233ZM247.596 93.156C246.487 93.156 245.659 92.753 245.113 91.947C244.576 91.141 244.307 89.9797 244.307 88.463C244.307 86.9463 244.576 85.785 245.113 84.979C245.659 84.173 246.487 83.77 247.596 83.77C248.012 83.77 248.372 83.8263 248.675 83.939C248.979 84.0517 249.239 84.2033 249.455 84.394C249.672 84.5847 249.854 84.8013 250.001 85.044C250.149 85.278 250.279 85.5163 250.391 85.759L249.455 86.188C249.377 85.9887 249.286 85.8023 249.182 85.629C249.078 85.447 248.953 85.291 248.805 85.161C248.667 85.0223 248.498 84.914 248.298 84.836C248.108 84.758 247.874 84.719 247.596 84.719C246.877 84.719 246.34 84.992 245.984 85.538C245.638 86.084 245.464 86.812 245.464 87.722V89.204C245.464 90.114 245.638 90.842 245.984 91.388C246.34 91.934 246.877 92.207 247.596 92.207C247.874 92.207 248.108 92.168 248.298 92.09C248.498 92.012 248.667 91.908 248.805 91.778C248.953 91.6393 249.078 91.4833 249.182 91.31C249.286 91.128 249.377 90.9373 249.455 90.738L250.391 91.167C250.279 91.4183 250.149 91.661 250.001 91.895C249.854 92.129 249.672 92.3413 249.455 92.532C249.239 92.7227 248.979 92.8743 248.675 92.987C248.372 93.0997 248.012 93.156 247.596 93.156ZM255.092 93.156C254.624 93.156 254.2 93.0737 253.818 92.909C253.446 92.7443 253.125 92.5103 252.856 92.207C252.596 91.895 252.397 91.5267 252.258 91.102C252.12 90.6687 252.05 90.1833 252.05 89.646C252.05 89.1173 252.12 88.6363 252.258 88.203C252.397 87.7697 252.596 87.4013 252.856 87.098C253.125 86.786 253.446 86.5477 253.818 86.383C254.2 86.2183 254.624 86.136 255.092 86.136C255.56 86.136 255.981 86.2183 256.353 86.383C256.735 86.5477 257.055 86.786 257.315 87.098C257.584 87.4013 257.788 87.7697 257.926 88.203C258.065 88.6363 258.134 89.1173 258.134 89.646C258.134 90.1833 258.065 90.6687 257.926 91.102C257.788 91.5267 257.584 91.895 257.315 92.207C257.055 92.5103 256.735 92.7443 256.353 92.909C255.981 93.0737 255.56 93.156 255.092 93.156ZM255.092 92.259C255.673 92.259 256.141 92.0857 256.496 91.739C256.852 91.3923 257.029 90.855 257.029 90.127V89.165C257.029 88.437 256.852 87.8997 256.496 87.553C256.141 87.2063 255.673 87.033 255.092 87.033C254.512 87.033 254.044 87.2063 253.688 87.553C253.333 87.8997 253.155 88.437 253.155 89.165V90.127C253.155 90.855 253.333 91.3923 253.688 91.739C254.044 92.0857 254.512 92.259 255.092 92.259ZM260.027 92.116H262.367V84.264H260.027V83.38H263.407V92.116H265.747V93H260.027V92.116ZM267.822 92.116H270.162V84.264H267.822V83.38H271.202V92.116H273.542V93H267.822V92.116ZM278.594 93.156C278.109 93.156 277.671 93.0737 277.281 92.909C276.9 92.7443 276.57 92.5103 276.293 92.207C276.024 91.895 275.816 91.5267 275.669 91.102C275.522 90.6687 275.448 90.1877 275.448 89.659C275.448 89.1217 275.522 88.6363 275.669 88.203C275.825 87.7697 276.037 87.4013 276.306 87.098C276.575 86.786 276.895 86.5477 277.268 86.383C277.649 86.2183 278.07 86.136 278.529 86.136C278.98 86.136 279.387 86.2183 279.751 86.383C280.124 86.5477 280.44 86.7773 280.7 87.072C280.96 87.358 281.159 87.7003 281.298 88.099C281.437 88.4977 281.506 88.9353 281.506 89.412V89.906H276.54V90.218C276.54 90.5127 276.588 90.7857 276.683 91.037C276.778 91.2883 276.913 91.505 277.086 91.687C277.268 91.869 277.485 92.012 277.736 92.116C277.996 92.2113 278.282 92.259 278.594 92.259C279.045 92.259 279.435 92.155 279.764 91.947C280.093 91.739 280.345 91.453 280.518 91.089L281.285 91.609C281.086 92.0597 280.752 92.4323 280.284 92.727C279.825 93.013 279.261 93.156 278.594 93.156ZM278.529 86.994C278.243 86.994 277.979 87.046 277.736 87.15C277.493 87.254 277.281 87.397 277.099 87.579C276.926 87.761 276.787 87.9777 276.683 88.229C276.588 88.4717 276.54 88.7403 276.54 89.035V89.126H280.388V88.983C280.388 88.6883 280.34 88.4197 280.245 88.177C280.158 87.9343 280.033 87.7263 279.868 87.553C279.712 87.371 279.517 87.2323 279.283 87.137C279.058 87.0417 278.806 86.994 278.529 86.994ZM286.506 93.156C286.021 93.156 285.587 93.0737 285.206 92.909C284.833 92.7357 284.517 92.4973 284.257 92.194C283.997 91.8907 283.798 91.5223 283.659 91.089C283.529 90.6557 283.464 90.1747 283.464 89.646C283.464 89.1173 283.533 88.6363 283.672 88.203C283.811 87.7697 284.01 87.4013 284.27 87.098C284.53 86.786 284.846 86.5477 285.219 86.383C285.592 86.2183 286.016 86.136 286.493 86.136C287.143 86.136 287.672 86.279 288.079 86.565C288.486 86.851 288.785 87.2237 288.976 87.683L288.144 88.125C288.023 87.7783 287.819 87.5097 287.533 87.319C287.256 87.1283 286.909 87.033 286.493 87.033C286.19 87.033 285.917 87.085 285.674 87.189C285.44 87.2843 285.241 87.423 285.076 87.605C284.911 87.787 284.786 88.0037 284.699 88.255C284.621 88.5063 284.582 88.7793 284.582 89.074V90.218C284.582 90.5127 284.621 90.7857 284.699 91.037C284.786 91.2883 284.911 91.505 285.076 91.687C285.241 91.869 285.444 92.012 285.687 92.116C285.93 92.2113 286.207 92.259 286.519 92.259C286.97 92.259 287.342 92.155 287.637 91.947C287.932 91.739 288.166 91.453 288.339 91.089L289.08 91.596C288.881 92.0467 288.569 92.4193 288.144 92.714C287.728 93.0087 287.182 93.156 286.506 93.156ZM294.392 93C293.881 93 293.504 92.857 293.261 92.571C293.027 92.285 292.91 91.9167 292.91 91.466V87.176H290.674V86.292H292.338C292.563 86.292 292.719 86.2487 292.806 86.162C292.901 86.0667 292.949 85.9063 292.949 85.681V83.926H293.95V86.292H297.005V87.176H293.95V92.116H297.005V93H294.392ZM225.928 105.45V102.577H225.824L223.913 107.244L222.002 102.577H221.898V105.45V110H220.897V100.926H222.301L223.9 104.93H223.978L225.577 100.926H226.929V110H225.928V105.45ZM231.708 110.156C231.24 110.156 230.815 110.074 230.434 109.909C230.061 109.744 229.74 109.51 229.472 109.207C229.212 108.895 229.012 108.527 228.874 108.102C228.735 107.669 228.666 107.183 228.666 106.646C228.666 106.117 228.735 105.636 228.874 105.203C229.012 104.77 229.212 104.401 229.472 104.098C229.74 103.786 230.061 103.548 230.434 103.383C230.815 103.218 231.24 103.136 231.708 103.136C232.176 103.136 232.596 103.218 232.969 103.383C233.35 103.548 233.671 103.786 233.931 104.098C234.199 104.401 234.403 104.77 234.542 105.203C234.68 105.636 234.75 106.117 234.75 106.646C234.75 107.183 234.68 107.669 234.542 108.102C234.403 108.527 234.199 108.895 233.931 109.207C233.671 109.51 233.35 109.744 232.969 109.909C232.596 110.074 232.176 110.156 231.708 110.156ZM231.708 109.259C232.288 109.259 232.756 109.086 233.112 108.739C233.467 108.392 233.645 107.855 233.645 107.127V106.165C233.645 105.437 233.467 104.9 233.112 104.553C232.756 104.206 232.288 104.033 231.708 104.033C231.127 104.033 230.659 104.206 230.304 104.553C229.948 104.9 229.771 105.437 229.771 106.165V107.127C229.771 107.855 229.948 108.392 230.304 108.739C230.659 109.086 231.127 109.259 231.708 109.259ZM241.128 108.908H241.076C240.642 109.74 239.953 110.156 239.009 110.156C238.185 110.156 237.54 109.848 237.072 109.233C236.612 108.618 236.383 107.755 236.383 106.646C236.383 105.537 236.612 104.674 237.072 104.059C237.54 103.444 238.185 103.136 239.009 103.136C239.953 103.136 240.642 103.552 241.076 104.384H241.128V100.38H242.168V110H241.128V108.908ZM239.412 109.233C239.646 109.233 239.867 109.203 240.075 109.142C240.283 109.081 240.465 108.995 240.621 108.882C240.777 108.761 240.898 108.618 240.985 108.453C241.08 108.28 241.128 108.08 241.128 107.855V105.437C241.128 105.212 241.08 105.017 240.985 104.852C240.898 104.679 240.777 104.536 240.621 104.423C240.465 104.302 240.283 104.211 240.075 104.15C239.867 104.089 239.646 104.059 239.412 104.059C238.805 104.059 238.333 104.245 237.995 104.618C237.665 104.982 237.501 105.467 237.501 106.074V107.218C237.501 107.825 237.665 108.314 237.995 108.687C238.333 109.051 238.805 109.233 239.412 109.233ZM249.832 110C249.425 110 249.135 109.896 248.961 109.688C248.788 109.48 248.68 109.22 248.636 108.908H248.571C248.424 109.298 248.186 109.606 247.856 109.831C247.536 110.048 247.102 110.156 246.556 110.156C245.854 110.156 245.295 109.974 244.879 109.61C244.463 109.246 244.255 108.748 244.255 108.115C244.255 107.491 244.481 107.01 244.931 106.672C245.391 106.334 246.127 106.165 247.141 106.165H248.571V105.502C248.571 105.008 248.433 104.64 248.155 104.397C247.878 104.146 247.484 104.02 246.972 104.02C246.522 104.02 246.153 104.111 245.867 104.293C245.581 104.466 245.352 104.705 245.178 105.008L244.476 104.488C244.563 104.315 244.68 104.146 244.827 103.981C244.975 103.816 245.157 103.673 245.373 103.552C245.59 103.422 245.837 103.322 246.114 103.253C246.392 103.175 246.699 103.136 247.037 103.136C247.826 103.136 248.45 103.335 248.909 103.734C249.377 104.133 249.611 104.687 249.611 105.398V109.09H250.547V110H249.832ZM246.738 109.285C247.007 109.285 247.25 109.255 247.466 109.194C247.692 109.125 247.887 109.038 248.051 108.934C248.216 108.821 248.342 108.691 248.428 108.544C248.524 108.388 248.571 108.223 248.571 108.05V106.945H247.141C246.517 106.945 246.062 107.032 245.776 107.205C245.49 107.378 245.347 107.63 245.347 107.959V108.232C245.347 108.579 245.469 108.843 245.711 109.025C245.963 109.198 246.305 109.285 246.738 109.285ZM252.232 109.116H254.572V101.264H252.232V100.38H255.612V109.116H257.952V110H252.232V109.116Z" fill="black"/>
<path d="M301.726 59.7504C301.947 59.972 301.947 60.3314 301.726 60.5552L300.555 61.7258C300.334 61.9474 299.974 61.9474 299.75 61.7258L297 58.9714L294.248 61.7236C294.027 61.9452 293.667 61.9452 293.443 61.7236L292.273 60.553C292.051 60.3314 292.051 59.972 292.273 59.7482L295.027 56.9982L292.275 54.2461C292.053 54.0244 292.053 53.6651 292.275 53.4413L293.446 52.2707C293.667 52.0491 294.027 52.0491 294.25 52.2707L297 55.025L299.753 52.2729C299.974 52.0512 300.334 52.0512 300.557 52.2729L301.728 53.4435C301.95 53.6651 301.95 54.0244 301.728 54.2482L298.974 56.9982L301.726 59.7504Z" fill="white"/>
<path d="M301.648 59.8257C301.805 59.9893 301.831 60.2432 301.691 60.4282C301.655 60.4756 301.607 60.5186 301.564 60.5616C301.381 60.7445 301.201 60.9253 301.018 61.1082C300.85 61.276 300.682 61.4439 300.514 61.6139C300.318 61.8097 300.034 61.8463 299.824 61.644C299.157 61.0049 298.515 60.3357 297.863 59.6837C297.601 59.4212 297.338 59.1587 297.078 58.8983C297.037 58.8574 296.966 58.8574 296.925 58.8983C296.456 59.3674 295.987 59.8365 295.52 60.3034C295.201 60.6219 294.883 60.9404 294.565 61.2588C294.466 61.3578 294.367 61.4568 294.268 61.5558C294.203 61.6203 294.143 61.6892 294.061 61.7322C293.842 61.8484 293.629 61.7559 293.469 61.5967C293.334 61.4611 293.2 61.3277 293.065 61.1921C292.899 61.0264 292.736 60.8629 292.57 60.6972C292.482 60.609 292.372 60.5208 292.301 60.4175C292.163 60.2195 292.208 59.9742 292.37 59.8085C292.439 59.7397 292.51 59.6686 292.578 59.5998C292.867 59.3114 293.153 59.0253 293.441 58.7369C293.986 58.1925 294.528 57.6502 295.072 57.1058C295.083 57.0951 295.094 57.0843 295.103 57.0757C295.143 57.0348 295.143 56.9638 295.103 56.9229C294.633 56.4538 294.164 55.9848 293.697 55.5178C293.379 55.1993 293.06 54.8809 292.742 54.5624C292.643 54.4634 292.544 54.3644 292.445 54.2655C292.38 54.2009 292.312 54.1407 292.269 54.0589C292.152 53.8394 292.245 53.6264 292.404 53.4671C292.54 53.3316 292.673 53.1982 292.809 53.0626C292.974 52.8969 293.138 52.7334 293.304 52.5677C293.392 52.4795 293.48 52.3697 293.583 52.2987C293.781 52.161 294.027 52.2062 294.192 52.3676C294.261 52.4364 294.332 52.5074 294.401 52.5763C294.689 52.8646 294.976 53.1508 295.264 53.4392C295.808 53.9836 296.351 54.5258 296.895 55.0702C296.906 55.081 296.916 55.0918 296.925 55.1004C296.966 55.1412 297.037 55.1412 297.078 55.1004C297.547 54.6313 298.016 54.1622 298.483 53.6952C298.801 53.3768 299.12 53.0583 299.438 52.7398C299.537 52.6408 299.636 52.5419 299.735 52.4429C299.8 52.3783 299.86 52.3095 299.942 52.2664C300.161 52.1502 300.374 52.2428 300.536 52.402C300.671 52.5376 300.805 52.671 300.94 52.8065C301.106 52.9722 301.27 53.1358 301.435 53.3015C301.523 53.3897 301.633 53.4779 301.704 53.5812C301.842 53.7792 301.797 54.0245 301.635 54.1901C301.567 54.259 301.496 54.33 301.427 54.3989C301.138 54.6872 300.852 54.9734 300.564 55.2617C300.019 55.8062 299.477 56.3484 298.933 56.8928C298.922 56.9036 298.911 56.9143 298.903 56.9229C298.862 56.9638 298.862 57.0348 298.903 57.0757C299.212 57.3856 299.52 57.6933 299.83 58.0031C300.323 58.4959 300.818 58.9908 301.31 59.4836C301.42 59.5976 301.534 59.7117 301.648 59.8257C301.747 59.9247 301.898 59.7719 301.801 59.6729C301.491 59.3631 301.184 59.0554 300.874 58.7455C300.381 58.2528 299.886 57.7578 299.393 57.2651C299.279 57.151 299.165 57.037 299.051 56.9229C299.051 56.9746 299.051 57.0241 299.051 57.0757C299.546 56.5808 300.039 56.088 300.534 55.5931C300.852 55.2747 301.168 54.9583 301.487 54.6399C301.681 54.4462 301.943 54.2461 301.99 53.9599C302.031 53.7103 301.932 53.4951 301.758 53.323C301.622 53.1874 301.487 53.0518 301.351 52.9163C301.179 52.7441 301.009 52.5741 300.837 52.402C300.736 52.3009 300.635 52.1804 300.514 52.1029C300.245 51.9308 299.899 51.9824 299.673 52.1997C299.619 52.2514 299.568 52.3052 299.514 52.359C299.232 52.6408 298.95 52.9227 298.666 53.2068C298.096 53.777 297.525 54.3472 296.955 54.9175C296.944 54.9282 296.934 54.939 296.923 54.9497C296.975 54.9497 297.024 54.9497 297.076 54.9497C296.581 54.4548 296.088 53.9621 295.593 53.4671C295.275 53.1487 294.958 52.8324 294.64 52.5139C294.446 52.3202 294.246 52.0577 293.96 52.0104C293.71 51.9695 293.495 52.0685 293.323 52.2428C293.187 52.3783 293.052 52.5139 292.916 52.6495C292.744 52.8216 292.574 52.9916 292.402 53.1637C292.301 53.2649 292.18 53.366 292.103 53.4865C291.931 53.7555 291.982 54.1019 292.2 54.3279C292.251 54.3817 292.305 54.4333 292.359 54.4871C292.641 54.769 292.923 55.0509 293.207 55.3349C293.777 55.9051 294.347 56.4754 294.917 57.0456C294.928 57.0564 294.939 57.0671 294.95 57.0779C294.95 57.0262 294.95 56.9767 294.95 56.9251C294.455 57.42 293.962 57.9128 293.467 58.4077C293.149 58.7262 292.832 59.0425 292.514 59.3609C292.32 59.5546 292.058 59.7547 292.01 60.0409C291.969 60.2905 292.068 60.5057 292.243 60.6778C292.378 60.8134 292.514 60.949 292.649 61.0845C292.822 61.2567 292.992 61.4267 293.164 61.5988C293.265 61.6999 293.366 61.8204 293.487 61.8979C293.755 62.0701 294.102 62.0184 294.328 61.8011C294.382 61.7494 294.433 61.6956 294.487 61.6418C294.769 61.36 295.051 61.0781 295.335 60.794C295.905 60.2238 296.475 59.6536 297.046 59.0834C297.056 59.0726 297.067 59.0618 297.078 59.0511C297.026 59.0511 296.977 59.0511 296.925 59.0511C297.599 59.7246 298.272 60.3981 298.946 61.0716C299.189 61.3148 299.428 61.5644 299.675 61.8011C299.951 62.0636 300.37 62.0593 300.641 61.7925C300.8 61.6375 300.955 61.4783 301.113 61.3212C301.326 61.1082 301.536 60.8973 301.749 60.6843C301.838 60.5961 301.917 60.5014 301.96 60.3809C302.051 60.1334 301.982 59.8623 301.803 59.6751C301.706 59.574 301.554 59.7246 301.648 59.8257Z" fill="white"/>
<path d="M168 93.5L162.75 96.5311L162.75 90.4689L168 93.5Z" fill="#CCCCCC"/>
<path d="M510 93.5L504.75 96.5311L504.75 90.4689L510 93.5Z" fill="#CCCCCC"/>
</svg>
